<svg xmlns="http://www.w3.org/2000/svg" xmlns:xlink="http://www.w3.org/1999/xlink" version="1.1" x="0px" y="0px" viewBox="0 0 100 125" enable-background="new 0 0 100 100" xml:space="preserve"><path fill-rule="evenodd" clip-rule="evenodd" d="M50.869,92.472c-9.508-0.104-18.432-2.246-26.205-7.959  C13.319,76.175,9.256,62.016,13.951,47.686c0.369-1.129,1.264-2.406,0.98-3.328c-0.219-0.712-1.928-0.922-2.924-1.449  c-5.483-2.898-8.529-9.417-7.427-15.82c1.138-6.604,6.505-12.104,12.754-13.072c7.757-1.2,14.312,2.414,17.226,9.617  c0.43,1.062,0.746,1.216,1.818,0.857c9.56-3.194,19.158-3.337,28.705,0.016c1.463,0.514,1.465-0.332,1.833-1.16  c2.666-5.99,7.244-9.399,13.832-9.557c6.646-0.157,11.601,2.991,14.502,8.911c2.86,5.837,2.305,11.536-1.739,16.749  c-1.507,1.944-3.427,3.469-5.768,4.168c-1.536,0.459-1.379,1.042-0.953,2.235c3.425,9.594,3.729,19.145-1.154,28.348  c-5.278,9.945-14.173,14.919-24.803,17.282C57.557,92.211,54.225,92.466,50.869,92.472z M50.768,26.314  c-15.291-0.054-27.311,7.976-32.384,21.632c-5.636,15.17,0.249,30.021,14.686,36.541c10.713,4.839,21.73,5.21,32.746,1.094  C81.8,79.608,88.696,64.823,83.224,48.66C78.492,34.687,66.411,26.369,50.768,26.314z"/><path fill-rule="evenodd" clip-rule="evenodd" d="M37.377,51.275c4.483-0.03,7.585,3.669,6.744,8.123  c-0.997,5.284-3.762,9.51-8.257,12.53c-1.826,1.228-3.844,1.821-6.069,1.618c-3.99-0.362-6.914-3.884-6.147-7.827  c1.225-6.295,4.883-10.857,10.593-13.754C35.258,51.449,36.385,51.229,37.377,51.275z M37.409,61.488  c-0.02-1.466-1.244-2.654-2.716-2.542c-1.542,0.117-2.429,0.988-2.494,2.552c-0.061,1.455,1.18,2.703,2.598,2.697  C36.21,64.19,37.429,62.927,37.409,61.488z"/><path fill-rule="evenodd" clip-rule="evenodd" d="M63.908,51.281c1.622-0.082,3.24,0.533,4.728,1.456  c4.369,2.712,7.277,6.599,8.861,11.456c0.927,2.841,0.386,5.439-1.849,7.508c-2.219,2.054-4.865,2.354-7.652,1.445  c-5.561-1.811-10.899-9.265-10.862-15.078C57.158,54.128,59.921,51.283,63.908,51.281z M63.932,61.484  c-0.024,1.448,1.189,2.711,2.602,2.705c1.452-0.005,2.684-1.224,2.606-2.679c-0.082-1.536-0.924-2.456-2.485-2.564  C65.17,58.844,63.956,60.014,63.932,61.484z"/><path fill-rule="evenodd" clip-rule="evenodd" d="M50.702,67.341c1.492-0.026,2.939,0.17,4.26,0.907  c2.185,1.221,2.281,3.175,0.224,4.553c-0.437,0.292-0.94,0.622-1.436,0.662c-1.852,0.15-2.176,1.199-2.002,2.819  c0.179,1.663,0.94,2.788,2.534,3.198c1.617,0.417,2.884-0.201,3.68-1.68c0.185-0.344,0.286-0.741,0.372-1.126  c0.163-0.725,0.486-1.353,1.322-1.134c0.807,0.21,0.812,0.946,0.7,1.649c-0.305,1.936-1.368,3.336-3.14,4.101  c-1.85,0.798-3.747,0.683-5.257-0.686c-1.003-0.908-1.511-0.769-2.508,0.019c-3.104,2.452-7.81,0.588-8.399-3.228  c-0.111-0.722-0.28-1.612,0.672-1.837c0.961-0.227,1.118,0.584,1.35,1.337c0.695,2.259,2.519,3.251,4.437,2.507  c1.657-0.643,2.782-3.527,2.044-5.142c-0.265-0.578-0.79-0.384-1.194-0.536c-1.635-0.614-3.63-1.135-3.464-3.287  c0.168-2.192,2.231-2.576,4.011-2.969C49.486,67.343,50.103,67.379,50.702,67.341z"/><text x="0" y="115" fill="#000000" font-size="5px" font-weight="bold" font-family="'Helvetica Neue', Helvetica, Arial-Unicode, Arial, Sans-serif">Created by grace cho</text><text x="0" y="120" fill="#000000" font-size="5px" font-weight="bold" font-family="'Helvetica Neue', Helvetica, Arial-Unicode, Arial, Sans-serif">from the Noun Project</text></svg>