<svg xmlns="http://www.w3.org/2000/svg" xmlns:xlink="http://www.w3.org/1999/xlink" width="2000" zoomAndPan="magnify" viewBox="0 0 1500 1499.999933" height="2000" preserveAspectRatio="xMidYMid meet" version="1.0"><defs><clipPath id="3712a136f2"><path d="M 539 140 L 1406.632812 140 L 1406.632812 1370 L 539 1370 Z M 539 140 " clip-rule="nonzero"/></clipPath><clipPath id="03aa22fb71"><path d="M 224.660156 1002.230469 L 332.652344 1002.230469 L 332.652344 1110.222656 L 224.660156 1110.222656 Z M 224.660156 1002.230469 " clip-rule="nonzero"/></clipPath><clipPath id="c72c5ab581"><path d="M 278.65625 1002.230469 C 248.832031 1002.230469 224.660156 1026.40625 224.660156 1056.226562 C 224.660156 1086.046875 248.832031 1110.222656 278.65625 1110.222656 C 308.476562 1110.222656 332.652344 1086.046875 332.652344 1056.226562 C 332.652344 1026.40625 308.476562 1002.230469 278.65625 1002.230469 Z M 278.65625 1002.230469 " clip-rule="nonzero"/></clipPath><clipPath id="7a27cbf12f"><path d="M 0.660156 0.230469 L 108.652344 0.230469 L 108.652344 108.222656 L 0.660156 108.222656 Z M 0.660156 0.230469 " clip-rule="nonzero"/></clipPath><clipPath id="b1b6cd2478"><path d="M 54.65625 0.230469 C 24.832031 0.230469 0.660156 24.40625 0.660156 54.226562 C 0.660156 84.046875 24.832031 108.222656 54.65625 108.222656 C 84.476562 108.222656 108.652344 84.046875 108.652344 54.226562 C 108.652344 24.40625 84.476562 0.230469 54.65625 0.230469 Z M 54.65625 0.230469 " clip-rule="nonzero"/></clipPath><linearGradient x1="0.00000206692" gradientTransform="matrix(0.421846, 0, 0, 0.421846, 0.6585, 0.230519)" y1="128" x2="255.999995" gradientUnits="userSpaceOnUse" y2="128" id="01ca7df280"><stop stop-opacity="1" stop-color="rgb(0%, 0%, 0%)" offset="0"/><stop stop-opacity="1" stop-color="rgb(0.175476%, 0.175476%, 0.175476%)" offset="0.0078125"/><stop stop-opacity="1" stop-color="rgb(0.526428%, 0.526428%, 0.526428%)" offset="0.015625"/><stop stop-opacity="1" stop-color="rgb(0.878906%, 0.878906%, 0.878906%)" offset="0.0234375"/><stop stop-opacity="1" stop-color="rgb(1.231384%, 1.231384%, 1.231384%)" offset="0.03125"/><stop stop-opacity="1" stop-color="rgb(1.583862%, 1.583862%, 1.583862%)" offset="0.0390625"/><stop stop-opacity="1" stop-color="rgb(1.93634%, 1.93634%, 1.93634%)" offset="0.046875"/><stop stop-opacity="1" stop-color="rgb(2.288818%, 2.288818%, 2.288818%)" offset="0.0546875"/><stop stop-opacity="1" stop-color="rgb(2.641296%, 2.641296%, 2.641296%)" offset="0.0625"/><stop stop-opacity="1" stop-color="rgb(2.993774%, 2.993774%, 2.993774%)" offset="0.0703125"/><stop stop-opacity="1" stop-color="rgb(3.346252%, 3.346252%, 3.346252%)" offset="0.078125"/><stop stop-opacity="1" stop-color="rgb(3.69873%, 3.69873%, 3.69873%)" offset="0.0859375"/><stop stop-opacity="1" stop-color="rgb(4.051208%, 4.051208%, 4.051208%)" offset="0.09375"/><stop stop-opacity="1" stop-color="rgb(4.402161%, 4.402161%, 4.402161%)" offset="0.101562"/><stop stop-opacity="1" stop-color="rgb(4.754639%, 4.754639%, 4.754639%)" offset="0.109375"/><stop stop-opacity="1" stop-color="rgb(5.107117%, 5.107117%, 5.107117%)" offset="0.117188"/><stop stop-opacity="1" stop-color="rgb(5.459595%, 5.459595%, 5.459595%)" offset="0.125"/><stop stop-opacity="1" stop-color="rgb(5.812073%, 5.812073%, 5.812073%)" offset="0.132812"/><stop stop-opacity="1" stop-color="rgb(6.164551%, 6.164551%, 6.164551%)" offset="0.140625"/><stop stop-opacity="1" stop-color="rgb(6.517029%, 6.517029%, 6.517029%)" offset="0.148438"/><stop stop-opacity="1" stop-color="rgb(6.869507%, 6.869507%, 6.869507%)" offset="0.15625"/><stop stop-opacity="1" stop-color="rgb(7.221985%, 7.221985%, 7.221985%)" offset="0.164062"/><stop stop-opacity="1" stop-color="rgb(7.574463%, 7.574463%, 7.574463%)" offset="0.171875"/><stop stop-opacity="1" stop-color="rgb(7.926941%, 7.926941%, 7.926941%)" offset="0.179688"/><stop stop-opacity="1" stop-color="rgb(8.277893%, 8.277893%, 8.277893%)" offset="0.1875"/><stop stop-opacity="1" stop-color="rgb(8.630371%, 8.630371%, 8.630371%)" offset="0.195312"/><stop stop-opacity="1" stop-color="rgb(8.982849%, 8.982849%, 8.982849%)" offset="0.203125"/><stop stop-opacity="1" stop-color="rgb(9.335327%, 9.335327%, 9.335327%)" offset="0.210938"/><stop stop-opacity="1" stop-color="rgb(9.687805%, 9.687805%, 9.687805%)" offset="0.21875"/><stop stop-opacity="1" stop-color="rgb(10.040283%, 10.040283%, 10.040283%)" offset="0.226562"/><stop stop-opacity="1" stop-color="rgb(10.392761%, 10.392761%, 10.392761%)" offset="0.234375"/><stop stop-opacity="1" stop-color="rgb(10.745239%, 10.745239%, 10.745239%)" offset="0.242188"/><stop stop-opacity="1" stop-color="rgb(11.097717%, 11.097717%, 11.097717%)" offset="0.25"/><stop stop-opacity="1" stop-color="rgb(11.450195%, 11.450195%, 11.450195%)" offset="0.257812"/><stop stop-opacity="1" stop-color="rgb(11.802673%, 11.802673%, 11.802673%)" offset="0.265625"/><stop stop-opacity="1" stop-color="rgb(12.155151%, 12.155151%, 12.155151%)" offset="0.273437"/><stop stop-opacity="1" stop-color="rgb(12.506104%, 12.506104%, 12.506104%)" offset="0.28125"/><stop stop-opacity="1" stop-color="rgb(12.858582%, 12.858582%, 12.858582%)" offset="0.289063"/><stop stop-opacity="1" stop-color="rgb(13.21106%, 13.21106%, 13.21106%)" offset="0.296875"/><stop stop-opacity="1" stop-color="rgb(13.563538%, 13.563538%, 13.563538%)" offset="0.304688"/><stop stop-opacity="1" stop-color="rgb(13.916016%, 13.916016%, 13.916016%)" offset="0.3125"/><stop stop-opacity="1" stop-color="rgb(14.268494%, 14.268494%, 14.268494%)" offset="0.320312"/><stop stop-opacity="1" stop-color="rgb(14.620972%, 14.620972%, 14.620972%)" offset="0.328125"/><stop stop-opacity="1" stop-color="rgb(14.97345%, 14.97345%, 14.97345%)" offset="0.335937"/><stop stop-opacity="1" stop-color="rgb(15.325928%, 15.325928%, 15.325928%)" offset="0.34375"/><stop stop-opacity="1" stop-color="rgb(15.678406%, 15.678406%, 15.678406%)" offset="0.351563"/><stop stop-opacity="1" stop-color="rgb(16.030884%, 16.030884%, 16.030884%)" offset="0.359375"/><stop stop-opacity="1" stop-color="rgb(16.381836%, 16.381836%, 16.381836%)" offset="0.367188"/><stop stop-opacity="1" stop-color="rgb(16.734314%, 16.734314%, 16.734314%)" offset="0.375"/><stop stop-opacity="1" stop-color="rgb(17.086792%, 17.086792%, 17.086792%)" offset="0.382812"/><stop stop-opacity="1" stop-color="rgb(17.43927%, 17.43927%, 17.43927%)" offset="0.390625"/><stop stop-opacity="1" stop-color="rgb(17.791748%, 17.791748%, 17.791748%)" offset="0.398437"/><stop stop-opacity="1" stop-color="rgb(18.144226%, 18.144226%, 18.144226%)" offset="0.40625"/><stop stop-opacity="1" stop-color="rgb(18.496704%, 18.496704%, 18.496704%)" offset="0.414063"/><stop stop-opacity="1" stop-color="rgb(18.849182%, 18.849182%, 18.849182%)" offset="0.421875"/><stop stop-opacity="1" stop-color="rgb(19.20166%, 19.20166%, 19.20166%)" offset="0.429688"/><stop stop-opacity="1" stop-color="rgb(19.554138%, 19.554138%, 19.554138%)" offset="0.4375"/><stop stop-opacity="1" stop-color="rgb(19.906616%, 19.906616%, 19.906616%)" offset="0.445312"/><stop stop-opacity="1" stop-color="rgb(20.257568%, 20.257568%, 20.257568%)" offset="0.453125"/><stop stop-opacity="1" stop-color="rgb(20.610046%, 20.610046%, 20.610046%)" offset="0.460937"/><stop stop-opacity="1" stop-color="rgb(20.962524%, 20.962524%, 20.962524%)" offset="0.46875"/><stop stop-opacity="1" stop-color="rgb(21.315002%, 21.315002%, 21.315002%)" offset="0.476563"/><stop stop-opacity="1" stop-color="rgb(21.66748%, 21.66748%, 21.66748%)" offset="0.484375"/><stop stop-opacity="1" stop-color="rgb(22.019958%, 22.019958%, 22.019958%)" offset="0.492188"/><stop stop-opacity="1" stop-color="rgb(22.372437%, 22.372437%, 22.372437%)" offset="0.5"/><stop stop-opacity="1" stop-color="rgb(22.724915%, 22.724915%, 22.724915%)" offset="0.507812"/><stop stop-opacity="1" stop-color="rgb(23.077393%, 23.077393%, 23.077393%)" offset="0.515625"/><stop stop-opacity="1" stop-color="rgb(23.429871%, 23.429871%, 23.429871%)" offset="0.523438"/><stop stop-opacity="1" stop-color="rgb(23.782349%, 23.782349%, 23.782349%)" offset="0.53125"/><stop stop-opacity="1" stop-color="rgb(24.134827%, 24.134827%, 24.134827%)" offset="0.539062"/><stop stop-opacity="1" stop-color="rgb(24.485779%, 24.485779%, 24.485779%)" offset="0.546875"/><stop stop-opacity="1" stop-color="rgb(24.838257%, 24.838257%, 24.838257%)" offset="0.554687"/><stop stop-opacity="1" stop-color="rgb(25.190735%, 25.190735%, 25.190735%)" offset="0.5625"/><stop stop-opacity="1" stop-color="rgb(25.543213%, 25.543213%, 25.543213%)" offset="0.570313"/><stop stop-opacity="1" stop-color="rgb(25.895691%, 25.895691%, 25.895691%)" offset="0.578125"/><stop stop-opacity="1" stop-color="rgb(26.248169%, 26.248169%, 26.248169%)" offset="0.585938"/><stop stop-opacity="1" stop-color="rgb(26.600647%, 26.600647%, 26.600647%)" offset="0.59375"/><stop stop-opacity="1" stop-color="rgb(26.953125%, 26.953125%, 26.953125%)" offset="0.601562"/><stop stop-opacity="1" stop-color="rgb(27.305603%, 27.305603%, 27.305603%)" offset="0.609375"/><stop stop-opacity="1" stop-color="rgb(27.658081%, 27.658081%, 27.658081%)" offset="0.617188"/><stop stop-opacity="1" stop-color="rgb(28.010559%, 28.010559%, 28.010559%)" offset="0.625"/><stop stop-opacity="1" stop-color="rgb(28.361511%, 28.361511%, 28.361511%)" offset="0.632812"/><stop stop-opacity="1" stop-color="rgb(28.713989%, 28.713989%, 28.713989%)" offset="0.640625"/><stop stop-opacity="1" stop-color="rgb(29.066467%, 29.066467%, 29.066467%)" offset="0.648438"/><stop stop-opacity="1" stop-color="rgb(29.418945%, 29.418945%, 29.418945%)" offset="0.65625"/><stop stop-opacity="1" stop-color="rgb(29.771423%, 29.771423%, 29.771423%)" offset="0.664062"/><stop stop-opacity="1" stop-color="rgb(30.123901%, 30.123901%, 30.123901%)" offset="0.671875"/><stop stop-opacity="1" stop-color="rgb(30.476379%, 30.476379%, 30.476379%)" offset="0.679687"/><stop stop-opacity="1" stop-color="rgb(30.828857%, 30.828857%, 30.828857%)" offset="0.6875"/><stop stop-opacity="1" stop-color="rgb(31.181335%, 31.181335%, 31.181335%)" offset="0.695313"/><stop stop-opacity="1" stop-color="rgb(31.533813%, 31.533813%, 31.533813%)" offset="0.703125"/><stop stop-opacity="1" stop-color="rgb(31.886292%, 31.886292%, 31.886292%)" offset="0.710938"/><stop stop-opacity="1" stop-color="rgb(32.237244%, 32.237244%, 32.237244%)" offset="0.71875"/><stop stop-opacity="1" stop-color="rgb(32.589722%, 32.589722%, 32.589722%)" offset="0.726562"/><stop stop-opacity="1" stop-color="rgb(32.9422%, 32.9422%, 32.9422%)" offset="0.734375"/><stop stop-opacity="1" stop-color="rgb(33.294678%, 33.294678%, 33.294678%)" offset="0.742188"/><stop stop-opacity="1" stop-color="rgb(33.647156%, 33.647156%, 33.647156%)" offset="0.75"/><stop stop-opacity="1" stop-color="rgb(33.999634%, 33.999634%, 33.999634%)" offset="0.757812"/><stop stop-opacity="1" stop-color="rgb(34.352112%, 34.352112%, 34.352112%)" offset="0.765625"/><stop stop-opacity="1" stop-color="rgb(34.70459%, 34.70459%, 34.70459%)" offset="0.773438"/><stop stop-opacity="1" stop-color="rgb(35.057068%, 35.057068%, 35.057068%)" offset="0.78125"/><stop stop-opacity="1" stop-color="rgb(35.409546%, 35.409546%, 35.409546%)" offset="0.789062"/><stop stop-opacity="1" stop-color="rgb(35.762024%, 35.762024%, 35.762024%)" offset="0.796875"/><stop stop-opacity="1" stop-color="rgb(36.114502%, 36.114502%, 36.114502%)" offset="0.804687"/><stop stop-opacity="1" stop-color="rgb(36.465454%, 36.465454%, 36.465454%)" offset="0.8125"/><stop stop-opacity="1" stop-color="rgb(36.817932%, 36.817932%, 36.817932%)" offset="0.820313"/><stop stop-opacity="1" stop-color="rgb(37.17041%, 37.17041%, 37.17041%)" offset="0.828125"/><stop stop-opacity="1" stop-color="rgb(37.522888%, 37.522888%, 37.522888%)" offset="0.835938"/><stop stop-opacity="1" stop-color="rgb(37.875366%, 37.875366%, 37.875366%)" offset="0.84375"/><stop stop-opacity="1" stop-color="rgb(38.227844%, 38.227844%, 38.227844%)" offset="0.851562"/><stop stop-opacity="1" stop-color="rgb(38.580322%, 38.580322%, 38.580322%)" offset="0.859375"/><stop stop-opacity="1" stop-color="rgb(38.9328%, 38.9328%, 38.9328%)" offset="0.867188"/><stop stop-opacity="1" stop-color="rgb(39.285278%, 39.285278%, 39.285278%)" offset="0.875"/><stop stop-opacity="1" stop-color="rgb(39.637756%, 39.637756%, 39.637756%)" offset="0.882812"/><stop stop-opacity="1" stop-color="rgb(39.990234%, 39.990234%, 39.990234%)" offset="0.890625"/><stop stop-opacity="1" stop-color="rgb(40.341187%, 40.341187%, 40.341187%)" offset="0.898438"/><stop stop-opacity="1" stop-color="rgb(40.693665%, 40.693665%, 40.693665%)" offset="0.90625"/><stop stop-opacity="1" stop-color="rgb(41.046143%, 41.046143%, 41.046143%)" offset="0.914062"/><stop stop-opacity="1" stop-color="rgb(41.398621%, 41.398621%, 41.398621%)" offset="0.921875"/><stop stop-opacity="1" stop-color="rgb(41.751099%, 41.751099%, 41.751099%)" offset="0.929687"/><stop stop-opacity="1" stop-color="rgb(42.103577%, 42.103577%, 42.103577%)" offset="0.9375"/><stop stop-opacity="1" stop-color="rgb(42.456055%, 42.456055%, 42.456055%)" offset="0.945313"/><stop stop-opacity="1" stop-color="rgb(42.808533%, 42.808533%, 42.808533%)" offset="0.953125"/><stop stop-opacity="1" stop-color="rgb(43.161011%, 43.161011%, 43.161011%)" offset="0.960938"/><stop stop-opacity="1" stop-color="rgb(43.513489%, 43.513489%, 43.513489%)" offset="0.96875"/><stop stop-opacity="1" stop-color="rgb(43.865967%, 43.865967%, 43.865967%)" offset="0.976562"/><stop stop-opacity="1" stop-color="rgb(44.216919%, 44.216919%, 44.216919%)" offset="0.984375"/><stop stop-opacity="1" stop-color="rgb(44.569397%, 44.569397%, 44.569397%)" offset="0.992188"/><stop stop-opacity="1" stop-color="rgb(44.921875%, 44.921875%, 44.921875%)" offset="1"/></linearGradient><clipPath id="63b4ea73cc"><rect x="0" width="109" y="0" height="109"/></clipPath><clipPath id="4c7198a4f9"><path d="M 749.5 86.085938 L 857.492188 86.085938 L 857.492188 194.078125 L 749.5 194.078125 Z M 749.5 86.085938 " clip-rule="nonzero"/></clipPath><clipPath id="2006705f15"><path d="M 803.496094 86.085938 C 773.671875 86.085938 749.5 110.261719 749.5 140.082031 C 749.5 169.902344 773.671875 194.078125 803.496094 194.078125 C 833.316406 194.078125 857.492188 169.902344 857.492188 140.082031 C 857.492188 110.261719 833.316406 86.085938 803.496094 86.085938 Z M 803.496094 86.085938 " clip-rule="nonzero"/></clipPath><clipPath id="81550f8dc8"><path d="M 0.5 0.0859375 L 108.492188 0.0859375 L 108.492188 108.078125 L 0.5 108.078125 Z M 0.5 0.0859375 " clip-rule="nonzero"/></clipPath><clipPath id="4551e8551f"><path d="M 54.496094 0.0859375 C 24.671875 0.0859375 0.5 24.261719 0.5 54.082031 C 0.5 83.902344 24.671875 108.078125 54.496094 108.078125 C 84.316406 108.078125 108.492188 83.902344 108.492188 54.082031 C 108.492188 24.261719 84.316406 0.0859375 54.496094 0.0859375 Z M 54.496094 0.0859375 " clip-rule="nonzero"/></clipPath><linearGradient x1="0" gradientTransform="matrix(0.421846, 0, 0, 0.421846, 0.498641, 0.0855585)" y1="128" x2="255.999977" gradientUnits="userSpaceOnUse" y2="128" id="0d54bd9b8a"><stop stop-opacity="1" stop-color="rgb(0%, 0%, 0%)" offset="0"/><stop stop-opacity="1" stop-color="rgb(0.175476%, 0.175476%, 0.175476%)" offset="0.0078125"/><stop stop-opacity="1" stop-color="rgb(0.526428%, 0.526428%, 0.526428%)" offset="0.015625"/><stop stop-opacity="1" stop-color="rgb(0.878906%, 0.878906%, 0.878906%)" offset="0.0234375"/><stop stop-opacity="1" stop-color="rgb(1.231384%, 1.231384%, 1.231384%)" offset="0.03125"/><stop stop-opacity="1" stop-color="rgb(1.583862%, 1.583862%, 1.583862%)" offset="0.0390625"/><stop stop-opacity="1" stop-color="rgb(1.93634%, 1.93634%, 1.93634%)" offset="0.046875"/><stop stop-opacity="1" stop-color="rgb(2.288818%, 2.288818%, 2.288818%)" offset="0.0546875"/><stop stop-opacity="1" stop-color="rgb(2.641296%, 2.641296%, 2.641296%)" offset="0.0625"/><stop stop-opacity="1" stop-color="rgb(2.993774%, 2.993774%, 2.993774%)" offset="0.0703125"/><stop stop-opacity="1" stop-color="rgb(3.346252%, 3.346252%, 3.346252%)" offset="0.078125"/><stop stop-opacity="1" stop-color="rgb(3.69873%, 3.69873%, 3.69873%)" offset="0.0859375"/><stop stop-opacity="1" stop-color="rgb(4.051208%, 4.051208%, 4.051208%)" offset="0.09375"/><stop stop-opacity="1" stop-color="rgb(4.402161%, 4.402161%, 4.402161%)" offset="0.101562"/><stop stop-opacity="1" stop-color="rgb(4.754639%, 4.754639%, 4.754639%)" offset="0.109375"/><stop stop-opacity="1" stop-color="rgb(5.107117%, 5.107117%, 5.107117%)" offset="0.117188"/><stop stop-opacity="1" stop-color="rgb(5.459595%, 5.459595%, 5.459595%)" offset="0.125"/><stop stop-opacity="1" stop-color="rgb(5.812073%, 5.812073%, 5.812073%)" offset="0.132812"/><stop stop-opacity="1" stop-color="rgb(6.164551%, 6.164551%, 6.164551%)" offset="0.140625"/><stop stop-opacity="1" stop-color="rgb(6.517029%, 6.517029%, 6.517029%)" offset="0.148438"/><stop stop-opacity="1" stop-color="rgb(6.869507%, 6.869507%, 6.869507%)" offset="0.15625"/><stop stop-opacity="1" stop-color="rgb(7.221985%, 7.221985%, 7.221985%)" offset="0.164062"/><stop stop-opacity="1" stop-color="rgb(7.574463%, 7.574463%, 7.574463%)" offset="0.171875"/><stop stop-opacity="1" stop-color="rgb(7.926941%, 7.926941%, 7.926941%)" offset="0.179688"/><stop stop-opacity="1" stop-color="rgb(8.277893%, 8.277893%, 8.277893%)" offset="0.1875"/><stop stop-opacity="1" stop-color="rgb(8.630371%, 8.630371%, 8.630371%)" offset="0.195312"/><stop stop-opacity="1" stop-color="rgb(8.982849%, 8.982849%, 8.982849%)" offset="0.203125"/><stop stop-opacity="1" stop-color="rgb(9.335327%, 9.335327%, 9.335327%)" offset="0.210938"/><stop stop-opacity="1" stop-color="rgb(9.687805%, 9.687805%, 9.687805%)" offset="0.21875"/><stop stop-opacity="1" stop-color="rgb(10.040283%, 10.040283%, 10.040283%)" offset="0.226562"/><stop stop-opacity="1" stop-color="rgb(10.392761%, 10.392761%, 10.392761%)" offset="0.234375"/><stop stop-opacity="1" stop-color="rgb(10.745239%, 10.745239%, 10.745239%)" offset="0.242188"/><stop stop-opacity="1" stop-color="rgb(11.097717%, 11.097717%, 11.097717%)" offset="0.25"/><stop stop-opacity="1" stop-color="rgb(11.450195%, 11.450195%, 11.450195%)" offset="0.257812"/><stop stop-opacity="1" stop-color="rgb(11.802673%, 11.802673%, 11.802673%)" offset="0.265625"/><stop stop-opacity="1" stop-color="rgb(12.155151%, 12.155151%, 12.155151%)" offset="0.273437"/><stop stop-opacity="1" stop-color="rgb(12.506104%, 12.506104%, 12.506104%)" offset="0.28125"/><stop stop-opacity="1" stop-color="rgb(12.858582%, 12.858582%, 12.858582%)" offset="0.289062"/><stop stop-opacity="1" stop-color="rgb(13.21106%, 13.21106%, 13.21106%)" offset="0.296875"/><stop stop-opacity="1" stop-color="rgb(13.563538%, 13.563538%, 13.563538%)" offset="0.304688"/><stop stop-opacity="1" stop-color="rgb(13.916016%, 13.916016%, 13.916016%)" offset="0.3125"/><stop stop-opacity="1" stop-color="rgb(14.268494%, 14.268494%, 14.268494%)" offset="0.320312"/><stop stop-opacity="1" stop-color="rgb(14.620972%, 14.620972%, 14.620972%)" offset="0.328125"/><stop stop-opacity="1" stop-color="rgb(14.97345%, 14.97345%, 14.97345%)" offset="0.335938"/><stop stop-opacity="1" stop-color="rgb(15.325928%, 15.325928%, 15.325928%)" offset="0.34375"/><stop stop-opacity="1" stop-color="rgb(15.678406%, 15.678406%, 15.678406%)" offset="0.351563"/><stop stop-opacity="1" stop-color="rgb(16.030884%, 16.030884%, 16.030884%)" offset="0.359375"/><stop stop-opacity="1" stop-color="rgb(16.381836%, 16.381836%, 16.381836%)" offset="0.367188"/><stop stop-opacity="1" stop-color="rgb(16.734314%, 16.734314%, 16.734314%)" offset="0.375"/><stop stop-opacity="1" stop-color="rgb(17.086792%, 17.086792%, 17.086792%)" offset="0.382812"/><stop stop-opacity="1" stop-color="rgb(17.43927%, 17.43927%, 17.43927%)" offset="0.390625"/><stop stop-opacity="1" stop-color="rgb(17.791748%, 17.791748%, 17.791748%)" offset="0.398437"/><stop stop-opacity="1" stop-color="rgb(18.144226%, 18.144226%, 18.144226%)" offset="0.40625"/><stop stop-opacity="1" stop-color="rgb(18.496704%, 18.496704%, 18.496704%)" offset="0.414062"/><stop stop-opacity="1" stop-color="rgb(18.849182%, 18.849182%, 18.849182%)" offset="0.421875"/><stop stop-opacity="1" stop-color="rgb(19.20166%, 19.20166%, 19.20166%)" offset="0.429688"/><stop stop-opacity="1" stop-color="rgb(19.554138%, 19.554138%, 19.554138%)" offset="0.4375"/><stop stop-opacity="1" stop-color="rgb(19.906616%, 19.906616%, 19.906616%)" offset="0.445312"/><stop stop-opacity="1" stop-color="rgb(20.257568%, 20.257568%, 20.257568%)" offset="0.453125"/><stop stop-opacity="1" stop-color="rgb(20.610046%, 20.610046%, 20.610046%)" offset="0.460938"/><stop stop-opacity="1" stop-color="rgb(20.962524%, 20.962524%, 20.962524%)" offset="0.46875"/><stop stop-opacity="1" stop-color="rgb(21.315002%, 21.315002%, 21.315002%)" offset="0.476563"/><stop stop-opacity="1" stop-color="rgb(21.66748%, 21.66748%, 21.66748%)" offset="0.484375"/><stop stop-opacity="1" stop-color="rgb(22.019958%, 22.019958%, 22.019958%)" offset="0.492188"/><stop stop-opacity="1" stop-color="rgb(22.372437%, 22.372437%, 22.372437%)" offset="0.5"/><stop stop-opacity="1" stop-color="rgb(22.724915%, 22.724915%, 22.724915%)" offset="0.507812"/><stop stop-opacity="1" stop-color="rgb(23.077393%, 23.077393%, 23.077393%)" offset="0.515625"/><stop stop-opacity="1" stop-color="rgb(23.429871%, 23.429871%, 23.429871%)" offset="0.523438"/><stop stop-opacity="1" stop-color="rgb(23.782349%, 23.782349%, 23.782349%)" offset="0.53125"/><stop stop-opacity="1" stop-color="rgb(24.134827%, 24.134827%, 24.134827%)" offset="0.539062"/><stop stop-opacity="1" stop-color="rgb(24.485779%, 24.485779%, 24.485779%)" offset="0.546875"/><stop stop-opacity="1" stop-color="rgb(24.838257%, 24.838257%, 24.838257%)" offset="0.554687"/><stop stop-opacity="1" stop-color="rgb(25.190735%, 25.190735%, 25.190735%)" offset="0.5625"/><stop stop-opacity="1" stop-color="rgb(25.543213%, 25.543213%, 25.543213%)" offset="0.570312"/><stop stop-opacity="1" stop-color="rgb(25.895691%, 25.895691%, 25.895691%)" offset="0.578125"/><stop stop-opacity="1" stop-color="rgb(26.248169%, 26.248169%, 26.248169%)" offset="0.585938"/><stop stop-opacity="1" stop-color="rgb(26.600647%, 26.600647%, 26.600647%)" offset="0.59375"/><stop stop-opacity="1" stop-color="rgb(26.953125%, 26.953125%, 26.953125%)" offset="0.601562"/><stop stop-opacity="1" stop-color="rgb(27.305603%, 27.305603%, 27.305603%)" offset="0.609375"/><stop stop-opacity="1" stop-color="rgb(27.658081%, 27.658081%, 27.658081%)" offset="0.617188"/><stop stop-opacity="1" stop-color="rgb(28.010559%, 28.010559%, 28.010559%)" offset="0.625"/><stop stop-opacity="1" stop-color="rgb(28.361511%, 28.361511%, 28.361511%)" offset="0.632812"/><stop stop-opacity="1" stop-color="rgb(28.713989%, 28.713989%, 28.713989%)" offset="0.640625"/><stop stop-opacity="1" stop-color="rgb(29.066467%, 29.066467%, 29.066467%)" offset="0.648438"/><stop stop-opacity="1" stop-color="rgb(29.418945%, 29.418945%, 29.418945%)" offset="0.65625"/><stop stop-opacity="1" stop-color="rgb(29.771423%, 29.771423%, 29.771423%)" offset="0.664062"/><stop stop-opacity="1" stop-color="rgb(30.123901%, 30.123901%, 30.123901%)" offset="0.671875"/><stop stop-opacity="1" stop-color="rgb(30.476379%, 30.476379%, 30.476379%)" offset="0.679688"/><stop stop-opacity="1" stop-color="rgb(30.828857%, 30.828857%, 30.828857%)" offset="0.6875"/><stop stop-opacity="1" stop-color="rgb(31.181335%, 31.181335%, 31.181335%)" offset="0.695313"/><stop stop-opacity="1" stop-color="rgb(31.533813%, 31.533813%, 31.533813%)" offset="0.703125"/><stop stop-opacity="1" stop-color="rgb(31.886292%, 31.886292%, 31.886292%)" offset="0.710938"/><stop stop-opacity="1" stop-color="rgb(32.237244%, 32.237244%, 32.237244%)" offset="0.71875"/><stop stop-opacity="1" stop-color="rgb(32.589722%, 32.589722%, 32.589722%)" offset="0.726562"/><stop stop-opacity="1" stop-color="rgb(32.9422%, 32.9422%, 32.9422%)" offset="0.734375"/><stop stop-opacity="1" stop-color="rgb(33.294678%, 33.294678%, 33.294678%)" offset="0.742188"/><stop stop-opacity="1" stop-color="rgb(33.647156%, 33.647156%, 33.647156%)" offset="0.75"/><stop stop-opacity="1" stop-color="rgb(33.999634%, 33.999634%, 33.999634%)" offset="0.757812"/><stop stop-opacity="1" stop-color="rgb(34.352112%, 34.352112%, 34.352112%)" offset="0.765625"/><stop stop-opacity="1" stop-color="rgb(34.70459%, 34.70459%, 34.70459%)" offset="0.773438"/><stop stop-opacity="1" stop-color="rgb(35.057068%, 35.057068%, 35.057068%)" offset="0.78125"/><stop stop-opacity="1" stop-color="rgb(35.409546%, 35.409546%, 35.409546%)" offset="0.789062"/><stop stop-opacity="1" stop-color="rgb(35.762024%, 35.762024%, 35.762024%)" offset="0.796875"/><stop stop-opacity="1" stop-color="rgb(36.114502%, 36.114502%, 36.114502%)" offset="0.804687"/><stop stop-opacity="1" stop-color="rgb(36.465454%, 36.465454%, 36.465454%)" offset="0.8125"/><stop stop-opacity="1" stop-color="rgb(36.817932%, 36.817932%, 36.817932%)" offset="0.820312"/><stop stop-opacity="1" stop-color="rgb(37.17041%, 37.17041%, 37.17041%)" offset="0.828125"/><stop stop-opacity="1" stop-color="rgb(37.522888%, 37.522888%, 37.522888%)" offset="0.835938"/><stop stop-opacity="1" stop-color="rgb(37.875366%, 37.875366%, 37.875366%)" offset="0.84375"/><stop stop-opacity="1" stop-color="rgb(38.227844%, 38.227844%, 38.227844%)" offset="0.851562"/><stop stop-opacity="1" stop-color="rgb(38.580322%, 38.580322%, 38.580322%)" offset="0.859375"/><stop stop-opacity="1" stop-color="rgb(38.9328%, 38.9328%, 38.9328%)" offset="0.867188"/><stop stop-opacity="1" stop-color="rgb(39.285278%, 39.285278%, 39.285278%)" offset="0.875"/><stop stop-opacity="1" stop-color="rgb(39.637756%, 39.637756%, 39.637756%)" offset="0.882812"/><stop stop-opacity="1" stop-color="rgb(39.990234%, 39.990234%, 39.990234%)" offset="0.890625"/><stop stop-opacity="1" stop-color="rgb(40.341187%, 40.341187%, 40.341187%)" offset="0.898438"/><stop stop-opacity="1" stop-color="rgb(40.693665%, 40.693665%, 40.693665%)" offset="0.90625"/><stop stop-opacity="1" stop-color="rgb(41.046143%, 41.046143%, 41.046143%)" offset="0.914062"/><stop stop-opacity="1" stop-color="rgb(41.398621%, 41.398621%, 41.398621%)" offset="0.921875"/><stop stop-opacity="1" stop-color="rgb(41.751099%, 41.751099%, 41.751099%)" offset="0.929688"/><stop stop-opacity="1" stop-color="rgb(42.103577%, 42.103577%, 42.103577%)" offset="0.9375"/><stop stop-opacity="1" stop-color="rgb(42.456055%, 42.456055%, 42.456055%)" offset="0.945313"/><stop stop-opacity="1" stop-color="rgb(42.808533%, 42.808533%, 42.808533%)" offset="0.953125"/><stop stop-opacity="1" stop-color="rgb(43.161011%, 43.161011%, 43.161011%)" offset="0.960938"/><stop stop-opacity="1" stop-color="rgb(43.513489%, 43.513489%, 43.513489%)" offset="0.96875"/><stop stop-opacity="1" stop-color="rgb(43.865967%, 43.865967%, 43.865967%)" offset="0.976562"/><stop stop-opacity="1" stop-color="rgb(44.216919%, 44.216919%, 44.216919%)" offset="0.984375"/><stop stop-opacity="1" stop-color="rgb(44.569397%, 44.569397%, 44.569397%)" offset="0.992188"/><stop stop-opacity="1" stop-color="rgb(44.921875%, 44.921875%, 44.921875%)" offset="1"/></linearGradient><clipPath id="f63b7f2fe0"><rect x="0" width="109" y="0" height="109"/></clipPath><clipPath id="9e689df010"><path d="M 1269.007812 999.980469 L 1377 999.980469 L 1377 1107.972656 L 1269.007812 1107.972656 Z M 1269.007812 999.980469 " clip-rule="nonzero"/></clipPath><clipPath id="9e04e43a77"><path d="M 1323.003906 999.980469 C 1293.183594 999.980469 1269.007812 1024.15625 1269.007812 1053.976562 C 1269.007812 1083.796875 1293.183594 1107.972656 1323.003906 1107.972656 C 1352.824219 1107.972656 1377 1083.796875 1377 1053.976562 C 1377 1024.15625 1352.824219 999.980469 1323.003906 999.980469 Z M 1323.003906 999.980469 " clip-rule="nonzero"/></clipPath><clipPath id="d41c864ed7"><path d="M 0.0078125 0.980469 L 108 0.980469 L 108 108.972656 L 0.0078125 108.972656 Z M 0.0078125 0.980469 " clip-rule="nonzero"/></clipPath><clipPath id="c00afc5c6e"><path d="M 54.003906 0.980469 C 24.183594 0.980469 0.0078125 25.15625 0.0078125 54.976562 C 0.0078125 84.796875 24.183594 108.972656 54.003906 108.972656 C 83.824219 108.972656 108 84.796875 108 54.976562 C 108 25.15625 83.824219 0.980469 54.003906 0.980469 Z M 54.003906 0.980469 " clip-rule="nonzero"/></clipPath><linearGradient x1="0.00000177506" gradientTransform="matrix(0.421846, 0, 0, 0.421846, 0.0069553, 0.980519)" y1="128" x2="255.999832" gradientUnits="userSpaceOnUse" y2="128" id="b7e12ad70a"><stop stop-opacity="1" stop-color="rgb(0%, 0%, 0%)" offset="0"/><stop stop-opacity="1" stop-color="rgb(0.175476%, 0.175476%, 0.175476%)" offset="0.0078125"/><stop stop-opacity="1" stop-color="rgb(0.526428%, 0.526428%, 0.526428%)" offset="0.015625"/><stop stop-opacity="1" stop-color="rgb(0.878906%, 0.878906%, 0.878906%)" offset="0.0234375"/><stop stop-opacity="1" stop-color="rgb(1.231384%, 1.231384%, 1.231384%)" offset="0.03125"/><stop stop-opacity="1" stop-color="rgb(1.583862%, 1.583862%, 1.583862%)" offset="0.0390625"/><stop stop-opacity="1" stop-color="rgb(1.93634%, 1.93634%, 1.93634%)" offset="0.046875"/><stop stop-opacity="1" stop-color="rgb(2.288818%, 2.288818%, 2.288818%)" offset="0.0546875"/><stop stop-opacity="1" stop-color="rgb(2.641296%, 2.641296%, 2.641296%)" offset="0.0625"/><stop stop-opacity="1" stop-color="rgb(2.993774%, 2.993774%, 2.993774%)" offset="0.0703125"/><stop stop-opacity="1" stop-color="rgb(3.346252%, 3.346252%, 3.346252%)" offset="0.078125"/><stop stop-opacity="1" stop-color="rgb(3.69873%, 3.69873%, 3.69873%)" offset="0.0859375"/><stop stop-opacity="1" stop-color="rgb(4.051208%, 4.051208%, 4.051208%)" offset="0.09375"/><stop stop-opacity="1" stop-color="rgb(4.402161%, 4.402161%, 4.402161%)" offset="0.101562"/><stop stop-opacity="1" stop-color="rgb(4.754639%, 4.754639%, 4.754639%)" offset="0.109375"/><stop stop-opacity="1" stop-color="rgb(5.107117%, 5.107117%, 5.107117%)" offset="0.117188"/><stop stop-opacity="1" stop-color="rgb(5.459595%, 5.459595%, 5.459595%)" offset="0.125"/><stop stop-opacity="1" stop-color="rgb(5.812073%, 5.812073%, 5.812073%)" offset="0.132812"/><stop stop-opacity="1" stop-color="rgb(6.164551%, 6.164551%, 6.164551%)" offset="0.140625"/><stop stop-opacity="1" stop-color="rgb(6.517029%, 6.517029%, 6.517029%)" offset="0.148438"/><stop stop-opacity="1" stop-color="rgb(6.869507%, 6.869507%, 6.869507%)" offset="0.15625"/><stop stop-opacity="1" stop-color="rgb(7.221985%, 7.221985%, 7.221985%)" offset="0.164062"/><stop stop-opacity="1" stop-color="rgb(7.574463%, 7.574463%, 7.574463%)" offset="0.171875"/><stop stop-opacity="1" stop-color="rgb(7.926941%, 7.926941%, 7.926941%)" offset="0.179688"/><stop stop-opacity="1" stop-color="rgb(8.277893%, 8.277893%, 8.277893%)" offset="0.1875"/><stop stop-opacity="1" stop-color="rgb(8.630371%, 8.630371%, 8.630371%)" offset="0.195312"/><stop stop-opacity="1" stop-color="rgb(8.982849%, 8.982849%, 8.982849%)" offset="0.203125"/><stop stop-opacity="1" stop-color="rgb(9.335327%, 9.335327%, 9.335327%)" offset="0.210938"/><stop stop-opacity="1" stop-color="rgb(9.687805%, 9.687805%, 9.687805%)" offset="0.21875"/><stop stop-opacity="1" stop-color="rgb(10.040283%, 10.040283%, 10.040283%)" offset="0.226562"/><stop stop-opacity="1" stop-color="rgb(10.392761%, 10.392761%, 10.392761%)" offset="0.234375"/><stop stop-opacity="1" stop-color="rgb(10.745239%, 10.745239%, 10.745239%)" offset="0.242188"/><stop stop-opacity="1" stop-color="rgb(11.097717%, 11.097717%, 11.097717%)" offset="0.25"/><stop stop-opacity="1" stop-color="rgb(11.450195%, 11.450195%, 11.450195%)" offset="0.257813"/><stop stop-opacity="1" stop-color="rgb(11.802673%, 11.802673%, 11.802673%)" offset="0.265625"/><stop stop-opacity="1" stop-color="rgb(12.155151%, 12.155151%, 12.155151%)" offset="0.273437"/><stop stop-opacity="1" stop-color="rgb(12.506104%, 12.506104%, 12.506104%)" offset="0.28125"/><stop stop-opacity="1" stop-color="rgb(12.858582%, 12.858582%, 12.858582%)" offset="0.289063"/><stop stop-opacity="1" stop-color="rgb(13.21106%, 13.21106%, 13.21106%)" offset="0.296875"/><stop stop-opacity="1" stop-color="rgb(13.563538%, 13.563538%, 13.563538%)" offset="0.304687"/><stop stop-opacity="1" stop-color="rgb(13.916016%, 13.916016%, 13.916016%)" offset="0.3125"/><stop stop-opacity="1" stop-color="rgb(14.268494%, 14.268494%, 14.268494%)" offset="0.320313"/><stop stop-opacity="1" stop-color="rgb(14.620972%, 14.620972%, 14.620972%)" offset="0.328125"/><stop stop-opacity="1" stop-color="rgb(14.97345%, 14.97345%, 14.97345%)" offset="0.335937"/><stop stop-opacity="1" stop-color="rgb(15.325928%, 15.325928%, 15.325928%)" offset="0.34375"/><stop stop-opacity="1" stop-color="rgb(15.678406%, 15.678406%, 15.678406%)" offset="0.351563"/><stop stop-opacity="1" stop-color="rgb(16.030884%, 16.030884%, 16.030884%)" offset="0.359375"/><stop stop-opacity="1" stop-color="rgb(16.381836%, 16.381836%, 16.381836%)" offset="0.367187"/><stop stop-opacity="1" stop-color="rgb(16.734314%, 16.734314%, 16.734314%)" offset="0.375"/><stop stop-opacity="1" stop-color="rgb(17.086792%, 17.086792%, 17.086792%)" offset="0.382813"/><stop stop-opacity="1" stop-color="rgb(17.43927%, 17.43927%, 17.43927%)" offset="0.390625"/><stop stop-opacity="1" stop-color="rgb(17.791748%, 17.791748%, 17.791748%)" offset="0.398437"/><stop stop-opacity="1" stop-color="rgb(18.144226%, 18.144226%, 18.144226%)" offset="0.40625"/><stop stop-opacity="1" stop-color="rgb(18.496704%, 18.496704%, 18.496704%)" offset="0.414063"/><stop stop-opacity="1" stop-color="rgb(18.849182%, 18.849182%, 18.849182%)" offset="0.421875"/><stop stop-opacity="1" stop-color="rgb(19.20166%, 19.20166%, 19.20166%)" offset="0.429687"/><stop stop-opacity="1" stop-color="rgb(19.554138%, 19.554138%, 19.554138%)" offset="0.4375"/><stop stop-opacity="1" stop-color="rgb(19.906616%, 19.906616%, 19.906616%)" offset="0.445313"/><stop stop-opacity="1" stop-color="rgb(20.257568%, 20.257568%, 20.257568%)" offset="0.453125"/><stop stop-opacity="1" stop-color="rgb(20.610046%, 20.610046%, 20.610046%)" offset="0.460937"/><stop stop-opacity="1" stop-color="rgb(20.962524%, 20.962524%, 20.962524%)" offset="0.46875"/><stop stop-opacity="1" stop-color="rgb(21.315002%, 21.315002%, 21.315002%)" offset="0.476563"/><stop stop-opacity="1" stop-color="rgb(21.66748%, 21.66748%, 21.66748%)" offset="0.484375"/><stop stop-opacity="1" stop-color="rgb(22.019958%, 22.019958%, 22.019958%)" offset="0.492187"/><stop stop-opacity="1" stop-color="rgb(22.372437%, 22.372437%, 22.372437%)" offset="0.5"/><stop stop-opacity="1" stop-color="rgb(22.724915%, 22.724915%, 22.724915%)" offset="0.507812"/><stop stop-opacity="1" stop-color="rgb(23.077393%, 23.077393%, 23.077393%)" offset="0.515625"/><stop stop-opacity="1" stop-color="rgb(23.429871%, 23.429871%, 23.429871%)" offset="0.523438"/><stop stop-opacity="1" stop-color="rgb(23.782349%, 23.782349%, 23.782349%)" offset="0.53125"/><stop stop-opacity="1" stop-color="rgb(24.134827%, 24.134827%, 24.134827%)" offset="0.539062"/><stop stop-opacity="1" stop-color="rgb(24.485779%, 24.485779%, 24.485779%)" offset="0.546875"/><stop stop-opacity="1" stop-color="rgb(24.838257%, 24.838257%, 24.838257%)" offset="0.554688"/><stop stop-opacity="1" stop-color="rgb(25.190735%, 25.190735%, 25.190735%)" offset="0.5625"/><stop stop-opacity="1" stop-color="rgb(25.543213%, 25.543213%, 25.543213%)" offset="0.570312"/><stop stop-opacity="1" stop-color="rgb(25.895691%, 25.895691%, 25.895691%)" offset="0.578125"/><stop stop-opacity="1" stop-color="rgb(26.248169%, 26.248169%, 26.248169%)" offset="0.585938"/><stop stop-opacity="1" stop-color="rgb(26.600647%, 26.600647%, 26.600647%)" offset="0.59375"/><stop stop-opacity="1" stop-color="rgb(26.953125%, 26.953125%, 26.953125%)" offset="0.601562"/><stop stop-opacity="1" stop-color="rgb(27.305603%, 27.305603%, 27.305603%)" offset="0.609375"/><stop stop-opacity="1" stop-color="rgb(27.658081%, 27.658081%, 27.658081%)" offset="0.617188"/><stop stop-opacity="1" stop-color="rgb(28.010559%, 28.010559%, 28.010559%)" offset="0.625"/><stop stop-opacity="1" stop-color="rgb(28.361511%, 28.361511%, 28.361511%)" offset="0.632812"/><stop stop-opacity="1" stop-color="rgb(28.713989%, 28.713989%, 28.713989%)" offset="0.640625"/><stop stop-opacity="1" stop-color="rgb(29.066467%, 29.066467%, 29.066467%)" offset="0.648438"/><stop stop-opacity="1" stop-color="rgb(29.418945%, 29.418945%, 29.418945%)" offset="0.65625"/><stop stop-opacity="1" stop-color="rgb(29.771423%, 29.771423%, 29.771423%)" offset="0.664062"/><stop stop-opacity="1" stop-color="rgb(30.123901%, 30.123901%, 30.123901%)" offset="0.671875"/><stop stop-opacity="1" stop-color="rgb(30.476379%, 30.476379%, 30.476379%)" offset="0.679688"/><stop stop-opacity="1" stop-color="rgb(30.828857%, 30.828857%, 30.828857%)" offset="0.6875"/><stop stop-opacity="1" stop-color="rgb(31.181335%, 31.181335%, 31.181335%)" offset="0.695312"/><stop stop-opacity="1" stop-color="rgb(31.533813%, 31.533813%, 31.533813%)" offset="0.703125"/><stop stop-opacity="1" stop-color="rgb(31.886292%, 31.886292%, 31.886292%)" offset="0.710938"/><stop stop-opacity="1" stop-color="rgb(32.237244%, 32.237244%, 32.237244%)" offset="0.71875"/><stop stop-opacity="1" stop-color="rgb(32.589722%, 32.589722%, 32.589722%)" offset="0.726562"/><stop stop-opacity="1" stop-color="rgb(32.9422%, 32.9422%, 32.9422%)" offset="0.734375"/><stop stop-opacity="1" stop-color="rgb(33.294678%, 33.294678%, 33.294678%)" offset="0.742188"/><stop stop-opacity="1" stop-color="rgb(33.647156%, 33.647156%, 33.647156%)" offset="0.75"/><stop stop-opacity="1" stop-color="rgb(33.999634%, 33.999634%, 33.999634%)" offset="0.757812"/><stop stop-opacity="1" stop-color="rgb(34.352112%, 34.352112%, 34.352112%)" offset="0.765625"/><stop stop-opacity="1" stop-color="rgb(34.70459%, 34.70459%, 34.70459%)" offset="0.773438"/><stop stop-opacity="1" stop-color="rgb(35.057068%, 35.057068%, 35.057068%)" offset="0.78125"/><stop stop-opacity="1" stop-color="rgb(35.409546%, 35.409546%, 35.409546%)" offset="0.789062"/><stop stop-opacity="1" stop-color="rgb(35.762024%, 35.762024%, 35.762024%)" offset="0.796875"/><stop stop-opacity="1" stop-color="rgb(36.114502%, 36.114502%, 36.114502%)" offset="0.804688"/><stop stop-opacity="1" stop-color="rgb(36.465454%, 36.465454%, 36.465454%)" offset="0.8125"/><stop stop-opacity="1" stop-color="rgb(36.817932%, 36.817932%, 36.817932%)" offset="0.820312"/><stop stop-opacity="1" stop-color="rgb(37.17041%, 37.17041%, 37.17041%)" offset="0.828125"/><stop stop-opacity="1" stop-color="rgb(37.522888%, 37.522888%, 37.522888%)" offset="0.835938"/><stop stop-opacity="1" stop-color="rgb(37.875366%, 37.875366%, 37.875366%)" offset="0.84375"/><stop stop-opacity="1" stop-color="rgb(38.227844%, 38.227844%, 38.227844%)" offset="0.851562"/><stop stop-opacity="1" stop-color="rgb(38.580322%, 38.580322%, 38.580322%)" offset="0.859375"/><stop stop-opacity="1" stop-color="rgb(38.9328%, 38.9328%, 38.9328%)" offset="0.867188"/><stop stop-opacity="1" stop-color="rgb(39.285278%, 39.285278%, 39.285278%)" offset="0.875"/><stop stop-opacity="1" stop-color="rgb(39.637756%, 39.637756%, 39.637756%)" offset="0.882812"/><stop stop-opacity="1" stop-color="rgb(39.990234%, 39.990234%, 39.990234%)" offset="0.890625"/><stop stop-opacity="1" stop-color="rgb(40.341187%, 40.341187%, 40.341187%)" offset="0.898438"/><stop stop-opacity="1" stop-color="rgb(40.693665%, 40.693665%, 40.693665%)" offset="0.90625"/><stop stop-opacity="1" stop-color="rgb(41.046143%, 41.046143%, 41.046143%)" offset="0.914062"/><stop stop-opacity="1" stop-color="rgb(41.398621%, 41.398621%, 41.398621%)" offset="0.921875"/><stop stop-opacity="1" stop-color="rgb(41.751099%, 41.751099%, 41.751099%)" offset="0.929688"/><stop stop-opacity="1" stop-color="rgb(42.103577%, 42.103577%, 42.103577%)" offset="0.9375"/><stop stop-opacity="1" stop-color="rgb(42.456055%, 42.456055%, 42.456055%)" offset="0.945312"/><stop stop-opacity="1" stop-color="rgb(42.808533%, 42.808533%, 42.808533%)" offset="0.953125"/><stop stop-opacity="1" stop-color="rgb(43.161011%, 43.161011%, 43.161011%)" offset="0.960938"/><stop stop-opacity="1" stop-color="rgb(43.513489%, 43.513489%, 43.513489%)" offset="0.96875"/><stop stop-opacity="1" stop-color="rgb(43.865967%, 43.865967%, 43.865967%)" offset="0.976562"/><stop stop-opacity="1" stop-color="rgb(44.216919%, 44.216919%, 44.216919%)" offset="0.984375"/><stop stop-opacity="1" stop-color="rgb(44.569397%, 44.569397%, 44.569397%)" offset="0.992188"/><stop stop-opacity="1" stop-color="rgb(44.921875%, 44.921875%, 44.921875%)" offset="1"/></linearGradient><clipPath id="4e368900ff"><rect x="0" width="108" y="0" height="109"/></clipPath></defs><path fill="#ffffff" d="M 624.46875 341.070312 C 453.292969 309.898438 317.933594 342.503906 263.980469 435.960938 C 223.71875 505.675781 235.222656 598.132812 291.878906 696.933594 C 292.167969 697.429688 292.476562 697.914062 292.8125 698.378906 C 293.144531 698.847656 293.503906 699.296875 293.882812 699.730469 C 294.261719 700.160156 294.660156 700.574219 295.078125 700.96875 C 295.496094 701.359375 295.933594 701.730469 296.390625 702.082031 C 296.84375 702.433594 297.316406 702.761719 297.804688 703.066406 C 298.292969 703.367188 298.792969 703.648438 299.308594 703.902344 C 299.824219 704.160156 300.347656 704.386719 300.886719 704.59375 C 301.421875 704.796875 301.96875 704.972656 302.523438 705.121094 C 303.078125 705.273438 303.640625 705.394531 304.207031 705.492188 C 304.773438 705.585938 305.34375 705.652344 305.914062 705.691406 C 306.488281 705.730469 307.0625 705.742188 307.636719 705.726562 C 308.210938 705.710938 308.785156 705.664062 309.355469 705.59375 C 309.925781 705.519531 310.488281 705.417969 311.050781 705.289062 C 311.609375 705.164062 312.164062 705.007812 312.707031 704.824219 C 313.253906 704.644531 313.785156 704.433594 314.3125 704.199219 C 314.835938 703.964844 315.347656 703.707031 315.847656 703.421875 C 316.34375 703.132812 316.828125 702.824219 317.292969 702.488281 C 317.761719 702.152344 318.210938 701.796875 318.644531 701.417969 C 319.074219 701.039062 319.488281 700.640625 319.882812 700.222656 C 320.273438 699.804688 320.648438 699.367188 320.996094 698.910156 C 321.347656 698.453125 321.675781 697.984375 321.980469 697.496094 C 322.285156 697.007812 322.5625 696.507812 322.820312 695.992188 C 323.074219 695.476562 323.304688 694.949219 323.507812 694.414062 C 323.710938 693.875 323.886719 693.332031 324.039062 692.777344 C 324.1875 692.222656 324.308594 691.660156 324.40625 691.09375 C 324.5 690.527344 324.566406 689.957031 324.609375 689.382812 C 324.648438 688.808594 324.660156 688.238281 324.640625 687.660156 C 324.625 687.085938 324.578125 686.515625 324.507812 685.945312 C 324.433594 685.375 324.332031 684.808594 324.207031 684.25 C 324.078125 683.691406 323.921875 683.136719 323.738281 682.59375 C 323.558594 682.046875 323.347656 681.511719 323.113281 680.988281 C 322.878906 680.464844 322.621094 679.953125 322.335938 679.453125 C 271.308594 590.414062 261.382812 510.652344 294.375 453.484375 C 339.40625 375.867188 459.921875 346.761719 618.183594 375.582031 C 618.75 375.683594 619.316406 375.753906 619.890625 375.800781 C 620.460938 375.847656 621.035156 375.863281 621.609375 375.851562 C 622.183594 375.84375 622.757812 375.804688 623.328125 375.738281 C 623.898438 375.671875 624.460938 375.574219 625.023438 375.453125 C 625.585938 375.332031 626.136719 375.183594 626.683594 375.007812 C 627.230469 374.828125 627.769531 374.628906 628.292969 374.398438 C 628.820312 374.167969 629.335938 373.914062 629.835938 373.636719 C 630.339844 373.359375 630.828125 373.054688 631.296875 372.726562 C 631.769531 372.402344 632.226562 372.050781 632.664062 371.679688 C 633.101562 371.308594 633.519531 370.917969 633.921875 370.503906 C 634.320312 370.09375 634.699219 369.660156 635.054688 369.210938 C 635.414062 368.761719 635.75 368.296875 636.0625 367.816406 C 636.371094 367.332031 636.660156 366.835938 636.921875 366.328125 C 637.1875 365.816406 637.425781 365.292969 637.636719 364.761719 C 637.847656 364.226562 638.035156 363.683594 638.195312 363.132812 C 638.351562 362.582031 638.484375 362.023438 638.589844 361.457031 C 638.691406 360.894531 638.765625 360.324219 638.808594 359.75 C 638.855469 359.179688 638.871094 358.605469 638.863281 358.03125 C 638.851562 357.457031 638.8125 356.886719 638.746094 356.316406 C 638.679688 355.746094 638.585938 355.179688 638.460938 354.617188 C 638.339844 354.054688 638.191406 353.503906 638.015625 352.957031 C 637.839844 352.410156 637.636719 351.875 637.40625 351.347656 C 637.179688 350.820312 636.925781 350.304688 636.644531 349.804688 C 636.367188 349.300781 636.0625 348.816406 635.738281 348.34375 C 635.410156 347.871094 635.0625 347.414062 634.6875 346.976562 C 634.316406 346.539062 633.925781 346.121094 633.515625 345.71875 C 633.101562 345.320312 632.671875 344.941406 632.222656 344.585938 C 631.773438 344.226562 631.304688 343.894531 630.824219 343.582031 C 630.339844 343.269531 629.84375 342.980469 629.335938 342.71875 C 628.824219 342.453125 628.304688 342.214844 627.769531 342.003906 C 627.234375 341.792969 626.691406 341.605469 626.140625 341.445312 C 625.589844 341.289062 625.03125 341.15625 624.46875 341.050781 Z M 380.894531 816.835938 C 450.117188 892.894531 540.035156 964.246094 642.601562 1023.460938 C 891.125 1166.839844 1155.472656 1205.320312 1285.589844 1116.488281 C 1286.0625 1116.164062 1286.519531 1115.816406 1286.960938 1115.449219 C 1287.398438 1115.078125 1287.820312 1114.6875 1288.222656 1114.277344 C 1288.625 1113.863281 1289.003906 1113.433594 1289.363281 1112.988281 C 1289.722656 1112.539062 1290.058594 1112.074219 1290.375 1111.59375 C 1290.6875 1111.113281 1290.976562 1110.617188 1291.242188 1110.105469 C 1291.507812 1109.597656 1291.746094 1109.074219 1291.960938 1108.542969 C 1292.175781 1108.007812 1292.363281 1107.46875 1292.527344 1106.914062 C 1292.6875 1106.363281 1292.820312 1105.804688 1292.925781 1105.242188 C 1293.035156 1104.675781 1293.113281 1104.109375 1293.164062 1103.535156 C 1293.214844 1102.964844 1293.238281 1102.390625 1293.230469 1101.816406 C 1293.226562 1101.242188 1293.195312 1100.667969 1293.132812 1100.097656 C 1293.070312 1099.523438 1292.980469 1098.957031 1292.863281 1098.394531 C 1292.746094 1097.832031 1292.605469 1097.277344 1292.433594 1096.730469 C 1292.261719 1096.179688 1292.0625 1095.640625 1291.839844 1095.113281 C 1291.617188 1094.582031 1291.367188 1094.066406 1291.089844 1093.5625 C 1290.816406 1093.058594 1290.519531 1092.566406 1290.195312 1092.089844 C 1289.871094 1091.617188 1289.523438 1091.160156 1289.152344 1090.722656 C 1288.785156 1090.28125 1288.394531 1089.859375 1287.980469 1089.460938 C 1287.570312 1089.058594 1287.140625 1088.675781 1286.691406 1088.316406 C 1286.246094 1087.957031 1285.78125 1087.621094 1285.296875 1087.308594 C 1284.816406 1086.996094 1284.320312 1086.703125 1283.8125 1086.4375 C 1283.300781 1086.175781 1282.78125 1085.933594 1282.25 1085.71875 C 1281.714844 1085.503906 1281.171875 1085.316406 1280.621094 1085.15625 C 1280.070312 1084.996094 1279.511719 1084.859375 1278.945312 1084.753906 C 1278.382812 1084.648438 1277.8125 1084.570312 1277.242188 1084.519531 C 1276.667969 1084.46875 1276.09375 1084.445312 1275.519531 1084.449219 C 1274.945312 1084.457031 1274.375 1084.488281 1273.800781 1084.550781 C 1273.230469 1084.609375 1272.664062 1084.699219 1272.101562 1084.816406 C 1271.539062 1084.933594 1270.984375 1085.078125 1270.433594 1085.25 C 1269.886719 1085.421875 1269.347656 1085.617188 1268.820312 1085.84375 C 1268.289062 1086.066406 1267.773438 1086.316406 1267.269531 1086.589844 C 1266.761719 1086.863281 1266.273438 1087.164062 1265.796875 1087.488281 C 1149.191406 1166.984375 898.066406 1130.59375 659.9375 993.230469 C 560.460938 935.796875 473.371094 866.695312 406.644531 793.378906 C 406.257812 792.953125 405.847656 792.550781 405.421875 792.164062 C 404.992188 791.78125 404.546875 791.417969 404.085938 791.078125 C 403.621094 790.738281 403.144531 790.421875 402.648438 790.128906 C 402.15625 789.832031 401.648438 789.566406 401.128906 789.320312 C 400.609375 789.078125 400.078125 788.859375 399.535156 788.667969 C 398.992188 788.472656 398.441406 788.308594 397.886719 788.171875 C 397.328125 788.035156 396.765625 787.921875 396.195312 787.839844 C 395.625 787.757812 395.054688 787.703125 394.480469 787.675781 C 393.90625 787.648438 393.332031 787.648438 392.757812 787.679688 C 392.183594 787.707031 391.613281 787.765625 391.046875 787.847656 C 390.476562 787.933594 389.914062 788.046875 389.355469 788.1875 C 388.800781 788.328125 388.25 788.496094 387.707031 788.691406 C 387.167969 788.882812 386.636719 789.105469 386.117188 789.351562 C 385.597656 789.597656 385.09375 789.867188 384.601562 790.164062 C 384.105469 790.457031 383.628906 790.777344 383.167969 791.121094 C 382.707031 791.460938 382.261719 791.824219 381.835938 792.210938 C 381.414062 792.601562 381.007812 793.007812 380.625 793.433594 C 380.238281 793.863281 379.878906 794.308594 379.535156 794.769531 C 379.195312 795.234375 378.878906 795.710938 378.585938 796.207031 C 378.292969 796.699219 378.023438 797.207031 377.777344 797.726562 C 377.535156 798.25 377.316406 798.777344 377.125 799.320312 C 376.933594 799.863281 376.765625 800.414062 376.628906 800.96875 C 376.492188 801.527344 376.378906 802.089844 376.296875 802.660156 C 376.214844 803.230469 376.160156 803.800781 376.132812 804.375 C 376.105469 804.949219 376.105469 805.523438 376.136719 806.097656 C 376.164062 806.671875 376.222656 807.242188 376.308594 807.8125 C 376.394531 808.378906 376.503906 808.941406 376.644531 809.5 C 376.785156 810.058594 376.953125 810.605469 377.148438 811.148438 C 377.339844 811.6875 377.5625 812.21875 377.808594 812.738281 C 378.054688 813.257812 378.324219 813.761719 378.621094 814.257812 C 378.914062 814.75 379.234375 815.226562 379.578125 815.6875 C 379.917969 816.148438 380.285156 816.59375 380.667969 817.019531 Z M 1244.203125 795.691406 C 1356.289062 663.261719 1395.421875 530.097656 1341.589844 436.882812 C 1301.984375 368.273438 1218.25 332.046875 1106.945312 330.613281 C 1106.371094 330.605469 1105.796875 330.628906 1105.222656 330.679688 C 1104.652344 330.730469 1104.082031 330.804688 1103.519531 330.914062 C 1102.953125 331.019531 1102.394531 331.152344 1101.84375 331.3125 C 1101.292969 331.472656 1100.75 331.660156 1100.214844 331.871094 C 1099.683594 332.085938 1099.160156 332.324219 1098.652344 332.589844 C 1098.140625 332.851562 1097.644531 333.140625 1097.164062 333.457031 C 1096.683594 333.769531 1096.21875 334.105469 1095.769531 334.460938 C 1095.320312 334.820312 1094.890625 335.199219 1094.476562 335.601562 C 1094.066406 336.003906 1093.675781 336.421875 1093.304688 336.859375 C 1092.933594 337.300781 1092.585938 337.757812 1092.261719 338.230469 C 1091.933594 338.703125 1091.632812 339.191406 1091.355469 339.691406 C 1091.078125 340.195312 1090.824219 340.710938 1090.597656 341.238281 C 1090.367188 341.765625 1090.167969 342.300781 1089.992188 342.847656 C 1089.816406 343.398438 1089.667969 343.949219 1089.546875 344.511719 C 1089.425781 345.074219 1089.335938 345.640625 1089.269531 346.210938 C 1089.203125 346.78125 1089.167969 347.355469 1089.15625 347.929688 C 1089.152344 348.503906 1089.171875 349.078125 1089.222656 349.648438 C 1089.273438 350.222656 1089.351562 350.789062 1089.457031 351.355469 C 1089.5625 351.917969 1089.695312 352.476562 1089.855469 353.027344 C 1090.015625 353.578125 1090.203125 354.121094 1090.417969 354.65625 C 1090.628906 355.1875 1090.867188 355.710938 1091.132812 356.21875 C 1091.398438 356.730469 1091.6875 357.226562 1092 357.707031 C 1092.3125 358.191406 1092.648438 358.65625 1093.007812 359.105469 C 1093.367188 359.550781 1093.746094 359.984375 1094.144531 360.394531 C 1094.546875 360.804688 1094.964844 361.195312 1095.40625 361.566406 C 1095.84375 361.9375 1096.300781 362.285156 1096.773438 362.613281 C 1097.246094 362.9375 1097.734375 363.238281 1098.238281 363.519531 C 1098.738281 363.796875 1099.253906 364.046875 1099.78125 364.277344 C 1100.308594 364.503906 1100.847656 364.707031 1101.394531 364.878906 C 1101.941406 365.054688 1102.496094 365.203125 1103.058594 365.324219 C 1103.617188 365.445312 1104.183594 365.539062 1104.753906 365.605469 C 1105.328125 365.667969 1105.898438 365.707031 1106.472656 365.714844 C 1206.765625 367.027344 1278.714844 398.21875 1311.15625 454.445312 C 1355.878906 531.898438 1320.980469 650.652344 1217.371094 773.054688 C 1217 773.492188 1216.652344 773.949219 1216.324219 774.421875 C 1216 774.894531 1215.699219 775.382812 1215.421875 775.886719 C 1215.144531 776.390625 1214.890625 776.90625 1214.664062 777.433594 C 1214.4375 777.960938 1214.234375 778.5 1214.058594 779.046875 C 1213.886719 779.59375 1213.738281 780.148438 1213.617188 780.710938 C 1213.496094 781.273438 1213.402344 781.839844 1213.339844 782.410156 C 1213.273438 782.980469 1213.238281 783.554688 1213.230469 784.128906 C 1213.21875 784.703125 1213.238281 785.277344 1213.285156 785.847656 C 1213.332031 786.421875 1213.410156 786.992188 1213.511719 787.554688 C 1213.617188 788.121094 1213.746094 788.679688 1213.902344 789.234375 C 1214.0625 789.785156 1214.246094 790.328125 1214.457031 790.863281 C 1214.667969 791.398438 1214.90625 791.921875 1215.167969 792.433594 C 1215.429688 792.945312 1215.714844 793.441406 1216.027344 793.925781 C 1216.335938 794.40625 1216.671875 794.875 1217.027344 795.324219 C 1217.386719 795.773438 1217.761719 796.207031 1218.160156 796.621094 C 1218.5625 797.035156 1218.980469 797.425781 1219.417969 797.800781 C 1219.855469 798.171875 1220.3125 798.519531 1220.785156 798.84375 C 1221.257812 799.167969 1221.746094 799.472656 1222.25 799.75 C 1222.753906 800.027344 1223.269531 800.277344 1223.796875 800.507812 C 1224.324219 800.734375 1224.863281 800.933594 1225.410156 801.109375 C 1225.957031 801.285156 1226.511719 801.433594 1227.074219 801.550781 C 1227.636719 801.671875 1228.203125 801.765625 1228.773438 801.832031 C 1229.34375 801.894531 1229.917969 801.933594 1230.492188 801.941406 C 1231.066406 801.949219 1231.640625 801.929688 1232.210938 801.882812 C 1232.785156 801.835938 1233.355469 801.761719 1233.917969 801.65625 C 1234.484375 801.554688 1235.042969 801.421875 1235.597656 801.265625 C 1236.148438 801.109375 1236.691406 800.921875 1237.226562 800.710938 C 1237.761719 800.5 1238.285156 800.265625 1238.796875 800.003906 C 1239.304688 799.742188 1239.804688 799.453125 1240.285156 799.144531 C 1240.769531 798.832031 1241.238281 798.496094 1241.6875 798.140625 C 1242.136719 797.785156 1242.570312 797.40625 1242.984375 797.007812 C 1243.398438 796.609375 1243.789062 796.191406 1244.164062 795.753906 Z M 956.132812 346.886719 C 854.816406 368.582031 746.90625 411.050781 643.316406 470.859375 C 386.972656 618.847656 219.75 837.304688 242.9375 995.316406 C 243.023438 995.886719 243.136719 996.449219 243.277344 997.007812 C 243.417969 997.5625 243.582031 998.113281 243.777344 998.652344 C 243.972656 999.195312 244.191406 999.722656 244.4375 1000.242188 C 244.683594 1000.761719 244.953125 1001.269531 245.25 1001.761719 C 245.542969 1002.253906 245.863281 1002.730469 246.203125 1003.191406 C 246.546875 1003.652344 246.910156 1004.097656 247.296875 1004.523438 C 247.679688 1004.949219 248.085938 1005.355469 248.511719 1005.742188 C 248.9375 1006.128906 249.378906 1006.492188 249.839844 1006.835938 C 250.300781 1007.179688 250.777344 1007.5 251.269531 1007.792969 C 251.761719 1008.089844 252.265625 1008.363281 252.785156 1008.609375 C 253.304688 1008.855469 253.835938 1009.078125 254.375 1009.273438 C 254.914062 1009.46875 255.464844 1009.636719 256.019531 1009.777344 C 256.578125 1009.917969 257.140625 1010.03125 257.707031 1010.117188 C 258.277344 1010.203125 258.847656 1010.261719 259.417969 1010.292969 C 259.992188 1010.324219 260.566406 1010.324219 261.140625 1010.296875 C 261.714844 1010.273438 262.285156 1010.21875 262.855469 1010.136719 C 263.421875 1010.050781 263.984375 1009.941406 264.542969 1009.800781 C 265.101562 1009.660156 265.648438 1009.492188 266.191406 1009.296875 C 266.730469 1009.105469 267.261719 1008.886719 267.78125 1008.640625 C 268.296875 1008.394531 268.804688 1008.125 269.296875 1007.828125 C 269.789062 1007.53125 270.265625 1007.214844 270.730469 1006.871094 C 271.191406 1006.53125 271.632812 1006.167969 272.058594 1005.78125 C 272.488281 1005.394531 272.890625 1004.992188 273.277344 1004.566406 C 273.664062 1004.140625 274.03125 1003.695312 274.371094 1003.234375 C 274.714844 1002.773438 275.035156 1002.296875 275.332031 1001.808594 C 275.628906 1001.316406 275.898438 1000.808594 276.144531 1000.289062 C 276.394531 999.773438 276.613281 999.242188 276.808594 998.703125 C 277.003906 998.160156 277.171875 997.613281 277.3125 997.054688 C 277.453125 996.5 277.566406 995.9375 277.652344 995.367188 C 277.738281 994.800781 277.796875 994.230469 277.828125 993.65625 C 277.859375 993.082031 277.859375 992.507812 277.835938 991.933594 C 277.808594 991.359375 277.753906 990.789062 277.671875 990.222656 C 257.0625 849.726562 415.566406 642.875 660.839844 501.03125 C 761.132812 443.003906 865.789062 401.902344 963.460938 380.964844 C 964.023438 380.84375 964.578125 380.695312 965.125 380.515625 C 965.671875 380.339844 966.207031 380.140625 966.734375 379.910156 C 967.261719 379.683594 967.773438 379.429688 968.277344 379.148438 C 968.78125 378.871094 969.265625 378.566406 969.738281 378.242188 C 970.210938 377.914062 970.667969 377.566406 971.105469 377.195312 C 971.542969 376.820312 971.960938 376.429688 972.363281 376.019531 C 972.761719 375.605469 973.140625 375.175781 973.5 374.726562 C 973.855469 374.277344 974.191406 373.808594 974.503906 373.328125 C 974.816406 372.847656 975.101562 372.351562 975.367188 371.839844 C 975.628906 371.328125 975.867188 370.808594 976.082031 370.273438 C 976.292969 369.738281 976.480469 369.195312 976.640625 368.644531 C 976.796875 368.09375 976.929688 367.535156 977.035156 366.96875 C 977.140625 366.40625 977.214844 365.835938 977.265625 365.265625 C 977.3125 364.691406 977.335938 364.121094 977.328125 363.546875 C 977.320312 362.96875 977.285156 362.398438 977.222656 361.828125 C 977.160156 361.257812 977.070312 360.691406 976.949219 360.128906 C 976.828125 359.566406 976.679688 359.011719 976.503906 358.464844 C 976.328125 357.917969 976.125 357.382812 975.894531 356.855469 C 975.667969 356.328125 975.414062 355.8125 975.132812 355.3125 C 974.855469 354.808594 974.550781 354.324219 974.226562 353.851562 C 973.898438 353.378906 973.550781 352.921875 973.179688 352.484375 C 972.808594 352.046875 972.414062 351.625 972.003906 351.226562 C 971.589844 350.828125 971.160156 350.449219 970.710938 350.089844 C 970.261719 349.734375 969.796875 349.398438 969.3125 349.085938 C 968.832031 348.773438 968.335938 348.484375 967.824219 348.222656 C 967.316406 347.957031 966.792969 347.722656 966.257812 347.507812 C 965.726562 347.296875 965.183594 347.109375 964.632812 346.949219 C 964.078125 346.792969 963.519531 346.660156 962.957031 346.554688 C 962.390625 346.449219 961.824219 346.375 961.25 346.324219 C 960.679688 346.273438 960.105469 346.253906 959.53125 346.261719 C 958.957031 346.269531 958.382812 346.304688 957.8125 346.367188 C 957.242188 346.429688 956.675781 346.519531 956.113281 346.640625 Z M 956.132812 346.886719 " fill-opacity="1" fill-rule="evenodd"/><g clip-path="url(#3712a136f2)"><path fill="#ffffff" d="M 540.855469 1105.070312 C 599.453125 1268.710938 695.328125 1369.476562 803.15625 1369.476562 C 881.792969 1369.476562 954.539062 1315.851562 1011.253906 1221.492188 C 1011.550781 1221 1011.820312 1220.492188 1012.066406 1219.972656 C 1012.308594 1219.453125 1012.527344 1218.921875 1012.722656 1218.382812 C 1012.914062 1217.839844 1013.082031 1217.292969 1013.222656 1216.734375 C 1013.359375 1216.175781 1013.472656 1215.613281 1013.558594 1215.046875 C 1013.640625 1214.476562 1013.699219 1213.90625 1013.726562 1213.332031 C 1013.753906 1212.757812 1013.753906 1212.183594 1013.726562 1211.609375 C 1013.699219 1211.039062 1013.644531 1210.464844 1013.558594 1209.898438 C 1013.476562 1209.328125 1013.363281 1208.765625 1013.226562 1208.210938 C 1013.085938 1207.652344 1012.921875 1207.101562 1012.730469 1206.5625 C 1012.535156 1206.019531 1012.320312 1205.488281 1012.074219 1204.96875 C 1011.828125 1204.449219 1011.558594 1203.941406 1011.265625 1203.449219 C 1010.972656 1202.957031 1010.652344 1202.476562 1010.3125 1202.015625 C 1009.972656 1201.554688 1009.609375 1201.109375 1009.226562 1200.679688 C 1008.839844 1200.253906 1008.4375 1199.847656 1008.011719 1199.460938 C 1007.585938 1199.074219 1007.144531 1198.707031 1006.683594 1198.363281 C 1006.226562 1198.019531 1005.75 1197.699219 1005.257812 1197.402344 C 1004.765625 1197.105469 1004.257812 1196.835938 1003.738281 1196.589844 C 1003.21875 1196.347656 1002.6875 1196.125 1002.148438 1195.933594 C 1001.605469 1195.738281 1001.058594 1195.574219 1000.5 1195.433594 C 999.941406 1195.296875 999.378906 1195.183594 998.8125 1195.097656 C 998.242188 1195.015625 997.671875 1194.957031 997.097656 1194.929688 C 996.523438 1194.902344 995.949219 1194.902344 995.375 1194.929688 C 994.804688 1194.957031 994.230469 1195.011719 993.664062 1195.09375 C 993.09375 1195.179688 992.53125 1195.289062 991.976562 1195.429688 C 991.417969 1195.566406 990.867188 1195.734375 990.328125 1195.925781 C 989.785156 1196.117188 989.253906 1196.335938 988.734375 1196.582031 C 988.214844 1196.828125 987.707031 1197.09375 987.214844 1197.390625 C 986.722656 1197.683594 986.242188 1198 985.78125 1198.34375 C 985.320312 1198.683594 984.875 1199.046875 984.445312 1199.429688 C 984.019531 1199.816406 983.613281 1200.21875 983.226562 1200.644531 C 982.839844 1201.066406 982.472656 1201.511719 982.128906 1201.96875 C 981.785156 1202.429688 981.464844 1202.90625 981.167969 1203.398438 C 929.996094 1288.199219 867.566406 1334.332031 803.15625 1334.332031 C 713.605469 1334.332031 628.089844 1244.273438 573.910156 1093.21875 C 573.714844 1092.675781 573.492188 1092.148438 573.246094 1091.628906 C 573 1091.109375 572.726562 1090.605469 572.429688 1090.113281 C 572.132812 1089.621094 571.8125 1089.144531 571.472656 1088.683594 C 571.128906 1088.222656 570.761719 1087.777344 570.375 1087.355469 C 569.988281 1086.929688 569.582031 1086.523438 569.15625 1086.136719 C 568.730469 1085.753906 568.285156 1085.390625 567.824219 1085.046875 C 567.363281 1084.707031 566.882812 1084.386719 566.390625 1084.09375 C 565.898438 1083.796875 565.390625 1083.527344 564.871094 1083.28125 C 564.351562 1083.039062 563.820312 1082.816406 563.28125 1082.625 C 562.738281 1082.429688 562.191406 1082.265625 561.632812 1082.125 C 561.074219 1081.984375 560.511719 1081.875 559.945312 1081.789062 C 559.375 1081.703125 558.804688 1081.648438 558.230469 1081.617188 C 557.65625 1081.589844 557.082031 1081.589844 556.507812 1081.617188 C 555.933594 1081.644531 555.363281 1081.699219 554.792969 1081.785156 C 554.226562 1081.867188 553.664062 1081.980469 553.105469 1082.117188 C 552.546875 1082.257812 552 1082.421875 551.457031 1082.613281 C 550.917969 1082.808594 550.386719 1083.03125 549.867188 1083.277344 C 549.347656 1083.527344 548.84375 1083.796875 548.351562 1084.09375 C 547.859375 1084.390625 547.382812 1084.710938 546.921875 1085.054688 C 546.460938 1085.398438 546.019531 1085.761719 545.59375 1086.148438 C 545.167969 1086.535156 544.761719 1086.941406 544.378906 1087.371094 C 543.992188 1087.796875 543.628906 1088.238281 543.289062 1088.703125 C 542.945312 1089.164062 542.628906 1089.640625 542.332031 1090.132812 C 542.039062 1090.628906 541.765625 1091.132812 541.523438 1091.652344 C 541.277344 1092.171875 541.058594 1092.703125 540.863281 1093.246094 C 540.671875 1093.785156 540.503906 1094.335938 540.363281 1094.894531 C 540.222656 1095.449219 540.113281 1096.011719 540.027344 1096.582031 C 539.941406 1097.148438 539.886719 1097.722656 539.859375 1098.296875 C 539.828125 1098.871094 539.828125 1099.441406 539.855469 1100.015625 C 539.882812 1100.589844 539.941406 1101.164062 540.023438 1101.730469 C 540.105469 1102.300781 540.21875 1102.863281 540.355469 1103.421875 C 540.496094 1103.976562 540.660156 1104.527344 540.855469 1105.070312 Z M 1076.160156 1073.054688 C 1106.492188 976.097656 1122.785156 864.28125 1122.785156 747.714844 C 1122.785156 456.902344 1020.996094 206.207031 876.019531 141.855469 C 875.496094 141.621094 874.960938 141.417969 874.414062 141.238281 C 873.867188 141.058594 873.316406 140.90625 872.753906 140.78125 C 872.191406 140.65625 871.628906 140.558594 871.058594 140.488281 C 870.488281 140.417969 869.914062 140.378906 869.339844 140.363281 C 868.765625 140.351562 868.191406 140.363281 867.617188 140.40625 C 867.046875 140.449219 866.476562 140.519531 865.910156 140.617188 C 865.34375 140.71875 864.785156 140.84375 864.230469 140.996094 C 863.675781 141.148438 863.132812 141.328125 862.59375 141.535156 C 862.058594 141.742188 861.535156 141.972656 861.019531 142.230469 C 860.507812 142.492188 860.007812 142.773438 859.519531 143.078125 C 859.035156 143.386719 858.566406 143.714844 858.113281 144.070312 C 857.660156 144.421875 857.222656 144.796875 856.808594 145.191406 C 856.390625 145.585938 855.992188 146 855.617188 146.4375 C 855.242188 146.871094 854.886719 147.320312 854.554688 147.792969 C 854.222656 148.261719 853.914062 148.742188 853.628906 149.242188 C 853.34375 149.742188 853.085938 150.253906 852.851562 150.777344 C 852.621094 151.304688 852.414062 151.839844 852.234375 152.386719 C 852.054688 152.933594 851.902344 153.484375 851.777344 154.046875 C 851.652344 154.605469 851.554688 155.171875 851.484375 155.742188 C 851.417969 156.3125 851.375 156.886719 851.359375 157.460938 C 851.347656 158.035156 851.363281 158.609375 851.402344 159.183594 C 851.445312 159.753906 851.515625 160.324219 851.617188 160.890625 C 851.714844 161.457031 851.839844 162.015625 851.992188 162.570312 C 852.144531 163.125 852.324219 163.667969 852.53125 164.207031 C 852.738281 164.742188 852.972656 165.265625 853.230469 165.78125 C 853.488281 166.292969 853.769531 166.792969 854.074219 167.277344 C 854.382812 167.765625 854.710938 168.234375 855.066406 168.6875 C 855.417969 169.140625 855.792969 169.578125 856.1875 169.992188 C 856.582031 170.410156 857 170.808594 857.433594 171.183594 C 857.867188 171.558594 858.320312 171.914062 858.789062 172.246094 C 859.257812 172.578125 859.742188 172.886719 860.238281 173.171875 C 860.738281 173.453125 861.25 173.714844 861.777344 173.949219 C 991.09375 231.339844 1087.664062 469.285156 1087.664062 747.734375 C 1087.664062 860.800781 1071.902344 969.117188 1042.632812 1062.597656 C 1042.460938 1063.144531 1042.320312 1063.703125 1042.203125 1064.265625 C 1042.085938 1064.828125 1042 1065.394531 1041.9375 1065.964844 C 1041.878906 1066.535156 1041.84375 1067.109375 1041.839844 1067.683594 C 1041.835938 1068.257812 1041.859375 1068.832031 1041.914062 1069.40625 C 1041.964844 1069.976562 1042.042969 1070.546875 1042.152344 1071.109375 C 1042.257812 1071.675781 1042.394531 1072.230469 1042.554688 1072.78125 C 1042.71875 1073.335938 1042.90625 1073.875 1043.121094 1074.410156 C 1043.335938 1074.941406 1043.578125 1075.464844 1043.84375 1075.972656 C 1044.109375 1076.480469 1044.402344 1076.976562 1044.714844 1077.457031 C 1045.03125 1077.9375 1045.367188 1078.402344 1045.726562 1078.851562 C 1046.085938 1079.296875 1046.46875 1079.726562 1046.871094 1080.136719 C 1047.273438 1080.546875 1047.695312 1080.9375 1048.132812 1081.304688 C 1048.574219 1081.675781 1049.03125 1082.023438 1049.507812 1082.347656 C 1049.980469 1082.671875 1050.46875 1082.972656 1050.972656 1083.246094 C 1051.476562 1083.523438 1051.992188 1083.777344 1052.523438 1084 C 1053.050781 1084.226562 1053.589844 1084.425781 1054.136719 1084.601562 C 1054.683594 1084.769531 1055.242188 1084.914062 1055.804688 1085.03125 C 1056.367188 1085.144531 1056.933594 1085.234375 1057.503906 1085.292969 C 1058.074219 1085.355469 1058.648438 1085.386719 1059.222656 1085.390625 C 1059.796875 1085.394531 1060.371094 1085.371094 1060.941406 1085.320312 C 1061.515625 1085.269531 1062.082031 1085.1875 1062.648438 1085.082031 C 1063.210938 1084.972656 1063.769531 1084.839844 1064.320312 1084.675781 C 1064.875 1084.515625 1065.414062 1084.328125 1065.949219 1084.109375 C 1066.480469 1083.894531 1067 1083.65625 1067.511719 1083.390625 C 1068.019531 1083.121094 1068.515625 1082.832031 1068.996094 1082.519531 C 1069.476562 1082.203125 1069.941406 1081.867188 1070.386719 1081.503906 C 1070.835938 1081.144531 1071.265625 1080.765625 1071.675781 1080.363281 C 1072.085938 1079.960938 1072.476562 1079.539062 1072.84375 1079.097656 C 1073.214844 1078.65625 1073.5625 1078.199219 1073.886719 1077.726562 C 1074.210938 1077.253906 1074.511719 1076.761719 1074.785156 1076.257812 C 1075.0625 1075.753906 1075.3125 1075.238281 1075.539062 1074.710938 C 1075.765625 1074.183594 1075.964844 1073.644531 1076.140625 1073.097656 Z M 1406.761719 1055.863281 C 1406.761719 1009.460938 1369.140625 971.839844 1322.738281 971.839844 C 1276.339844 971.839844 1238.511719 1009.238281 1238.511719 1055.863281 C 1238.511719 1102.488281 1276.132812 1139.886719 1322.535156 1139.886719 C 1368.9375 1139.886719 1406.558594 1102.265625 1406.558594 1055.863281 Z M 1371.660156 1055.863281 C 1371.660156 1057.464844 1371.578125 1059.0625 1371.421875 1060.65625 C 1371.265625 1062.25 1371.027344 1063.832031 1370.714844 1065.402344 C 1370.402344 1066.972656 1370.015625 1068.523438 1369.550781 1070.054688 C 1369.082031 1071.585938 1368.542969 1073.09375 1367.929688 1074.574219 C 1367.320312 1076.050781 1366.632812 1077.496094 1365.878906 1078.910156 C 1365.125 1080.320312 1364.300781 1081.695312 1363.410156 1083.023438 C 1362.523438 1084.355469 1361.570312 1085.640625 1360.554688 1086.878906 C 1359.539062 1088.117188 1358.464844 1089.300781 1357.332031 1090.433594 C 1356.199219 1091.566406 1355.015625 1092.640625 1353.777344 1093.65625 C 1352.539062 1094.671875 1351.253906 1095.625 1349.921875 1096.515625 C 1348.589844 1097.40625 1347.21875 1098.226562 1345.808594 1098.980469 C 1344.394531 1099.738281 1342.949219 1100.421875 1341.46875 1101.035156 C 1339.992188 1101.648438 1338.484375 1102.1875 1336.953125 1102.652344 C 1335.421875 1103.117188 1333.871094 1103.503906 1332.300781 1103.820312 C 1330.730469 1104.132812 1329.148438 1104.367188 1327.554688 1104.523438 C 1325.960938 1104.683594 1324.363281 1104.761719 1322.761719 1104.761719 C 1321.160156 1104.761719 1319.5625 1104.683594 1317.96875 1104.523438 C 1316.375 1104.367188 1314.792969 1104.132812 1313.222656 1103.820312 C 1311.652344 1103.507812 1310.101562 1103.117188 1308.570312 1102.652344 C 1307.035156 1102.1875 1305.53125 1101.648438 1304.050781 1101.035156 C 1302.570312 1100.421875 1301.125 1099.738281 1299.714844 1098.980469 C 1298.300781 1098.226562 1296.929688 1097.40625 1295.597656 1096.515625 C 1294.269531 1095.625 1292.984375 1094.671875 1291.746094 1093.65625 C 1290.507812 1092.640625 1289.324219 1091.566406 1288.191406 1090.433594 C 1287.058594 1089.300781 1285.984375 1088.117188 1284.96875 1086.878906 C 1283.953125 1085.640625 1283 1084.355469 1282.109375 1083.023438 C 1281.21875 1081.695312 1280.398438 1080.320312 1279.640625 1078.910156 C 1278.886719 1077.496094 1278.203125 1076.050781 1277.589844 1074.574219 C 1276.976562 1073.09375 1276.4375 1071.585938 1275.972656 1070.054688 C 1275.507812 1068.523438 1275.117188 1066.972656 1274.804688 1065.402344 C 1274.492188 1063.832031 1274.257812 1062.25 1274.097656 1060.65625 C 1273.941406 1059.0625 1273.863281 1057.464844 1273.863281 1055.863281 C 1273.863281 1054.261719 1273.941406 1052.664062 1274.097656 1051.070312 C 1274.257812 1049.476562 1274.492188 1047.894531 1274.804688 1046.324219 C 1275.117188 1044.753906 1275.507812 1043.203125 1275.972656 1041.671875 C 1276.4375 1040.136719 1276.976562 1038.632812 1277.589844 1037.152344 C 1278.203125 1035.675781 1278.886719 1034.230469 1279.640625 1032.816406 C 1280.398438 1031.402344 1281.21875 1030.03125 1282.109375 1028.699219 C 1283 1027.371094 1283.953125 1026.085938 1284.96875 1024.847656 C 1285.984375 1023.609375 1287.058594 1022.425781 1288.191406 1021.292969 C 1289.324219 1020.160156 1290.507812 1019.085938 1291.746094 1018.070312 C 1292.984375 1017.054688 1294.269531 1016.101562 1295.597656 1015.210938 C 1296.929688 1014.320312 1298.300781 1013.5 1299.714844 1012.746094 C 1301.125 1011.988281 1302.570312 1011.304688 1304.050781 1010.691406 C 1305.53125 1010.078125 1307.035156 1009.539062 1308.570312 1009.074219 C 1310.101562 1008.609375 1311.652344 1008.21875 1313.222656 1007.90625 C 1314.792969 1007.59375 1316.375 1007.359375 1317.96875 1007.203125 C 1319.5625 1007.042969 1321.160156 1006.964844 1322.761719 1006.964844 C 1324.363281 1006.964844 1325.960938 1007.042969 1327.554688 1007.203125 C 1329.144531 1007.359375 1330.726562 1007.59375 1332.296875 1007.90625 C 1333.871094 1008.21875 1335.421875 1008.609375 1336.953125 1009.074219 C 1338.484375 1009.539062 1339.992188 1010.078125 1341.46875 1010.691406 C 1342.949219 1011.304688 1344.394531 1011.988281 1345.808594 1012.746094 C 1347.21875 1013.5 1348.589844 1014.320312 1349.921875 1015.210938 C 1351.253906 1016.101562 1352.539062 1017.054688 1353.777344 1018.070312 C 1355.015625 1019.085938 1356.199219 1020.160156 1357.332031 1021.292969 C 1358.464844 1022.425781 1359.539062 1023.609375 1360.554688 1024.847656 C 1361.570312 1026.085938 1362.523438 1027.371094 1363.410156 1028.703125 C 1364.300781 1030.03125 1365.125 1031.40625 1365.878906 1032.816406 C 1366.632812 1034.230469 1367.320312 1035.675781 1367.929688 1037.152344 C 1368.542969 1038.632812 1369.082031 1040.140625 1369.550781 1041.671875 C 1370.015625 1043.203125 1370.402344 1044.753906 1370.714844 1046.324219 C 1371.027344 1047.894531 1371.265625 1049.476562 1371.421875 1051.070312 C 1371.578125 1052.664062 1371.660156 1054.261719 1371.660156 1055.863281 Z M 1371.660156 1055.863281 " fill-opacity="1" fill-rule="evenodd"/></g><path fill="#ffffff" d="M 282.320312 1139.886719 C 328.722656 1139.886719 366.34375 1102.265625 366.34375 1055.863281 C 366.34375 1009.460938 328.722656 971.839844 282.320312 971.839844 C 280.945312 971.839844 279.570312 971.875 278.199219 971.941406 C 276.824219 972.011719 275.453125 972.113281 274.085938 972.246094 C 272.714844 972.382812 271.351562 972.550781 269.992188 972.753906 C 268.632812 972.953125 267.277344 973.1875 265.929688 973.457031 C 264.578125 973.726562 263.238281 974.027344 261.90625 974.363281 C 260.570312 974.695312 259.246094 975.0625 257.929688 975.460938 C 256.613281 975.859375 255.308594 976.292969 254.015625 976.757812 C 252.71875 977.21875 251.4375 977.714844 250.167969 978.242188 C 248.898438 978.765625 247.640625 979.324219 246.398438 979.914062 C 245.152344 980.5 243.925781 981.117188 242.714844 981.765625 C 241.5 982.414062 240.304688 983.09375 239.125 983.800781 C 237.945312 984.507812 236.785156 985.242188 235.640625 986.007812 C 234.5 986.769531 233.375 987.5625 232.269531 988.382812 C 231.164062 989.203125 230.082031 990.046875 229.019531 990.917969 C 227.957031 991.792969 226.914062 992.691406 225.898438 993.613281 C 224.878906 994.539062 223.882812 995.484375 222.910156 996.457031 C 221.9375 997.429688 220.992188 998.425781 220.066406 999.445312 C 219.144531 1000.464844 218.246094 1001.503906 217.375 1002.566406 C 216.5 1003.632812 215.65625 1004.714844 214.835938 1005.820312 C 214.019531 1006.925781 213.226562 1008.046875 212.460938 1009.191406 C 211.699219 1010.335938 210.964844 1011.496094 210.257812 1012.675781 C 209.550781 1013.855469 208.871094 1015.050781 208.226562 1016.265625 C 207.578125 1017.476562 206.957031 1018.707031 206.371094 1019.949219 C 205.78125 1021.191406 205.226562 1022.449219 204.699219 1023.71875 C 204.175781 1024.988281 203.679688 1026.273438 203.214844 1027.566406 C 202.753906 1028.863281 202.324219 1030.167969 201.921875 1031.484375 C 201.523438 1032.796875 201.15625 1034.125 200.824219 1035.457031 C 200.488281 1036.792969 200.1875 1038.132812 199.921875 1039.480469 C 199.652344 1040.828125 199.417969 1042.183594 199.214844 1043.542969 C 199.015625 1044.90625 198.847656 1046.269531 198.710938 1047.636719 C 198.578125 1049.007812 198.476562 1050.378906 198.410156 1051.75 C 198.339844 1053.125 198.308594 1054.5 198.308594 1055.875 C 198.308594 1057.25 198.34375 1058.621094 198.410156 1059.996094 C 198.476562 1061.371094 198.578125 1062.742188 198.714844 1064.109375 C 198.847656 1065.476562 199.015625 1066.839844 199.21875 1068.203125 C 199.421875 1069.5625 199.65625 1070.917969 199.925781 1072.265625 C 200.191406 1073.613281 200.496094 1074.953125 200.828125 1076.289062 C 201.164062 1077.621094 201.53125 1078.949219 201.929688 1080.261719 C 202.328125 1081.578125 202.761719 1082.882812 203.222656 1084.179688 C 203.6875 1085.472656 204.179688 1086.757812 204.707031 1088.027344 C 205.234375 1089.296875 205.792969 1090.554688 206.378906 1091.796875 C 206.96875 1093.039062 207.585938 1094.265625 208.234375 1095.480469 C 208.882812 1096.691406 209.558594 1097.886719 210.265625 1099.066406 C 210.972656 1100.246094 211.710938 1101.410156 212.472656 1102.550781 C 213.238281 1103.695312 214.03125 1104.820312 214.847656 1105.921875 C 215.667969 1107.027344 216.515625 1108.109375 217.386719 1109.175781 C 218.257812 1110.238281 219.15625 1111.277344 220.082031 1112.296875 C 221.003906 1113.316406 221.953125 1114.3125 222.925781 1115.28125 C 223.898438 1116.253906 224.894531 1117.203125 225.914062 1118.125 C 226.929688 1119.050781 227.972656 1119.949219 229.035156 1120.820312 C 230.097656 1121.691406 231.183594 1122.539062 232.285156 1123.355469 C 233.390625 1124.175781 234.515625 1124.964844 235.660156 1125.730469 C 236.800781 1126.496094 237.964844 1127.230469 239.144531 1127.9375 C 240.324219 1128.644531 241.519531 1129.320312 242.730469 1129.96875 C 243.945312 1130.617188 245.171875 1131.234375 246.414062 1131.824219 C 247.660156 1132.410156 248.914062 1132.96875 250.1875 1133.492188 C 251.457031 1134.019531 252.738281 1134.515625 254.035156 1134.976562 C 255.328125 1135.441406 256.632812 1135.871094 257.949219 1136.269531 C 259.265625 1136.667969 260.589844 1137.035156 261.925781 1137.371094 C 263.257812 1137.703125 264.601562 1138.003906 265.949219 1138.273438 C 267.296875 1138.539062 268.652344 1138.777344 270.011719 1138.976562 C 271.371094 1139.179688 272.738281 1139.347656 274.105469 1139.480469 C 275.472656 1139.617188 276.84375 1139.71875 278.21875 1139.785156 C 279.589844 1139.851562 280.964844 1139.886719 282.339844 1139.886719 Z M 282.320312 1104.78125 C 280.71875 1104.78125 279.121094 1104.703125 277.527344 1104.542969 C 275.933594 1104.386719 274.351562 1104.152344 272.78125 1103.839844 C 271.210938 1103.527344 269.660156 1103.136719 268.128906 1102.671875 C 266.59375 1102.207031 265.089844 1101.667969 263.609375 1101.054688 C 262.132812 1100.441406 260.6875 1099.757812 259.273438 1099.003906 C 257.863281 1098.246094 256.488281 1097.425781 255.160156 1096.535156 C 253.828125 1095.644531 252.542969 1094.691406 251.304688 1093.675781 C 250.066406 1092.660156 248.882812 1091.585938 247.75 1090.453125 C 246.617188 1089.320312 245.542969 1088.136719 244.527344 1086.898438 C 243.511719 1085.660156 242.558594 1084.375 241.667969 1083.046875 C 240.777344 1081.714844 239.957031 1080.34375 239.203125 1078.929688 C 238.445312 1077.519531 237.761719 1076.074219 237.148438 1074.59375 C 236.535156 1073.113281 235.996094 1071.609375 235.53125 1070.074219 C 235.066406 1068.542969 234.675781 1066.992188 234.363281 1065.421875 C 234.050781 1063.851562 233.816406 1062.269531 233.660156 1060.675781 C 233.5 1059.082031 233.421875 1057.484375 233.421875 1055.882812 C 233.421875 1054.28125 233.5 1052.683594 233.660156 1051.089844 C 233.816406 1049.496094 234.050781 1047.914062 234.363281 1046.34375 C 234.675781 1044.773438 235.066406 1043.222656 235.53125 1041.691406 C 235.996094 1040.160156 236.535156 1038.652344 237.148438 1037.175781 C 237.761719 1035.695312 238.445312 1034.25 239.203125 1032.835938 C 239.957031 1031.425781 240.777344 1030.054688 241.667969 1028.722656 C 242.558594 1027.390625 243.511719 1026.105469 244.527344 1024.867188 C 245.542969 1023.628906 246.617188 1022.445312 247.75 1021.3125 C 248.882812 1020.179688 250.066406 1019.105469 251.304688 1018.089844 C 252.542969 1017.074219 253.828125 1016.121094 255.160156 1015.230469 C 256.488281 1014.34375 257.863281 1013.519531 259.273438 1012.765625 C 260.6875 1012.007812 262.132812 1011.324219 263.609375 1010.710938 C 265.089844 1010.097656 266.59375 1009.558594 268.128906 1009.09375 C 269.660156 1008.628906 271.210938 1008.242188 272.78125 1007.929688 C 274.351562 1007.613281 275.933594 1007.378906 277.527344 1007.222656 C 279.121094 1007.066406 280.71875 1006.984375 282.320312 1006.984375 C 283.921875 1006.984375 285.519531 1007.066406 287.113281 1007.222656 C 288.707031 1007.378906 290.289062 1007.613281 291.859375 1007.929688 C 293.429688 1008.242188 294.980469 1008.628906 296.511719 1009.09375 C 298.042969 1009.558594 299.550781 1010.097656 301.03125 1010.710938 C 302.507812 1011.324219 303.953125 1012.007812 305.367188 1012.765625 C 306.777344 1013.519531 308.152344 1014.34375 309.480469 1015.230469 C 310.8125 1016.121094 312.097656 1017.074219 313.335938 1018.089844 C 314.574219 1019.105469 315.757812 1020.179688 316.890625 1021.3125 C 318.023438 1022.445312 319.097656 1023.628906 320.113281 1024.867188 C 321.128906 1026.105469 322.082031 1027.390625 322.972656 1028.722656 C 323.859375 1030.054688 324.683594 1031.425781 325.4375 1032.835938 C 326.195312 1034.25 326.878906 1035.695312 327.492188 1037.175781 C 328.105469 1038.652344 328.644531 1040.160156 329.109375 1041.691406 C 329.574219 1043.222656 329.960938 1044.773438 330.277344 1046.34375 C 330.589844 1047.914062 330.824219 1049.496094 330.980469 1051.089844 C 331.140625 1052.683594 331.21875 1054.28125 331.21875 1055.882812 C 331.21875 1057.484375 331.140625 1059.082031 330.980469 1060.675781 C 330.824219 1062.269531 330.589844 1063.851562 330.277344 1065.421875 C 329.960938 1066.992188 329.574219 1068.542969 329.109375 1070.074219 C 328.644531 1071.609375 328.105469 1073.113281 327.492188 1074.59375 C 326.878906 1076.070312 326.195312 1077.519531 325.4375 1078.929688 C 324.683594 1080.34375 323.859375 1081.714844 322.972656 1083.046875 C 322.082031 1084.375 321.128906 1085.660156 320.113281 1086.898438 C 319.097656 1088.136719 318.023438 1089.320312 316.890625 1090.453125 C 315.757812 1091.585938 314.574219 1092.660156 313.335938 1093.675781 C 312.097656 1094.691406 310.8125 1095.644531 309.480469 1096.535156 C 308.152344 1097.425781 306.777344 1098.246094 305.367188 1099.003906 C 303.953125 1099.757812 302.507812 1100.441406 301.03125 1101.054688 C 299.550781 1101.667969 298.042969 1102.207031 296.511719 1102.671875 C 294.980469 1103.136719 293.429688 1103.527344 291.859375 1103.839844 C 290.289062 1104.152344 288.707031 1104.386719 287.113281 1104.542969 C 285.519531 1104.703125 283.921875 1104.78125 282.320312 1104.78125 Z M 803.15625 227.351562 C 849.554688 227.351562 887.175781 189.730469 887.175781 143.328125 C 887.175781 96.925781 849.535156 59.511719 803.15625 59.511719 C 756.773438 59.511719 719.132812 97.132812 719.132812 143.53125 C 719.132812 189.933594 756.753906 227.351562 803.15625 227.351562 Z M 803.15625 192.246094 C 801.554688 192.246094 799.957031 192.167969 798.363281 192.011719 C 796.769531 191.851562 795.1875 191.617188 793.617188 191.304688 C 792.046875 190.992188 790.496094 190.601562 788.960938 190.136719 C 787.429688 189.671875 785.925781 189.132812 784.445312 188.519531 C 782.964844 187.90625 781.519531 187.222656 780.109375 186.46875 C 778.695312 185.710938 777.324219 184.890625 775.992188 184 C 774.660156 183.109375 773.375 182.15625 772.140625 181.140625 C 770.902344 180.125 769.714844 179.050781 768.582031 177.917969 C 767.453125 176.789062 766.378906 175.601562 765.363281 174.363281 C 764.34375 173.125 763.394531 171.84375 762.503906 170.511719 C 761.613281 169.179688 760.789062 167.808594 760.035156 166.394531 C 759.28125 164.984375 758.597656 163.539062 757.984375 162.058594 C 757.371094 160.578125 756.832031 159.074219 756.367188 157.542969 C 755.902344 156.007812 755.511719 154.457031 755.199219 152.886719 C 754.886719 151.316406 754.652344 149.734375 754.492188 148.140625 C 754.335938 146.546875 754.257812 144.949219 754.253906 143.347656 C 754.257812 141.746094 754.335938 140.148438 754.492188 138.554688 C 754.652344 136.964844 754.886719 135.382812 755.199219 133.8125 C 755.511719 132.238281 755.902344 130.6875 756.367188 129.15625 C 756.832031 127.625 757.371094 126.117188 757.984375 124.640625 C 758.597656 123.160156 759.28125 121.714844 760.035156 120.300781 C 760.789062 118.890625 761.613281 117.519531 762.503906 116.1875 C 763.394531 114.855469 764.34375 113.570312 765.363281 112.332031 C 766.378906 111.09375 767.453125 109.910156 768.582031 108.777344 C 769.714844 107.644531 770.902344 106.570312 772.140625 105.554688 C 773.375 104.539062 774.660156 103.585938 775.992188 102.699219 C 777.324219 101.808594 778.695312 100.984375 780.109375 100.230469 C 781.519531 99.476562 782.964844 98.792969 784.445312 98.179688 C 785.925781 97.566406 787.429688 97.027344 788.960938 96.558594 C 790.496094 96.09375 792.046875 95.707031 793.617188 95.394531 C 795.1875 95.082031 796.769531 94.84375 798.363281 94.6875 C 799.957031 94.53125 801.554688 94.449219 803.15625 94.449219 C 804.753906 94.449219 806.351562 94.53125 807.945312 94.6875 C 809.539062 94.84375 811.121094 95.082031 812.691406 95.394531 C 814.261719 95.707031 815.8125 96.09375 817.347656 96.558594 C 818.878906 97.027344 820.382812 97.566406 821.863281 98.179688 C 823.34375 98.792969 824.789062 99.476562 826.199219 100.230469 C 827.613281 100.984375 828.984375 101.808594 830.316406 102.699219 C 831.648438 103.585938 832.933594 104.539062 834.167969 105.554688 C 835.40625 106.570312 836.59375 107.644531 837.726562 108.777344 C 838.855469 109.910156 839.929688 111.09375 840.945312 112.332031 C 841.964844 113.570312 842.917969 114.855469 843.804688 116.1875 C 844.695312 117.519531 845.519531 118.890625 846.273438 120.300781 C 847.027344 121.714844 847.710938 123.160156 848.324219 124.640625 C 848.9375 126.117188 849.476562 127.625 849.941406 129.15625 C 850.40625 130.6875 850.796875 132.238281 851.109375 133.8125 C 851.421875 135.382812 851.65625 136.964844 851.816406 138.554688 C 851.972656 140.148438 852.050781 141.746094 852.054688 143.347656 C 852.050781 144.949219 851.972656 146.546875 851.816406 148.140625 C 851.65625 149.734375 851.421875 151.316406 851.109375 152.886719 C 850.796875 154.457031 850.40625 156.007812 849.941406 157.542969 C 849.476562 159.074219 848.9375 160.578125 848.324219 162.058594 C 847.710938 163.539062 847.027344 164.984375 846.273438 166.394531 C 845.519531 167.808594 844.695312 169.179688 843.804688 170.511719 C 842.914062 171.84375 841.964844 173.125 840.945312 174.363281 C 839.929688 175.601562 838.855469 176.789062 837.726562 177.917969 C 836.59375 179.050781 835.40625 180.125 834.167969 181.140625 C 832.933594 182.15625 831.648438 183.109375 830.316406 184 C 828.984375 184.890625 827.613281 185.710938 826.199219 186.46875 C 824.789062 187.222656 823.34375 187.90625 821.863281 188.519531 C 820.382812 189.132812 818.878906 189.671875 817.347656 190.136719 C 815.8125 190.601562 814.261719 190.992188 812.691406 191.304688 C 811.121094 191.617188 809.539062 191.851562 807.945312 192.011719 C 806.351562 192.167969 804.753906 192.246094 803.15625 192.246094 Z M 815.96875 807.113281 C 814.015625 807.546875 812.046875 807.886719 810.0625 808.125 C 808.078125 808.367188 806.085938 808.507812 804.089844 808.550781 C 802.089844 808.597656 800.09375 808.542969 798.101562 808.390625 C 796.109375 808.234375 794.125 807.984375 792.15625 807.636719 C 790.1875 807.289062 788.242188 806.84375 786.316406 806.304688 C 784.394531 805.761719 782.5 805.128906 780.636719 804.402344 C 778.773438 803.675781 776.953125 802.859375 775.171875 801.949219 C 773.390625 801.042969 771.65625 800.050781 769.972656 798.972656 C 768.289062 797.894531 766.664062 796.738281 765.09375 795.5 C 763.523438 794.261719 762.019531 792.949219 760.582031 791.5625 C 759.140625 790.175781 757.773438 788.71875 756.476562 787.199219 C 755.179688 785.675781 753.960938 784.09375 752.820312 782.453125 C 751.679688 780.8125 750.625 779.117188 749.648438 777.371094 C 748.675781 775.625 747.792969 773.835938 746.996094 772 C 746.199219 770.167969 745.496094 768.300781 744.882812 766.394531 C 744.269531 764.492188 743.753906 762.5625 743.332031 760.609375 C 742.90625 758.65625 742.582031 756.6875 742.355469 754.699219 C 742.128906 752.714844 742 750.722656 741.96875 748.722656 C 741.9375 746.722656 742.003906 744.726562 742.167969 742.734375 C 742.335938 740.742188 742.597656 738.765625 742.960938 736.796875 C 743.320312 734.832031 743.777344 732.886719 744.332031 730.964844 C 744.882812 729.046875 745.527344 727.15625 746.269531 725.296875 C 747.007812 723.441406 747.835938 721.625 748.753906 719.847656 C 749.671875 718.074219 750.675781 716.347656 751.765625 714.671875 C 752.855469 712.992188 754.023438 711.375 755.273438 709.8125 C 756.519531 708.25 757.84375 706.753906 759.238281 705.324219 C 760.632812 703.894531 762.097656 702.535156 763.628906 701.25 C 765.15625 699.960938 766.746094 698.753906 768.398438 697.625 C 770.046875 696.492188 771.746094 695.449219 773.5 694.484375 C 775.253906 693.523438 777.046875 692.652344 778.886719 691.867188 C 780.726562 691.082031 782.597656 690.386719 784.503906 689.789062 C 786.410156 689.1875 788.34375 688.683594 790.300781 688.273438 C 792.25 687.839844 794.21875 687.503906 796.203125 687.261719 C 798.1875 687.019531 800.179688 686.878906 802.179688 686.835938 C 804.179688 686.789062 806.175781 686.84375 808.167969 687 C 810.160156 687.152344 812.140625 687.402344 814.109375 687.75 C 816.078125 688.097656 818.023438 688.542969 819.949219 689.082031 C 821.875 689.625 823.769531 690.257812 825.628906 690.984375 C 827.492188 691.710938 829.316406 692.527344 831.097656 693.4375 C 832.878906 694.34375 834.609375 695.335938 836.292969 696.414062 C 837.976562 697.492188 839.605469 698.648438 841.171875 699.886719 C 842.742188 701.125 844.246094 702.4375 845.6875 703.824219 C 847.128906 705.210938 848.496094 706.667969 849.792969 708.1875 C 851.089844 709.710938 852.308594 711.292969 853.449219 712.933594 C 854.585938 714.574219 855.644531 716.269531 856.617188 718.015625 C 857.589844 719.761719 858.476562 721.550781 859.273438 723.386719 C 860.070312 725.21875 860.773438 727.089844 861.386719 728.992188 C 862 730.894531 862.515625 732.824219 862.9375 734.777344 C 863.359375 736.730469 863.683594 738.699219 863.914062 740.6875 C 864.140625 742.671875 864.269531 744.664062 864.300781 746.664062 C 864.332031 748.664062 864.265625 750.660156 864.097656 752.652344 C 863.933594 754.644531 863.667969 756.625 863.308594 758.589844 C 862.945312 760.554688 862.492188 762.5 861.9375 764.421875 C 861.382812 766.34375 860.738281 768.230469 860 770.089844 C 859.261719 771.945312 858.429688 773.761719 857.511719 775.539062 C 856.59375 777.3125 855.589844 779.039062 854.503906 780.71875 C 853.414062 782.394531 852.246094 784.011719 850.996094 785.574219 C 849.746094 787.136719 848.425781 788.632812 847.03125 790.0625 C 845.632812 791.492188 844.171875 792.851562 842.640625 794.140625 C 841.109375 795.425781 839.519531 796.632812 837.871094 797.761719 C 836.222656 798.894531 834.519531 799.9375 832.769531 800.902344 C 831.015625 801.863281 829.21875 802.738281 827.382812 803.519531 C 825.542969 804.304688 823.671875 805 821.761719 805.597656 C 819.855469 806.199219 817.925781 806.703125 815.96875 807.113281 Z M 815.96875 807.113281 " fill-opacity="1" fill-rule="evenodd"/><g clip-path="url(#03aa22fb71)"><g clip-path="url(#c72c5ab581)"><g transform="matrix(1, 0, 0, 1, 224, 1002)"><g clip-path="url(#63b4ea73cc)"><g clip-path="url(#7a27cbf12f)"><g clip-path="url(#b1b6cd2478)"><path fill="url(#01ca7df280)" d="M 0.660156 0.230469 L 0.660156 108.222656 L 108.652344 108.222656 L 108.652344 0.230469 Z M 0.660156 0.230469 " fill-rule="nonzero"/></g></g></g></g></g></g><g clip-path="url(#4c7198a4f9)"><g clip-path="url(#2006705f15)"><g transform="matrix(1, 0, 0, 1, 749, 86)"><g clip-path="url(#f63b7f2fe0)"><g clip-path="url(#81550f8dc8)"><g clip-path="url(#4551e8551f)"><path fill="url(#0d54bd9b8a)" d="M 0.5 0.0859375 L 0.5 108.078125 L 108.492188 108.078125 L 108.492188 0.0859375 Z M 0.5 0.0859375 " fill-rule="nonzero"/></g></g></g></g></g></g><g clip-path="url(#9e689df010)"><g clip-path="url(#9e04e43a77)"><g transform="matrix(1, 0, 0, 1, 1269, 999)"><g clip-path="url(#4e368900ff)"><g clip-path="url(#d41c864ed7)"><g clip-path="url(#c00afc5c6e)"><path fill="url(#b7e12ad70a)" d="M 0.0078125 0.980469 L 0.0078125 108.972656 L 108 108.972656 L 108 0.980469 Z M 0.0078125 0.980469 " fill-rule="nonzero"/></g></g></g></g></g></g></svg>