<svg xmlns="http://www.w3.org/2000/svg" xmlns:xlink="http://www.w3.org/1999/xlink" width="2000" zoomAndPan="magnify" viewBox="0 0 1500 1499.999933" height="2000" preserveAspectRatio="xMidYMid meet" version="1.0"><defs><clipPath id="7f4c745d4b"><path d="M 539 140 L 1406.632812 140 L 1406.632812 1370 L 539 1370 Z M 539 140 " clip-rule="nonzero"/></clipPath><clipPath id="0384ee3def"><path d="M 224.660156 1002.230469 L 332.652344 1002.230469 L 332.652344 1110.222656 L 224.660156 1110.222656 Z M 224.660156 1002.230469 " clip-rule="nonzero"/></clipPath><clipPath id="3d12db033c"><path d="M 278.65625 1002.230469 C 248.832031 1002.230469 224.660156 1026.40625 224.660156 1056.226562 C 224.660156 1086.046875 248.832031 1110.222656 278.65625 1110.222656 C 308.476562 1110.222656 332.652344 1086.046875 332.652344 1056.226562 C 332.652344 1026.40625 308.476562 1002.230469 278.65625 1002.230469 Z M 278.65625 1002.230469 " clip-rule="nonzero"/></clipPath><clipPath id="a6533279f9"><path d="M 0.660156 0.230469 L 108.652344 0.230469 L 108.652344 108.222656 L 0.660156 108.222656 Z M 0.660156 0.230469 " clip-rule="nonzero"/></clipPath><clipPath id="5ff37fd599"><path d="M 54.65625 0.230469 C 24.832031 0.230469 0.660156 24.40625 0.660156 54.226562 C 0.660156 84.046875 24.832031 108.222656 54.65625 108.222656 C 84.476562 108.222656 108.652344 84.046875 108.652344 54.226562 C 108.652344 24.40625 84.476562 0.230469 54.65625 0.230469 Z M 54.65625 0.230469 " clip-rule="nonzero"/></clipPath><linearGradient x1="0.00000206692" gradientTransform="matrix(0.421846, 0, 0, 0.421846, 0.6585, 0.230401)" y1="128" x2="255.999995" gradientUnits="userSpaceOnUse" y2="128" id="22f68249a4"><stop stop-opacity="1" stop-color="rgb(65.098572%, 65.098572%, 65.098572%)" offset="0"/><stop stop-opacity="1" stop-color="rgb(65.234375%, 65.234375%, 65.234375%)" offset="0.0078125"/><stop stop-opacity="1" stop-color="rgb(65.507507%, 65.507507%, 65.507507%)" offset="0.015625"/><stop stop-opacity="1" stop-color="rgb(65.78064%, 65.78064%, 65.78064%)" offset="0.0234375"/><stop stop-opacity="1" stop-color="rgb(66.053772%, 66.053772%, 66.053772%)" offset="0.03125"/><stop stop-opacity="1" stop-color="rgb(66.325378%, 66.325378%, 66.325378%)" offset="0.0390625"/><stop stop-opacity="1" stop-color="rgb(66.598511%, 66.598511%, 66.598511%)" offset="0.046875"/><stop stop-opacity="1" stop-color="rgb(66.871643%, 66.871643%, 66.871643%)" offset="0.0546875"/><stop stop-opacity="1" stop-color="rgb(67.14325%, 67.14325%, 67.14325%)" offset="0.0625"/><stop stop-opacity="1" stop-color="rgb(67.416382%, 67.416382%, 67.416382%)" offset="0.0703125"/><stop stop-opacity="1" stop-color="rgb(67.689514%, 67.689514%, 67.689514%)" offset="0.078125"/><stop stop-opacity="1" stop-color="rgb(67.961121%, 67.961121%, 67.961121%)" offset="0.0859375"/><stop stop-opacity="1" stop-color="rgb(68.234253%, 68.234253%, 68.234253%)" offset="0.09375"/><stop stop-opacity="1" stop-color="rgb(68.507385%, 68.507385%, 68.507385%)" offset="0.101562"/><stop stop-opacity="1" stop-color="rgb(68.778992%, 68.778992%, 68.778992%)" offset="0.109375"/><stop stop-opacity="1" stop-color="rgb(69.052124%, 69.052124%, 69.052124%)" offset="0.117188"/><stop stop-opacity="1" stop-color="rgb(69.325256%, 69.325256%, 69.325256%)" offset="0.125"/><stop stop-opacity="1" stop-color="rgb(69.596863%, 69.596863%, 69.596863%)" offset="0.132812"/><stop stop-opacity="1" stop-color="rgb(69.869995%, 69.869995%, 69.869995%)" offset="0.140625"/><stop stop-opacity="1" stop-color="rgb(70.143127%, 70.143127%, 70.143127%)" offset="0.148438"/><stop stop-opacity="1" stop-color="rgb(70.41626%, 70.41626%, 70.41626%)" offset="0.15625"/><stop stop-opacity="1" stop-color="rgb(70.687866%, 70.687866%, 70.687866%)" offset="0.164062"/><stop stop-opacity="1" stop-color="rgb(70.960999%, 70.960999%, 70.960999%)" offset="0.171875"/><stop stop-opacity="1" stop-color="rgb(71.234131%, 71.234131%, 71.234131%)" offset="0.179688"/><stop stop-opacity="1" stop-color="rgb(71.505737%, 71.505737%, 71.505737%)" offset="0.1875"/><stop stop-opacity="1" stop-color="rgb(71.77887%, 71.77887%, 71.77887%)" offset="0.195312"/><stop stop-opacity="1" stop-color="rgb(72.052002%, 72.052002%, 72.052002%)" offset="0.203125"/><stop stop-opacity="1" stop-color="rgb(72.323608%, 72.323608%, 72.323608%)" offset="0.210938"/><stop stop-opacity="1" stop-color="rgb(72.596741%, 72.596741%, 72.596741%)" offset="0.21875"/><stop stop-opacity="1" stop-color="rgb(72.869873%, 72.869873%, 72.869873%)" offset="0.226562"/><stop stop-opacity="1" stop-color="rgb(73.141479%, 73.141479%, 73.141479%)" offset="0.234375"/><stop stop-opacity="1" stop-color="rgb(73.414612%, 73.414612%, 73.414612%)" offset="0.242188"/><stop stop-opacity="1" stop-color="rgb(73.687744%, 73.687744%, 73.687744%)" offset="0.25"/><stop stop-opacity="1" stop-color="rgb(73.959351%, 73.959351%, 73.959351%)" offset="0.257812"/><stop stop-opacity="1" stop-color="rgb(74.232483%, 74.232483%, 74.232483%)" offset="0.265625"/><stop stop-opacity="1" stop-color="rgb(74.505615%, 74.505615%, 74.505615%)" offset="0.273437"/><stop stop-opacity="1" stop-color="rgb(74.778748%, 74.778748%, 74.778748%)" offset="0.28125"/><stop stop-opacity="1" stop-color="rgb(75.050354%, 75.050354%, 75.050354%)" offset="0.289063"/><stop stop-opacity="1" stop-color="rgb(75.323486%, 75.323486%, 75.323486%)" offset="0.296875"/><stop stop-opacity="1" stop-color="rgb(75.596619%, 75.596619%, 75.596619%)" offset="0.304688"/><stop stop-opacity="1" stop-color="rgb(75.868225%, 75.868225%, 75.868225%)" offset="0.3125"/><stop stop-opacity="1" stop-color="rgb(76.141357%, 76.141357%, 76.141357%)" offset="0.320312"/><stop stop-opacity="1" stop-color="rgb(76.41449%, 76.41449%, 76.41449%)" offset="0.328125"/><stop stop-opacity="1" stop-color="rgb(76.686096%, 76.686096%, 76.686096%)" offset="0.335937"/><stop stop-opacity="1" stop-color="rgb(76.959229%, 76.959229%, 76.959229%)" offset="0.34375"/><stop stop-opacity="1" stop-color="rgb(77.232361%, 77.232361%, 77.232361%)" offset="0.351563"/><stop stop-opacity="1" stop-color="rgb(77.503967%, 77.503967%, 77.503967%)" offset="0.359375"/><stop stop-opacity="1" stop-color="rgb(77.7771%, 77.7771%, 77.7771%)" offset="0.367188"/><stop stop-opacity="1" stop-color="rgb(78.050232%, 78.050232%, 78.050232%)" offset="0.375"/><stop stop-opacity="1" stop-color="rgb(78.321838%, 78.321838%, 78.321838%)" offset="0.382812"/><stop stop-opacity="1" stop-color="rgb(78.594971%, 78.594971%, 78.594971%)" offset="0.390625"/><stop stop-opacity="1" stop-color="rgb(78.868103%, 78.868103%, 78.868103%)" offset="0.398437"/><stop stop-opacity="1" stop-color="rgb(79.141235%, 79.141235%, 79.141235%)" offset="0.40625"/><stop stop-opacity="1" stop-color="rgb(79.412842%, 79.412842%, 79.412842%)" offset="0.414063"/><stop stop-opacity="1" stop-color="rgb(79.685974%, 79.685974%, 79.685974%)" offset="0.421875"/><stop stop-opacity="1" stop-color="rgb(79.959106%, 79.959106%, 79.959106%)" offset="0.429688"/><stop stop-opacity="1" stop-color="rgb(80.230713%, 80.230713%, 80.230713%)" offset="0.4375"/><stop stop-opacity="1" stop-color="rgb(80.503845%, 80.503845%, 80.503845%)" offset="0.445312"/><stop stop-opacity="1" stop-color="rgb(80.776978%, 80.776978%, 80.776978%)" offset="0.453125"/><stop stop-opacity="1" stop-color="rgb(81.048584%, 81.048584%, 81.048584%)" offset="0.460937"/><stop stop-opacity="1" stop-color="rgb(81.321716%, 81.321716%, 81.321716%)" offset="0.46875"/><stop stop-opacity="1" stop-color="rgb(81.594849%, 81.594849%, 81.594849%)" offset="0.476563"/><stop stop-opacity="1" stop-color="rgb(81.866455%, 81.866455%, 81.866455%)" offset="0.484375"/><stop stop-opacity="1" stop-color="rgb(82.139587%, 82.139587%, 82.139587%)" offset="0.492188"/><stop stop-opacity="1" stop-color="rgb(82.41272%, 82.41272%, 82.41272%)" offset="0.5"/><stop stop-opacity="1" stop-color="rgb(82.684326%, 82.684326%, 82.684326%)" offset="0.507812"/><stop stop-opacity="1" stop-color="rgb(82.957458%, 82.957458%, 82.957458%)" offset="0.515625"/><stop stop-opacity="1" stop-color="rgb(83.230591%, 83.230591%, 83.230591%)" offset="0.523438"/><stop stop-opacity="1" stop-color="rgb(83.503723%, 83.503723%, 83.503723%)" offset="0.53125"/><stop stop-opacity="1" stop-color="rgb(83.77533%, 83.77533%, 83.77533%)" offset="0.539062"/><stop stop-opacity="1" stop-color="rgb(84.048462%, 84.048462%, 84.048462%)" offset="0.546875"/><stop stop-opacity="1" stop-color="rgb(84.321594%, 84.321594%, 84.321594%)" offset="0.554687"/><stop stop-opacity="1" stop-color="rgb(84.593201%, 84.593201%, 84.593201%)" offset="0.5625"/><stop stop-opacity="1" stop-color="rgb(84.866333%, 84.866333%, 84.866333%)" offset="0.570313"/><stop stop-opacity="1" stop-color="rgb(85.139465%, 85.139465%, 85.139465%)" offset="0.578125"/><stop stop-opacity="1" stop-color="rgb(85.411072%, 85.411072%, 85.411072%)" offset="0.585938"/><stop stop-opacity="1" stop-color="rgb(85.684204%, 85.684204%, 85.684204%)" offset="0.59375"/><stop stop-opacity="1" stop-color="rgb(85.957336%, 85.957336%, 85.957336%)" offset="0.601562"/><stop stop-opacity="1" stop-color="rgb(86.228943%, 86.228943%, 86.228943%)" offset="0.609375"/><stop stop-opacity="1" stop-color="rgb(86.502075%, 86.502075%, 86.502075%)" offset="0.617188"/><stop stop-opacity="1" stop-color="rgb(86.775208%, 86.775208%, 86.775208%)" offset="0.625"/><stop stop-opacity="1" stop-color="rgb(87.046814%, 87.046814%, 87.046814%)" offset="0.632812"/><stop stop-opacity="1" stop-color="rgb(87.319946%, 87.319946%, 87.319946%)" offset="0.640625"/><stop stop-opacity="1" stop-color="rgb(87.593079%, 87.593079%, 87.593079%)" offset="0.648438"/><stop stop-opacity="1" stop-color="rgb(87.866211%, 87.866211%, 87.866211%)" offset="0.65625"/><stop stop-opacity="1" stop-color="rgb(88.137817%, 88.137817%, 88.137817%)" offset="0.664062"/><stop stop-opacity="1" stop-color="rgb(88.41095%, 88.41095%, 88.41095%)" offset="0.671875"/><stop stop-opacity="1" stop-color="rgb(88.684082%, 88.684082%, 88.684082%)" offset="0.679687"/><stop stop-opacity="1" stop-color="rgb(88.955688%, 88.955688%, 88.955688%)" offset="0.6875"/><stop stop-opacity="1" stop-color="rgb(89.228821%, 89.228821%, 89.228821%)" offset="0.695313"/><stop stop-opacity="1" stop-color="rgb(89.501953%, 89.501953%, 89.501953%)" offset="0.703125"/><stop stop-opacity="1" stop-color="rgb(89.77356%, 89.77356%, 89.77356%)" offset="0.710938"/><stop stop-opacity="1" stop-color="rgb(90.046692%, 90.046692%, 90.046692%)" offset="0.71875"/><stop stop-opacity="1" stop-color="rgb(90.319824%, 90.319824%, 90.319824%)" offset="0.726562"/><stop stop-opacity="1" stop-color="rgb(90.591431%, 90.591431%, 90.591431%)" offset="0.734375"/><stop stop-opacity="1" stop-color="rgb(90.864563%, 90.864563%, 90.864563%)" offset="0.742188"/><stop stop-opacity="1" stop-color="rgb(91.137695%, 91.137695%, 91.137695%)" offset="0.75"/><stop stop-opacity="1" stop-color="rgb(91.409302%, 91.409302%, 91.409302%)" offset="0.757812"/><stop stop-opacity="1" stop-color="rgb(91.682434%, 91.682434%, 91.682434%)" offset="0.765625"/><stop stop-opacity="1" stop-color="rgb(91.955566%, 91.955566%, 91.955566%)" offset="0.773438"/><stop stop-opacity="1" stop-color="rgb(92.228699%, 92.228699%, 92.228699%)" offset="0.78125"/><stop stop-opacity="1" stop-color="rgb(92.500305%, 92.500305%, 92.500305%)" offset="0.789062"/><stop stop-opacity="1" stop-color="rgb(92.773438%, 92.773438%, 92.773438%)" offset="0.796875"/><stop stop-opacity="1" stop-color="rgb(93.04657%, 93.04657%, 93.04657%)" offset="0.804687"/><stop stop-opacity="1" stop-color="rgb(93.318176%, 93.318176%, 93.318176%)" offset="0.8125"/><stop stop-opacity="1" stop-color="rgb(93.591309%, 93.591309%, 93.591309%)" offset="0.820313"/><stop stop-opacity="1" stop-color="rgb(93.864441%, 93.864441%, 93.864441%)" offset="0.828125"/><stop stop-opacity="1" stop-color="rgb(94.136047%, 94.136047%, 94.136047%)" offset="0.835938"/><stop stop-opacity="1" stop-color="rgb(94.40918%, 94.40918%, 94.40918%)" offset="0.84375"/><stop stop-opacity="1" stop-color="rgb(94.682312%, 94.682312%, 94.682312%)" offset="0.851562"/><stop stop-opacity="1" stop-color="rgb(94.953918%, 94.953918%, 94.953918%)" offset="0.859375"/><stop stop-opacity="1" stop-color="rgb(95.227051%, 95.227051%, 95.227051%)" offset="0.867188"/><stop stop-opacity="1" stop-color="rgb(95.500183%, 95.500183%, 95.500183%)" offset="0.875"/><stop stop-opacity="1" stop-color="rgb(95.77179%, 95.77179%, 95.77179%)" offset="0.882812"/><stop stop-opacity="1" stop-color="rgb(96.044922%, 96.044922%, 96.044922%)" offset="0.890625"/><stop stop-opacity="1" stop-color="rgb(96.318054%, 96.318054%, 96.318054%)" offset="0.898438"/><stop stop-opacity="1" stop-color="rgb(96.591187%, 96.591187%, 96.591187%)" offset="0.90625"/><stop stop-opacity="1" stop-color="rgb(96.862793%, 96.862793%, 96.862793%)" offset="0.914062"/><stop stop-opacity="1" stop-color="rgb(97.135925%, 97.135925%, 97.135925%)" offset="0.921875"/><stop stop-opacity="1" stop-color="rgb(97.409058%, 97.409058%, 97.409058%)" offset="0.929687"/><stop stop-opacity="1" stop-color="rgb(97.680664%, 97.680664%, 97.680664%)" offset="0.9375"/><stop stop-opacity="1" stop-color="rgb(97.953796%, 97.953796%, 97.953796%)" offset="0.945313"/><stop stop-opacity="1" stop-color="rgb(98.226929%, 98.226929%, 98.226929%)" offset="0.953125"/><stop stop-opacity="1" stop-color="rgb(98.498535%, 98.498535%, 98.498535%)" offset="0.960938"/><stop stop-opacity="1" stop-color="rgb(98.771667%, 98.771667%, 98.771667%)" offset="0.96875"/><stop stop-opacity="1" stop-color="rgb(99.0448%, 99.0448%, 99.0448%)" offset="0.976562"/><stop stop-opacity="1" stop-color="rgb(99.316406%, 99.316406%, 99.316406%)" offset="0.984375"/><stop stop-opacity="1" stop-color="rgb(99.589539%, 99.589539%, 99.589539%)" offset="0.992188"/><stop stop-opacity="1" stop-color="rgb(99.862671%, 99.862671%, 99.862671%)" offset="1"/></linearGradient><clipPath id="4ebdd06b46"><rect x="0" width="109" y="0" height="109"/></clipPath><clipPath id="221acb25c0"><path d="M 752.5 86.085938 L 860.492188 86.085938 L 860.492188 194.078125 L 752.5 194.078125 Z M 752.5 86.085938 " clip-rule="nonzero"/></clipPath><clipPath id="84c2aaec99"><path d="M 806.496094 86.085938 C 776.671875 86.085938 752.5 110.261719 752.5 140.082031 C 752.5 169.902344 776.671875 194.078125 806.496094 194.078125 C 836.316406 194.078125 860.492188 169.902344 860.492188 140.082031 C 860.492188 110.261719 836.316406 86.085938 806.496094 86.085938 Z M 806.496094 86.085938 " clip-rule="nonzero"/></clipPath><clipPath id="88e0a116c0"><path d="M 0.5 0.0859375 L 108.492188 0.0859375 L 108.492188 108.078125 L 0.5 108.078125 Z M 0.5 0.0859375 " clip-rule="nonzero"/></clipPath><clipPath id="337c95f726"><path d="M 54.496094 0.0859375 C 24.671875 0.0859375 0.5 24.261719 0.5 54.082031 C 0.5 83.902344 24.671875 108.078125 54.496094 108.078125 C 84.316406 108.078125 108.492188 83.902344 108.492188 54.082031 C 108.492188 24.261719 84.316406 0.0859375 54.496094 0.0859375 Z M 54.496094 0.0859375 " clip-rule="nonzero"/></clipPath><linearGradient x1="-0.000000000000227374" gradientTransform="matrix(0.421846, 0, 0, 0.421846, 0.49864, 0.085478)" y1="128" x2="255.999977" gradientUnits="userSpaceOnUse" y2="128" id="a7fcc2a3c7"><stop stop-opacity="1" stop-color="rgb(65.098572%, 65.098572%, 65.098572%)" offset="0"/><stop stop-opacity="1" stop-color="rgb(65.234375%, 65.234375%, 65.234375%)" offset="0.0078125"/><stop stop-opacity="1" stop-color="rgb(65.507507%, 65.507507%, 65.507507%)" offset="0.015625"/><stop stop-opacity="1" stop-color="rgb(65.78064%, 65.78064%, 65.78064%)" offset="0.0234375"/><stop stop-opacity="1" stop-color="rgb(66.052246%, 66.052246%, 66.052246%)" offset="0.03125"/><stop stop-opacity="1" stop-color="rgb(66.325378%, 66.325378%, 66.325378%)" offset="0.0390625"/><stop stop-opacity="1" stop-color="rgb(66.598511%, 66.598511%, 66.598511%)" offset="0.046875"/><stop stop-opacity="1" stop-color="rgb(66.871643%, 66.871643%, 66.871643%)" offset="0.0546875"/><stop stop-opacity="1" stop-color="rgb(67.14325%, 67.14325%, 67.14325%)" offset="0.0625"/><stop stop-opacity="1" stop-color="rgb(67.416382%, 67.416382%, 67.416382%)" offset="0.0703125"/><stop stop-opacity="1" stop-color="rgb(67.689514%, 67.689514%, 67.689514%)" offset="0.078125"/><stop stop-opacity="1" stop-color="rgb(67.961121%, 67.961121%, 67.961121%)" offset="0.0859375"/><stop stop-opacity="1" stop-color="rgb(68.234253%, 68.234253%, 68.234253%)" offset="0.09375"/><stop stop-opacity="1" stop-color="rgb(68.507385%, 68.507385%, 68.507385%)" offset="0.101563"/><stop stop-opacity="1" stop-color="rgb(68.778992%, 68.778992%, 68.778992%)" offset="0.109375"/><stop stop-opacity="1" stop-color="rgb(69.052124%, 69.052124%, 69.052124%)" offset="0.117187"/><stop stop-opacity="1" stop-color="rgb(69.325256%, 69.325256%, 69.325256%)" offset="0.125"/><stop stop-opacity="1" stop-color="rgb(69.596863%, 69.596863%, 69.596863%)" offset="0.132812"/><stop stop-opacity="1" stop-color="rgb(69.869995%, 69.869995%, 69.869995%)" offset="0.140625"/><stop stop-opacity="1" stop-color="rgb(70.143127%, 70.143127%, 70.143127%)" offset="0.148438"/><stop stop-opacity="1" stop-color="rgb(70.41626%, 70.41626%, 70.41626%)" offset="0.15625"/><stop stop-opacity="1" stop-color="rgb(70.687866%, 70.687866%, 70.687866%)" offset="0.164062"/><stop stop-opacity="1" stop-color="rgb(70.960999%, 70.960999%, 70.960999%)" offset="0.171875"/><stop stop-opacity="1" stop-color="rgb(71.234131%, 71.234131%, 71.234131%)" offset="0.179688"/><stop stop-opacity="1" stop-color="rgb(71.505737%, 71.505737%, 71.505737%)" offset="0.1875"/><stop stop-opacity="1" stop-color="rgb(71.77887%, 71.77887%, 71.77887%)" offset="0.195312"/><stop stop-opacity="1" stop-color="rgb(72.052002%, 72.052002%, 72.052002%)" offset="0.203125"/><stop stop-opacity="1" stop-color="rgb(72.323608%, 72.323608%, 72.323608%)" offset="0.210938"/><stop stop-opacity="1" stop-color="rgb(72.596741%, 72.596741%, 72.596741%)" offset="0.21875"/><stop stop-opacity="1" stop-color="rgb(72.869873%, 72.869873%, 72.869873%)" offset="0.226562"/><stop stop-opacity="1" stop-color="rgb(73.141479%, 73.141479%, 73.141479%)" offset="0.234375"/><stop stop-opacity="1" stop-color="rgb(73.414612%, 73.414612%, 73.414612%)" offset="0.242188"/><stop stop-opacity="1" stop-color="rgb(73.687744%, 73.687744%, 73.687744%)" offset="0.25"/><stop stop-opacity="1" stop-color="rgb(73.959351%, 73.959351%, 73.959351%)" offset="0.257812"/><stop stop-opacity="1" stop-color="rgb(74.232483%, 74.232483%, 74.232483%)" offset="0.265625"/><stop stop-opacity="1" stop-color="rgb(74.505615%, 74.505615%, 74.505615%)" offset="0.273438"/><stop stop-opacity="1" stop-color="rgb(74.778748%, 74.778748%, 74.778748%)" offset="0.28125"/><stop stop-opacity="1" stop-color="rgb(75.050354%, 75.050354%, 75.050354%)" offset="0.289063"/><stop stop-opacity="1" stop-color="rgb(75.323486%, 75.323486%, 75.323486%)" offset="0.296875"/><stop stop-opacity="1" stop-color="rgb(75.596619%, 75.596619%, 75.596619%)" offset="0.304688"/><stop stop-opacity="1" stop-color="rgb(75.868225%, 75.868225%, 75.868225%)" offset="0.3125"/><stop stop-opacity="1" stop-color="rgb(76.141357%, 76.141357%, 76.141357%)" offset="0.320312"/><stop stop-opacity="1" stop-color="rgb(76.41449%, 76.41449%, 76.41449%)" offset="0.328125"/><stop stop-opacity="1" stop-color="rgb(76.686096%, 76.686096%, 76.686096%)" offset="0.335937"/><stop stop-opacity="1" stop-color="rgb(76.959229%, 76.959229%, 76.959229%)" offset="0.34375"/><stop stop-opacity="1" stop-color="rgb(77.232361%, 77.232361%, 77.232361%)" offset="0.351562"/><stop stop-opacity="1" stop-color="rgb(77.503967%, 77.503967%, 77.503967%)" offset="0.359375"/><stop stop-opacity="1" stop-color="rgb(77.7771%, 77.7771%, 77.7771%)" offset="0.367188"/><stop stop-opacity="1" stop-color="rgb(78.050232%, 78.050232%, 78.050232%)" offset="0.375"/><stop stop-opacity="1" stop-color="rgb(78.321838%, 78.321838%, 78.321838%)" offset="0.382812"/><stop stop-opacity="1" stop-color="rgb(78.594971%, 78.594971%, 78.594971%)" offset="0.390625"/><stop stop-opacity="1" stop-color="rgb(78.868103%, 78.868103%, 78.868103%)" offset="0.398438"/><stop stop-opacity="1" stop-color="rgb(79.141235%, 79.141235%, 79.141235%)" offset="0.40625"/><stop stop-opacity="1" stop-color="rgb(79.412842%, 79.412842%, 79.412842%)" offset="0.414063"/><stop stop-opacity="1" stop-color="rgb(79.685974%, 79.685974%, 79.685974%)" offset="0.421875"/><stop stop-opacity="1" stop-color="rgb(79.959106%, 79.959106%, 79.959106%)" offset="0.429688"/><stop stop-opacity="1" stop-color="rgb(80.230713%, 80.230713%, 80.230713%)" offset="0.4375"/><stop stop-opacity="1" stop-color="rgb(80.503845%, 80.503845%, 80.503845%)" offset="0.445312"/><stop stop-opacity="1" stop-color="rgb(80.776978%, 80.776978%, 80.776978%)" offset="0.453125"/><stop stop-opacity="1" stop-color="rgb(81.048584%, 81.048584%, 81.048584%)" offset="0.460937"/><stop stop-opacity="1" stop-color="rgb(81.321716%, 81.321716%, 81.321716%)" offset="0.46875"/><stop stop-opacity="1" stop-color="rgb(81.594849%, 81.594849%, 81.594849%)" offset="0.476562"/><stop stop-opacity="1" stop-color="rgb(81.866455%, 81.866455%, 81.866455%)" offset="0.484375"/><stop stop-opacity="1" stop-color="rgb(82.139587%, 82.139587%, 82.139587%)" offset="0.492188"/><stop stop-opacity="1" stop-color="rgb(82.41272%, 82.41272%, 82.41272%)" offset="0.5"/><stop stop-opacity="1" stop-color="rgb(82.684326%, 82.684326%, 82.684326%)" offset="0.507812"/><stop stop-opacity="1" stop-color="rgb(82.957458%, 82.957458%, 82.957458%)" offset="0.515625"/><stop stop-opacity="1" stop-color="rgb(83.230591%, 83.230591%, 83.230591%)" offset="0.523438"/><stop stop-opacity="1" stop-color="rgb(83.503723%, 83.503723%, 83.503723%)" offset="0.53125"/><stop stop-opacity="1" stop-color="rgb(83.77533%, 83.77533%, 83.77533%)" offset="0.539062"/><stop stop-opacity="1" stop-color="rgb(84.048462%, 84.048462%, 84.048462%)" offset="0.546875"/><stop stop-opacity="1" stop-color="rgb(84.321594%, 84.321594%, 84.321594%)" offset="0.554688"/><stop stop-opacity="1" stop-color="rgb(84.593201%, 84.593201%, 84.593201%)" offset="0.5625"/><stop stop-opacity="1" stop-color="rgb(84.866333%, 84.866333%, 84.866333%)" offset="0.570313"/><stop stop-opacity="1" stop-color="rgb(85.139465%, 85.139465%, 85.139465%)" offset="0.578125"/><stop stop-opacity="1" stop-color="rgb(85.411072%, 85.411072%, 85.411072%)" offset="0.585938"/><stop stop-opacity="1" stop-color="rgb(85.684204%, 85.684204%, 85.684204%)" offset="0.59375"/><stop stop-opacity="1" stop-color="rgb(85.957336%, 85.957336%, 85.957336%)" offset="0.601563"/><stop stop-opacity="1" stop-color="rgb(86.228943%, 86.228943%, 86.228943%)" offset="0.609375"/><stop stop-opacity="1" stop-color="rgb(86.502075%, 86.502075%, 86.502075%)" offset="0.617188"/><stop stop-opacity="1" stop-color="rgb(86.775208%, 86.775208%, 86.775208%)" offset="0.625"/><stop stop-opacity="1" stop-color="rgb(87.046814%, 87.046814%, 87.046814%)" offset="0.632812"/><stop stop-opacity="1" stop-color="rgb(87.319946%, 87.319946%, 87.319946%)" offset="0.640625"/><stop stop-opacity="1" stop-color="rgb(87.593079%, 87.593079%, 87.593079%)" offset="0.648437"/><stop stop-opacity="1" stop-color="rgb(87.866211%, 87.866211%, 87.866211%)" offset="0.65625"/><stop stop-opacity="1" stop-color="rgb(88.137817%, 88.137817%, 88.137817%)" offset="0.664062"/><stop stop-opacity="1" stop-color="rgb(88.41095%, 88.41095%, 88.41095%)" offset="0.671875"/><stop stop-opacity="1" stop-color="rgb(88.684082%, 88.684082%, 88.684082%)" offset="0.679687"/><stop stop-opacity="1" stop-color="rgb(88.955688%, 88.955688%, 88.955688%)" offset="0.6875"/><stop stop-opacity="1" stop-color="rgb(89.228821%, 89.228821%, 89.228821%)" offset="0.695312"/><stop stop-opacity="1" stop-color="rgb(89.501953%, 89.501953%, 89.501953%)" offset="0.703125"/><stop stop-opacity="1" stop-color="rgb(89.77356%, 89.77356%, 89.77356%)" offset="0.710938"/><stop stop-opacity="1" stop-color="rgb(90.046692%, 90.046692%, 90.046692%)" offset="0.71875"/><stop stop-opacity="1" stop-color="rgb(90.319824%, 90.319824%, 90.319824%)" offset="0.726562"/><stop stop-opacity="1" stop-color="rgb(90.591431%, 90.591431%, 90.591431%)" offset="0.734375"/><stop stop-opacity="1" stop-color="rgb(90.864563%, 90.864563%, 90.864563%)" offset="0.742188"/><stop stop-opacity="1" stop-color="rgb(91.137695%, 91.137695%, 91.137695%)" offset="0.75"/><stop stop-opacity="1" stop-color="rgb(91.409302%, 91.409302%, 91.409302%)" offset="0.757812"/><stop stop-opacity="1" stop-color="rgb(91.682434%, 91.682434%, 91.682434%)" offset="0.765625"/><stop stop-opacity="1" stop-color="rgb(91.955566%, 91.955566%, 91.955566%)" offset="0.773438"/><stop stop-opacity="1" stop-color="rgb(92.228699%, 92.228699%, 92.228699%)" offset="0.78125"/><stop stop-opacity="1" stop-color="rgb(92.500305%, 92.500305%, 92.500305%)" offset="0.789062"/><stop stop-opacity="1" stop-color="rgb(92.773438%, 92.773438%, 92.773438%)" offset="0.796875"/><stop stop-opacity="1" stop-color="rgb(93.04657%, 93.04657%, 93.04657%)" offset="0.804688"/><stop stop-opacity="1" stop-color="rgb(93.318176%, 93.318176%, 93.318176%)" offset="0.8125"/><stop stop-opacity="1" stop-color="rgb(93.591309%, 93.591309%, 93.591309%)" offset="0.820313"/><stop stop-opacity="1" stop-color="rgb(93.864441%, 93.864441%, 93.864441%)" offset="0.828125"/><stop stop-opacity="1" stop-color="rgb(94.136047%, 94.136047%, 94.136047%)" offset="0.835938"/><stop stop-opacity="1" stop-color="rgb(94.40918%, 94.40918%, 94.40918%)" offset="0.84375"/><stop stop-opacity="1" stop-color="rgb(94.682312%, 94.682312%, 94.682312%)" offset="0.851563"/><stop stop-opacity="1" stop-color="rgb(94.953918%, 94.953918%, 94.953918%)" offset="0.859375"/><stop stop-opacity="1" stop-color="rgb(95.227051%, 95.227051%, 95.227051%)" offset="0.867188"/><stop stop-opacity="1" stop-color="rgb(95.500183%, 95.500183%, 95.500183%)" offset="0.875"/><stop stop-opacity="1" stop-color="rgb(95.77179%, 95.77179%, 95.77179%)" offset="0.882812"/><stop stop-opacity="1" stop-color="rgb(96.044922%, 96.044922%, 96.044922%)" offset="0.890625"/><stop stop-opacity="1" stop-color="rgb(96.318054%, 96.318054%, 96.318054%)" offset="0.898437"/><stop stop-opacity="1" stop-color="rgb(96.591187%, 96.591187%, 96.591187%)" offset="0.90625"/><stop stop-opacity="1" stop-color="rgb(96.862793%, 96.862793%, 96.862793%)" offset="0.914062"/><stop stop-opacity="1" stop-color="rgb(97.135925%, 97.135925%, 97.135925%)" offset="0.921875"/><stop stop-opacity="1" stop-color="rgb(97.409058%, 97.409058%, 97.409058%)" offset="0.929687"/><stop stop-opacity="1" stop-color="rgb(97.680664%, 97.680664%, 97.680664%)" offset="0.9375"/><stop stop-opacity="1" stop-color="rgb(97.953796%, 97.953796%, 97.953796%)" offset="0.945312"/><stop stop-opacity="1" stop-color="rgb(98.226929%, 98.226929%, 98.226929%)" offset="0.953125"/><stop stop-opacity="1" stop-color="rgb(98.498535%, 98.498535%, 98.498535%)" offset="0.960938"/><stop stop-opacity="1" stop-color="rgb(98.771667%, 98.771667%, 98.771667%)" offset="0.96875"/><stop stop-opacity="1" stop-color="rgb(99.0448%, 99.0448%, 99.0448%)" offset="0.976562"/><stop stop-opacity="1" stop-color="rgb(99.316406%, 99.316406%, 99.316406%)" offset="0.984375"/><stop stop-opacity="1" stop-color="rgb(99.589539%, 99.589539%, 99.589539%)" offset="0.992188"/><stop stop-opacity="1" stop-color="rgb(99.862671%, 99.862671%, 99.862671%)" offset="1"/></linearGradient><clipPath id="34759c8325"><rect x="0" width="109" y="0" height="109"/></clipPath><clipPath id="15b7ef36f3"><path d="M 1269.007812 999.980469 L 1377 999.980469 L 1377 1107.972656 L 1269.007812 1107.972656 Z M 1269.007812 999.980469 " clip-rule="nonzero"/></clipPath><clipPath id="8ca4a9536f"><path d="M 1323.003906 999.980469 C 1293.183594 999.980469 1269.007812 1024.15625 1269.007812 1053.976562 C 1269.007812 1083.796875 1293.183594 1107.972656 1323.003906 1107.972656 C 1352.824219 1107.972656 1377 1083.796875 1377 1053.976562 C 1377 1024.15625 1352.824219 999.980469 1323.003906 999.980469 Z M 1323.003906 999.980469 " clip-rule="nonzero"/></clipPath><clipPath id="524e79480c"><path d="M 0.0078125 0.980469 L 108 0.980469 L 108 108.972656 L 0.0078125 108.972656 Z M 0.0078125 0.980469 " clip-rule="nonzero"/></clipPath><clipPath id="be1e32d550"><path d="M 54.003906 0.980469 C 24.183594 0.980469 0.0078125 25.15625 0.0078125 54.976562 C 0.0078125 84.796875 24.183594 108.972656 54.003906 108.972656 C 83.824219 108.972656 108 84.796875 108 54.976562 C 108 25.15625 83.824219 0.980469 54.003906 0.980469 Z M 54.003906 0.980469 " clip-rule="nonzero"/></clipPath><linearGradient x1="0.00000177506" gradientTransform="matrix(0.421846, 0, 0, 0.421846, 0.0069553, 0.980402)" y1="128" x2="255.999832" gradientUnits="userSpaceOnUse" y2="128" id="457eac0cfa"><stop stop-opacity="1" stop-color="rgb(65.098572%, 65.098572%, 65.098572%)" offset="0"/><stop stop-opacity="1" stop-color="rgb(65.234375%, 65.234375%, 65.234375%)" offset="0.0078125"/><stop stop-opacity="1" stop-color="rgb(65.507507%, 65.507507%, 65.507507%)" offset="0.015625"/><stop stop-opacity="1" stop-color="rgb(65.78064%, 65.78064%, 65.78064%)" offset="0.0234375"/><stop stop-opacity="1" stop-color="rgb(66.052246%, 66.052246%, 66.052246%)" offset="0.03125"/><stop stop-opacity="1" stop-color="rgb(66.325378%, 66.325378%, 66.325378%)" offset="0.0390625"/><stop stop-opacity="1" stop-color="rgb(66.598511%, 66.598511%, 66.598511%)" offset="0.046875"/><stop stop-opacity="1" stop-color="rgb(66.871643%, 66.871643%, 66.871643%)" offset="0.0546875"/><stop stop-opacity="1" stop-color="rgb(67.14325%, 67.14325%, 67.14325%)" offset="0.0625"/><stop stop-opacity="1" stop-color="rgb(67.416382%, 67.416382%, 67.416382%)" offset="0.0703125"/><stop stop-opacity="1" stop-color="rgb(67.689514%, 67.689514%, 67.689514%)" offset="0.078125"/><stop stop-opacity="1" stop-color="rgb(67.961121%, 67.961121%, 67.961121%)" offset="0.0859375"/><stop stop-opacity="1" stop-color="rgb(68.234253%, 68.234253%, 68.234253%)" offset="0.09375"/><stop stop-opacity="1" stop-color="rgb(68.507385%, 68.507385%, 68.507385%)" offset="0.101562"/><stop stop-opacity="1" stop-color="rgb(68.778992%, 68.778992%, 68.778992%)" offset="0.109375"/><stop stop-opacity="1" stop-color="rgb(69.052124%, 69.052124%, 69.052124%)" offset="0.117188"/><stop stop-opacity="1" stop-color="rgb(69.325256%, 69.325256%, 69.325256%)" offset="0.125"/><stop stop-opacity="1" stop-color="rgb(69.596863%, 69.596863%, 69.596863%)" offset="0.132812"/><stop stop-opacity="1" stop-color="rgb(69.869995%, 69.869995%, 69.869995%)" offset="0.140625"/><stop stop-opacity="1" stop-color="rgb(70.143127%, 70.143127%, 70.143127%)" offset="0.148438"/><stop stop-opacity="1" stop-color="rgb(70.41626%, 70.41626%, 70.41626%)" offset="0.15625"/><stop stop-opacity="1" stop-color="rgb(70.687866%, 70.687866%, 70.687866%)" offset="0.164062"/><stop stop-opacity="1" stop-color="rgb(70.960999%, 70.960999%, 70.960999%)" offset="0.171875"/><stop stop-opacity="1" stop-color="rgb(71.234131%, 71.234131%, 71.234131%)" offset="0.179688"/><stop stop-opacity="1" stop-color="rgb(71.505737%, 71.505737%, 71.505737%)" offset="0.1875"/><stop stop-opacity="1" stop-color="rgb(71.77887%, 71.77887%, 71.77887%)" offset="0.195312"/><stop stop-opacity="1" stop-color="rgb(72.052002%, 72.052002%, 72.052002%)" offset="0.203125"/><stop stop-opacity="1" stop-color="rgb(72.323608%, 72.323608%, 72.323608%)" offset="0.210938"/><stop stop-opacity="1" stop-color="rgb(72.596741%, 72.596741%, 72.596741%)" offset="0.21875"/><stop stop-opacity="1" stop-color="rgb(72.869873%, 72.869873%, 72.869873%)" offset="0.226562"/><stop stop-opacity="1" stop-color="rgb(73.141479%, 73.141479%, 73.141479%)" offset="0.234375"/><stop stop-opacity="1" stop-color="rgb(73.414612%, 73.414612%, 73.414612%)" offset="0.242188"/><stop stop-opacity="1" stop-color="rgb(73.687744%, 73.687744%, 73.687744%)" offset="0.25"/><stop stop-opacity="1" stop-color="rgb(73.959351%, 73.959351%, 73.959351%)" offset="0.257813"/><stop stop-opacity="1" stop-color="rgb(74.232483%, 74.232483%, 74.232483%)" offset="0.265625"/><stop stop-opacity="1" stop-color="rgb(74.505615%, 74.505615%, 74.505615%)" offset="0.273437"/><stop stop-opacity="1" stop-color="rgb(74.778748%, 74.778748%, 74.778748%)" offset="0.28125"/><stop stop-opacity="1" stop-color="rgb(75.050354%, 75.050354%, 75.050354%)" offset="0.289063"/><stop stop-opacity="1" stop-color="rgb(75.323486%, 75.323486%, 75.323486%)" offset="0.296875"/><stop stop-opacity="1" stop-color="rgb(75.596619%, 75.596619%, 75.596619%)" offset="0.304687"/><stop stop-opacity="1" stop-color="rgb(75.868225%, 75.868225%, 75.868225%)" offset="0.3125"/><stop stop-opacity="1" stop-color="rgb(76.141357%, 76.141357%, 76.141357%)" offset="0.320313"/><stop stop-opacity="1" stop-color="rgb(76.41449%, 76.41449%, 76.41449%)" offset="0.328125"/><stop stop-opacity="1" stop-color="rgb(76.686096%, 76.686096%, 76.686096%)" offset="0.335937"/><stop stop-opacity="1" stop-color="rgb(76.959229%, 76.959229%, 76.959229%)" offset="0.34375"/><stop stop-opacity="1" stop-color="rgb(77.232361%, 77.232361%, 77.232361%)" offset="0.351563"/><stop stop-opacity="1" stop-color="rgb(77.503967%, 77.503967%, 77.503967%)" offset="0.359375"/><stop stop-opacity="1" stop-color="rgb(77.7771%, 77.7771%, 77.7771%)" offset="0.367187"/><stop stop-opacity="1" stop-color="rgb(78.050232%, 78.050232%, 78.050232%)" offset="0.375"/><stop stop-opacity="1" stop-color="rgb(78.321838%, 78.321838%, 78.321838%)" offset="0.382813"/><stop stop-opacity="1" stop-color="rgb(78.594971%, 78.594971%, 78.594971%)" offset="0.390625"/><stop stop-opacity="1" stop-color="rgb(78.868103%, 78.868103%, 78.868103%)" offset="0.398437"/><stop stop-opacity="1" stop-color="rgb(79.141235%, 79.141235%, 79.141235%)" offset="0.40625"/><stop stop-opacity="1" stop-color="rgb(79.412842%, 79.412842%, 79.412842%)" offset="0.414063"/><stop stop-opacity="1" stop-color="rgb(79.685974%, 79.685974%, 79.685974%)" offset="0.421875"/><stop stop-opacity="1" stop-color="rgb(79.959106%, 79.959106%, 79.959106%)" offset="0.429687"/><stop stop-opacity="1" stop-color="rgb(80.230713%, 80.230713%, 80.230713%)" offset="0.4375"/><stop stop-opacity="1" stop-color="rgb(80.503845%, 80.503845%, 80.503845%)" offset="0.445313"/><stop stop-opacity="1" stop-color="rgb(80.776978%, 80.776978%, 80.776978%)" offset="0.453125"/><stop stop-opacity="1" stop-color="rgb(81.048584%, 81.048584%, 81.048584%)" offset="0.460937"/><stop stop-opacity="1" stop-color="rgb(81.321716%, 81.321716%, 81.321716%)" offset="0.46875"/><stop stop-opacity="1" stop-color="rgb(81.594849%, 81.594849%, 81.594849%)" offset="0.476563"/><stop stop-opacity="1" stop-color="rgb(81.866455%, 81.866455%, 81.866455%)" offset="0.484375"/><stop stop-opacity="1" stop-color="rgb(82.139587%, 82.139587%, 82.139587%)" offset="0.492187"/><stop stop-opacity="1" stop-color="rgb(82.41272%, 82.41272%, 82.41272%)" offset="0.5"/><stop stop-opacity="1" stop-color="rgb(82.684326%, 82.684326%, 82.684326%)" offset="0.507812"/><stop stop-opacity="1" stop-color="rgb(82.957458%, 82.957458%, 82.957458%)" offset="0.515625"/><stop stop-opacity="1" stop-color="rgb(83.230591%, 83.230591%, 83.230591%)" offset="0.523438"/><stop stop-opacity="1" stop-color="rgb(83.503723%, 83.503723%, 83.503723%)" offset="0.53125"/><stop stop-opacity="1" stop-color="rgb(83.77533%, 83.77533%, 83.77533%)" offset="0.539062"/><stop stop-opacity="1" stop-color="rgb(84.048462%, 84.048462%, 84.048462%)" offset="0.546875"/><stop stop-opacity="1" stop-color="rgb(84.321594%, 84.321594%, 84.321594%)" offset="0.554688"/><stop stop-opacity="1" stop-color="rgb(84.593201%, 84.593201%, 84.593201%)" offset="0.5625"/><stop stop-opacity="1" stop-color="rgb(84.866333%, 84.866333%, 84.866333%)" offset="0.570312"/><stop stop-opacity="1" stop-color="rgb(85.139465%, 85.139465%, 85.139465%)" offset="0.578125"/><stop stop-opacity="1" stop-color="rgb(85.411072%, 85.411072%, 85.411072%)" offset="0.585938"/><stop stop-opacity="1" stop-color="rgb(85.684204%, 85.684204%, 85.684204%)" offset="0.59375"/><stop stop-opacity="1" stop-color="rgb(85.957336%, 85.957336%, 85.957336%)" offset="0.601562"/><stop stop-opacity="1" stop-color="rgb(86.228943%, 86.228943%, 86.228943%)" offset="0.609375"/><stop stop-opacity="1" stop-color="rgb(86.502075%, 86.502075%, 86.502075%)" offset="0.617188"/><stop stop-opacity="1" stop-color="rgb(86.775208%, 86.775208%, 86.775208%)" offset="0.625"/><stop stop-opacity="1" stop-color="rgb(87.046814%, 87.046814%, 87.046814%)" offset="0.632812"/><stop stop-opacity="1" stop-color="rgb(87.319946%, 87.319946%, 87.319946%)" offset="0.640625"/><stop stop-opacity="1" stop-color="rgb(87.593079%, 87.593079%, 87.593079%)" offset="0.648438"/><stop stop-opacity="1" stop-color="rgb(87.866211%, 87.866211%, 87.866211%)" offset="0.65625"/><stop stop-opacity="1" stop-color="rgb(88.137817%, 88.137817%, 88.137817%)" offset="0.664062"/><stop stop-opacity="1" stop-color="rgb(88.41095%, 88.41095%, 88.41095%)" offset="0.671875"/><stop stop-opacity="1" stop-color="rgb(88.684082%, 88.684082%, 88.684082%)" offset="0.679688"/><stop stop-opacity="1" stop-color="rgb(88.955688%, 88.955688%, 88.955688%)" offset="0.6875"/><stop stop-opacity="1" stop-color="rgb(89.228821%, 89.228821%, 89.228821%)" offset="0.695312"/><stop stop-opacity="1" stop-color="rgb(89.501953%, 89.501953%, 89.501953%)" offset="0.703125"/><stop stop-opacity="1" stop-color="rgb(89.77356%, 89.77356%, 89.77356%)" offset="0.710938"/><stop stop-opacity="1" stop-color="rgb(90.046692%, 90.046692%, 90.046692%)" offset="0.71875"/><stop stop-opacity="1" stop-color="rgb(90.319824%, 90.319824%, 90.319824%)" offset="0.726562"/><stop stop-opacity="1" stop-color="rgb(90.591431%, 90.591431%, 90.591431%)" offset="0.734375"/><stop stop-opacity="1" stop-color="rgb(90.864563%, 90.864563%, 90.864563%)" offset="0.742188"/><stop stop-opacity="1" stop-color="rgb(91.137695%, 91.137695%, 91.137695%)" offset="0.75"/><stop stop-opacity="1" stop-color="rgb(91.409302%, 91.409302%, 91.409302%)" offset="0.757812"/><stop stop-opacity="1" stop-color="rgb(91.682434%, 91.682434%, 91.682434%)" offset="0.765625"/><stop stop-opacity="1" stop-color="rgb(91.955566%, 91.955566%, 91.955566%)" offset="0.773438"/><stop stop-opacity="1" stop-color="rgb(92.228699%, 92.228699%, 92.228699%)" offset="0.78125"/><stop stop-opacity="1" stop-color="rgb(92.500305%, 92.500305%, 92.500305%)" offset="0.789062"/><stop stop-opacity="1" stop-color="rgb(92.773438%, 92.773438%, 92.773438%)" offset="0.796875"/><stop stop-opacity="1" stop-color="rgb(93.04657%, 93.04657%, 93.04657%)" offset="0.804688"/><stop stop-opacity="1" stop-color="rgb(93.318176%, 93.318176%, 93.318176%)" offset="0.8125"/><stop stop-opacity="1" stop-color="rgb(93.591309%, 93.591309%, 93.591309%)" offset="0.820312"/><stop stop-opacity="1" stop-color="rgb(93.864441%, 93.864441%, 93.864441%)" offset="0.828125"/><stop stop-opacity="1" stop-color="rgb(94.136047%, 94.136047%, 94.136047%)" offset="0.835938"/><stop stop-opacity="1" stop-color="rgb(94.40918%, 94.40918%, 94.40918%)" offset="0.84375"/><stop stop-opacity="1" stop-color="rgb(94.682312%, 94.682312%, 94.682312%)" offset="0.851562"/><stop stop-opacity="1" stop-color="rgb(94.953918%, 94.953918%, 94.953918%)" offset="0.859375"/><stop stop-opacity="1" stop-color="rgb(95.227051%, 95.227051%, 95.227051%)" offset="0.867188"/><stop stop-opacity="1" stop-color="rgb(95.500183%, 95.500183%, 95.500183%)" offset="0.875"/><stop stop-opacity="1" stop-color="rgb(95.77179%, 95.77179%, 95.77179%)" offset="0.882812"/><stop stop-opacity="1" stop-color="rgb(96.044922%, 96.044922%, 96.044922%)" offset="0.890625"/><stop stop-opacity="1" stop-color="rgb(96.318054%, 96.318054%, 96.318054%)" offset="0.898438"/><stop stop-opacity="1" stop-color="rgb(96.591187%, 96.591187%, 96.591187%)" offset="0.90625"/><stop stop-opacity="1" stop-color="rgb(96.862793%, 96.862793%, 96.862793%)" offset="0.914062"/><stop stop-opacity="1" stop-color="rgb(97.135925%, 97.135925%, 97.135925%)" offset="0.921875"/><stop stop-opacity="1" stop-color="rgb(97.409058%, 97.409058%, 97.409058%)" offset="0.929688"/><stop stop-opacity="1" stop-color="rgb(97.680664%, 97.680664%, 97.680664%)" offset="0.9375"/><stop stop-opacity="1" stop-color="rgb(97.953796%, 97.953796%, 97.953796%)" offset="0.945312"/><stop stop-opacity="1" stop-color="rgb(98.226929%, 98.226929%, 98.226929%)" offset="0.953125"/><stop stop-opacity="1" stop-color="rgb(98.498535%, 98.498535%, 98.498535%)" offset="0.960938"/><stop stop-opacity="1" stop-color="rgb(98.771667%, 98.771667%, 98.771667%)" offset="0.96875"/><stop stop-opacity="1" stop-color="rgb(99.0448%, 99.0448%, 99.0448%)" offset="0.976562"/><stop stop-opacity="1" stop-color="rgb(99.316406%, 99.316406%, 99.316406%)" offset="0.984375"/><stop stop-opacity="1" stop-color="rgb(99.589539%, 99.589539%, 99.589539%)" offset="0.992188"/><stop stop-opacity="1" stop-color="rgb(99.862671%, 99.862671%, 99.862671%)" offset="1"/></linearGradient><clipPath id="12247a792d"><rect x="0" width="108" y="0" height="109"/></clipPath></defs><path fill="#000" d="M 624.566406 341.039062 C 453.351562 309.871094 317.964844 342.472656 263.996094 435.917969 C 223.726562 505.625 235.230469 598.070312 291.902344 696.859375 C 292.1875 697.355469 292.5 697.839844 292.835938 698.304688 C 293.167969 698.773438 293.527344 699.222656 293.902344 699.65625 C 294.28125 700.085938 294.683594 700.5 295.101562 700.894531 C 295.519531 701.285156 295.957031 701.65625 296.414062 702.007812 C 296.867188 702.359375 297.339844 702.6875 297.828125 702.988281 C 298.316406 703.292969 298.816406 703.574219 299.332031 703.828125 C 299.847656 704.085938 300.371094 704.3125 300.910156 704.515625 C 301.449219 704.722656 301.992188 704.898438 302.550781 705.046875 C 303.105469 705.199219 303.664062 705.320312 304.230469 705.414062 C 304.796875 705.511719 305.367188 705.578125 305.941406 705.617188 C 306.515625 705.65625 307.089844 705.667969 307.664062 705.652344 C 308.238281 705.636719 308.8125 705.589844 309.378906 705.515625 C 309.949219 705.445312 310.515625 705.34375 311.078125 705.214844 C 311.636719 705.085938 312.191406 704.933594 312.734375 704.75 C 313.28125 704.566406 313.816406 704.359375 314.339844 704.125 C 314.863281 703.890625 315.375 703.628906 315.875 703.347656 C 316.371094 703.058594 316.855469 702.746094 317.324219 702.414062 C 317.789062 702.078125 318.238281 701.722656 318.671875 701.34375 C 319.105469 700.964844 319.519531 700.566406 319.910156 700.148438 C 320.304688 699.726562 320.675781 699.292969 321.027344 698.835938 C 321.378906 698.378906 321.703125 697.910156 322.007812 697.421875 C 322.3125 696.933594 322.59375 696.433594 322.847656 695.917969 C 323.105469 695.402344 323.332031 694.878906 323.535156 694.339844 C 323.742188 693.800781 323.917969 693.257812 324.066406 692.703125 C 324.21875 692.148438 324.339844 691.585938 324.4375 691.019531 C 324.53125 690.453125 324.597656 689.882812 324.636719 689.308594 C 324.675781 688.738281 324.6875 688.164062 324.671875 687.589844 C 324.65625 687.015625 324.609375 686.441406 324.539062 685.871094 C 324.464844 685.300781 324.363281 684.738281 324.234375 684.175781 C 324.109375 683.617188 323.953125 683.066406 323.769531 682.519531 C 323.585938 681.976562 323.378906 681.441406 323.144531 680.914062 C 322.910156 680.390625 322.648438 679.878906 322.363281 679.378906 C 271.324219 590.355469 261.398438 510.597656 294.398438 453.4375 C 339.441406 375.832031 459.984375 346.730469 618.28125 375.542969 C 618.847656 375.644531 619.414062 375.71875 619.988281 375.765625 C 620.5625 375.808594 621.132812 375.828125 621.707031 375.816406 C 622.28125 375.804688 622.855469 375.765625 623.425781 375.699219 C 623.996094 375.632812 624.5625 375.539062 625.125 375.417969 C 625.683594 375.292969 626.238281 375.144531 626.785156 374.96875 C 627.332031 374.792969 627.867188 374.589844 628.394531 374.363281 C 628.921875 374.132812 629.4375 373.878906 629.9375 373.601562 C 630.441406 373.320312 630.929688 373.019531 631.398438 372.691406 C 631.871094 372.363281 632.328125 372.015625 632.765625 371.644531 C 633.203125 371.273438 633.621094 370.882812 634.023438 370.46875 C 634.421875 370.054688 634.800781 369.625 635.160156 369.175781 C 635.515625 368.726562 635.851562 368.261719 636.164062 367.777344 C 636.476562 367.296875 636.761719 366.800781 637.027344 366.289062 C 637.289062 365.78125 637.527344 365.257812 637.738281 364.726562 C 637.953125 364.191406 638.136719 363.648438 638.296875 363.097656 C 638.457031 362.546875 638.589844 361.988281 638.691406 361.421875 C 638.792969 360.859375 638.867188 360.289062 638.914062 359.714844 C 638.957031 359.144531 638.976562 358.570312 638.964844 357.996094 C 638.953125 357.421875 638.914062 356.851562 638.847656 356.28125 C 638.78125 355.710938 638.6875 355.144531 638.566406 354.582031 C 638.441406 354.023438 638.292969 353.46875 638.117188 352.921875 C 637.941406 352.375 637.738281 351.839844 637.511719 351.3125 C 637.28125 350.785156 637.027344 350.273438 636.746094 349.769531 C 636.46875 349.269531 636.164062 348.78125 635.839844 348.308594 C 635.511719 347.835938 635.164062 347.382812 634.792969 346.945312 C 634.417969 346.503906 634.027344 346.085938 633.617188 345.6875 C 633.203125 345.289062 632.773438 344.910156 632.324219 344.550781 C 631.875 344.195312 631.40625 343.859375 630.925781 343.546875 C 630.441406 343.234375 629.945312 342.949219 629.4375 342.683594 C 628.925781 342.421875 628.402344 342.183594 627.871094 341.972656 C 627.335938 341.757812 626.792969 341.574219 626.242188 341.414062 C 625.691406 341.253906 625.132812 341.125 624.566406 341.019531 Z M 380.9375 816.746094 C 450.179688 892.796875 540.117188 964.140625 642.707031 1023.351562 C 891.289062 1166.714844 1155.695312 1205.1875 1285.84375 1116.367188 C 1286.316406 1116.042969 1286.773438 1115.695312 1287.214844 1115.324219 C 1287.652344 1114.953125 1288.074219 1114.566406 1288.476562 1114.152344 C 1288.878906 1113.742188 1289.257812 1113.3125 1289.617188 1112.863281 C 1289.976562 1112.417969 1290.3125 1111.953125 1290.628906 1111.46875 C 1290.941406 1110.988281 1291.230469 1110.492188 1291.496094 1109.984375 C 1291.761719 1109.476562 1292.003906 1108.953125 1292.21875 1108.421875 C 1292.429688 1107.886719 1292.621094 1107.34375 1292.78125 1106.792969 C 1292.941406 1106.242188 1293.074219 1105.683594 1293.183594 1105.121094 C 1293.289062 1104.554688 1293.367188 1103.988281 1293.417969 1103.414062 C 1293.46875 1102.84375 1293.492188 1102.269531 1293.488281 1101.695312 C 1293.480469 1101.121094 1293.449219 1100.546875 1293.386719 1099.976562 C 1293.324219 1099.402344 1293.238281 1098.835938 1293.121094 1098.273438 C 1293.003906 1097.710938 1292.859375 1097.15625 1292.6875 1096.609375 C 1292.515625 1096.058594 1292.320312 1095.519531 1292.09375 1094.992188 C 1291.871094 1094.464844 1291.621094 1093.945312 1291.347656 1093.441406 C 1291.070312 1092.9375 1290.773438 1092.445312 1290.449219 1091.972656 C 1290.125 1091.496094 1289.777344 1091.042969 1289.40625 1090.601562 C 1289.039062 1090.160156 1288.648438 1089.742188 1288.234375 1089.339844 C 1287.824219 1088.9375 1287.394531 1088.558594 1286.945312 1088.199219 C 1286.496094 1087.839844 1286.03125 1087.503906 1285.550781 1087.1875 C 1285.070312 1086.875 1284.574219 1086.585938 1284.066406 1086.320312 C 1283.554688 1086.054688 1283.035156 1085.816406 1282.5 1085.601562 C 1281.96875 1085.386719 1281.425781 1085.199219 1280.875 1085.035156 C 1280.320312 1084.875 1279.761719 1084.742188 1279.199219 1084.636719 C 1278.632812 1084.527344 1278.066406 1084.449219 1277.492188 1084.398438 C 1276.921875 1084.347656 1276.347656 1084.324219 1275.773438 1084.332031 C 1275.195312 1084.335938 1274.625 1084.371094 1274.054688 1084.429688 C 1273.480469 1084.492188 1272.914062 1084.582031 1272.351562 1084.699219 C 1271.789062 1084.816406 1271.234375 1084.957031 1270.683594 1085.128906 C 1270.136719 1085.300781 1269.597656 1085.5 1269.066406 1085.722656 C 1268.539062 1085.945312 1268.023438 1086.195312 1267.515625 1086.472656 C 1267.011719 1086.746094 1266.523438 1087.042969 1266.046875 1087.367188 C 1149.410156 1166.855469 898.230469 1130.46875 660.046875 993.121094 C 560.546875 935.695312 473.433594 866.601562 406.691406 793.292969 C 406.304688 792.867188 405.898438 792.464844 405.46875 792.082031 C 405.042969 791.695312 404.597656 791.335938 404.132812 790.992188 C 403.671875 790.652344 403.191406 790.335938 402.699219 790.042969 C 402.203125 789.75 401.695312 789.480469 401.175781 789.234375 C 400.65625 788.992188 400.125 788.773438 399.582031 788.582031 C 399.039062 788.390625 398.492188 788.226562 397.933594 788.085938 C 397.375 787.949219 396.8125 787.839844 396.242188 787.753906 C 395.671875 787.671875 395.101562 787.617188 394.527344 787.589844 C 393.953125 787.5625 393.378906 787.5625 392.804688 787.59375 C 392.230469 787.621094 391.660156 787.679688 391.089844 787.765625 C 390.523438 787.851562 389.960938 787.960938 389.402344 788.101562 C 388.84375 788.242188 388.292969 788.410156 387.753906 788.605469 C 387.210938 788.800781 386.683594 789.019531 386.164062 789.265625 C 385.644531 789.511719 385.136719 789.78125 384.644531 790.078125 C 384.152344 790.375 383.671875 790.691406 383.210938 791.035156 C 382.75 791.375 382.304688 791.742188 381.878906 792.125 C 381.457031 792.515625 381.050781 792.921875 380.667969 793.347656 C 380.28125 793.777344 379.921875 794.222656 379.578125 794.683594 C 379.238281 795.148438 378.921875 795.625 378.628906 796.121094 C 378.335938 796.613281 378.066406 797.121094 377.820312 797.640625 C 377.578125 798.164062 377.359375 798.691406 377.167969 799.234375 C 376.976562 799.777344 376.808594 800.328125 376.671875 800.882812 C 376.535156 801.441406 376.421875 802.003906 376.339844 802.574219 C 376.257812 803.144531 376.203125 803.714844 376.175781 804.289062 C 376.148438 804.863281 376.148438 805.4375 376.179688 806.011719 C 376.207031 806.585938 376.265625 807.15625 376.351562 807.722656 C 376.433594 808.292969 376.546875 808.855469 376.6875 809.414062 C 376.828125 809.96875 376.996094 810.519531 377.191406 811.058594 C 377.382812 811.601562 377.605469 812.128906 377.851562 812.648438 C 378.097656 813.167969 378.367188 813.675781 378.664062 814.167969 C 378.957031 814.660156 379.277344 815.136719 379.621094 815.601562 C 379.960938 816.0625 380.328125 816.503906 380.714844 816.929688 Z M 1244.449219 795.605469 C 1356.558594 663.191406 1395.703125 530.042969 1341.859375 436.839844 C 1302.242188 368.238281 1218.488281 332.011719 1107.15625 330.582031 C 1106.582031 330.574219 1106.007812 330.597656 1105.433594 330.648438 C 1104.863281 330.695312 1104.292969 330.773438 1103.730469 330.878906 C 1103.164062 330.984375 1102.605469 331.121094 1102.054688 331.28125 C 1101.503906 331.441406 1100.960938 331.625 1100.425781 331.839844 C 1099.894531 332.054688 1099.371094 332.292969 1098.863281 332.558594 C 1098.351562 332.820312 1097.855469 333.109375 1097.375 333.421875 C 1096.890625 333.734375 1096.425781 334.070312 1095.976562 334.429688 C 1095.527344 334.789062 1095.097656 335.167969 1094.6875 335.570312 C 1094.277344 335.96875 1093.882812 336.390625 1093.515625 336.828125 C 1093.144531 337.269531 1092.796875 337.722656 1092.46875 338.195312 C 1092.144531 338.667969 1091.839844 339.15625 1091.5625 339.660156 C 1091.285156 340.164062 1091.03125 340.675781 1090.804688 341.203125 C 1090.578125 341.730469 1090.375 342.269531 1090.199219 342.816406 C 1090.023438 343.363281 1089.875 343.917969 1089.757812 344.480469 C 1089.636719 345.039062 1089.542969 345.605469 1089.476562 346.175781 C 1089.410156 346.75 1089.375 347.320312 1089.363281 347.894531 C 1089.359375 348.46875 1089.378906 349.042969 1089.429688 349.613281 C 1089.480469 350.1875 1089.558594 350.753906 1089.664062 351.320312 C 1089.769531 351.882812 1089.902344 352.441406 1090.0625 352.996094 C 1090.222656 353.546875 1090.410156 354.089844 1090.625 354.621094 C 1090.835938 355.15625 1091.078125 355.675781 1091.339844 356.1875 C 1091.605469 356.695312 1091.894531 357.191406 1092.207031 357.671875 C 1092.519531 358.15625 1092.855469 358.621094 1093.214844 359.070312 C 1093.574219 359.515625 1093.953125 359.949219 1094.355469 360.359375 C 1094.753906 360.769531 1095.175781 361.160156 1095.613281 361.53125 C 1096.054688 361.902344 1096.507812 362.25 1096.984375 362.578125 C 1097.457031 362.902344 1097.945312 363.203125 1098.445312 363.480469 C 1098.949219 363.761719 1099.464844 364.011719 1099.992188 364.242188 C 1100.519531 364.46875 1101.058594 364.671875 1101.605469 364.84375 C 1102.152344 365.019531 1102.707031 365.167969 1103.269531 365.289062 C 1103.828125 365.410156 1104.394531 365.503906 1104.964844 365.566406 C 1105.539062 365.632812 1106.109375 365.671875 1106.683594 365.679688 C 1207.003906 366.988281 1278.964844 398.179688 1311.414062 454.398438 C 1356.148438 531.84375 1321.242188 650.585938 1217.605469 772.96875 C 1217.238281 773.410156 1216.890625 773.867188 1216.5625 774.339844 C 1216.238281 774.8125 1215.9375 775.300781 1215.65625 775.804688 C 1215.378906 776.308594 1215.128906 776.824219 1214.898438 777.351562 C 1214.671875 777.878906 1214.472656 778.414062 1214.296875 778.964844 C 1214.121094 779.511719 1213.972656 780.066406 1213.855469 780.625 C 1213.734375 781.1875 1213.640625 781.753906 1213.574219 782.324219 C 1213.511719 782.898438 1213.472656 783.46875 1213.464844 784.042969 C 1213.457031 784.617188 1213.476562 785.191406 1213.523438 785.765625 C 1213.570312 786.335938 1213.644531 786.90625 1213.75 787.472656 C 1213.851562 788.035156 1213.980469 788.59375 1214.140625 789.148438 C 1214.296875 789.699219 1214.484375 790.242188 1214.695312 790.777344 C 1214.90625 791.3125 1215.140625 791.835938 1215.402344 792.347656 C 1215.667969 792.859375 1215.953125 793.355469 1216.265625 793.839844 C 1216.574219 794.320312 1216.910156 794.789062 1217.265625 795.238281 C 1217.621094 795.6875 1218 796.121094 1218.398438 796.535156 C 1218.796875 796.949219 1219.21875 797.339844 1219.65625 797.714844 C 1220.09375 798.085938 1220.550781 798.433594 1221.023438 798.757812 C 1221.496094 799.082031 1221.984375 799.386719 1222.488281 799.664062 C 1222.992188 799.941406 1223.507812 800.191406 1224.035156 800.421875 C 1224.5625 800.648438 1225.101562 800.847656 1225.648438 801.023438 C 1226.195312 801.199219 1226.75 801.34375 1227.3125 801.464844 C 1227.875 801.585938 1228.441406 801.679688 1229.011719 801.742188 C 1229.582031 801.808594 1230.15625 801.84375 1230.730469 801.855469 C 1231.304688 801.863281 1231.878906 801.84375 1232.453125 801.796875 C 1233.027344 801.75 1233.59375 801.675781 1234.160156 801.570312 C 1234.726562 801.46875 1235.285156 801.335938 1235.835938 801.179688 C 1236.390625 801.023438 1236.933594 800.835938 1237.46875 800.625 C 1238.003906 800.414062 1238.527344 800.179688 1239.039062 799.917969 C 1239.550781 799.652344 1240.046875 799.367188 1240.53125 799.058594 C 1241.011719 798.746094 1241.480469 798.410156 1241.929688 798.054688 C 1242.382812 797.699219 1242.8125 797.320312 1243.226562 796.921875 C 1243.640625 796.523438 1244.035156 796.105469 1244.40625 795.667969 Z M 956.3125 346.851562 C 854.96875 368.546875 747.035156 411.011719 643.421875 470.8125 C 387.019531 618.78125 219.753906 837.214844 242.949219 995.210938 C 243.035156 995.777344 243.148438 996.339844 243.289062 996.898438 C 243.429688 997.453125 243.59375 998.003906 243.789062 998.542969 C 243.984375 999.085938 244.203125 999.613281 244.449219 1000.132812 C 244.695312 1000.652344 244.964844 1001.160156 245.261719 1001.652344 C 245.554688 1002.144531 245.875 1002.621094 246.214844 1003.082031 C 246.558594 1003.542969 246.921875 1003.988281 247.308594 1004.414062 C 247.691406 1004.839844 248.097656 1005.246094 248.523438 1005.632812 C 248.949219 1006.019531 249.390625 1006.382812 249.851562 1006.726562 C 250.3125 1007.070312 250.789062 1007.386719 251.28125 1007.683594 C 251.773438 1007.980469 252.28125 1008.253906 252.800781 1008.5 C 253.316406 1008.746094 253.847656 1008.964844 254.386719 1009.160156 C 254.929688 1009.355469 255.476562 1009.523438 256.035156 1009.664062 C 256.589844 1009.808594 257.152344 1009.921875 257.722656 1010.007812 C 258.289062 1010.09375 258.859375 1010.152344 259.433594 1010.179688 C 260.007812 1010.210938 260.582031 1010.214844 261.15625 1010.1875 C 261.730469 1010.164062 262.300781 1010.109375 262.871094 1010.027344 C 263.4375 1009.941406 264 1009.828125 264.558594 1009.6875 C 265.117188 1009.550781 265.664062 1009.382812 266.207031 1009.1875 C 266.746094 1008.996094 267.277344 1008.773438 267.796875 1008.527344 C 268.316406 1008.285156 268.820312 1008.011719 269.316406 1007.71875 C 269.808594 1007.421875 270.285156 1007.105469 270.746094 1006.761719 C 271.207031 1006.421875 271.652344 1006.054688 272.078125 1005.671875 C 272.503906 1005.285156 272.910156 1004.878906 273.296875 1004.457031 C 273.683594 1004.03125 274.046875 1003.585938 274.390625 1003.125 C 274.734375 1002.664062 275.054688 1002.1875 275.351562 1001.695312 C 275.644531 1001.207031 275.917969 1000.699219 276.164062 1000.179688 C 276.410156 999.664062 276.632812 999.132812 276.828125 998.59375 C 277.023438 998.050781 277.191406 997.503906 277.332031 996.945312 C 277.472656 996.390625 277.585938 995.828125 277.671875 995.261719 C 277.757812 994.691406 277.816406 994.121094 277.847656 993.546875 C 277.878906 992.972656 277.878906 992.402344 277.855469 991.828125 C 277.828125 991.253906 277.773438 990.683594 277.691406 990.113281 C 257.078125 849.636719 415.621094 642.808594 660.945312 500.980469 C 761.265625 442.957031 865.941406 401.863281 963.640625 380.925781 C 964.203125 380.804688 964.753906 380.65625 965.300781 380.480469 C 965.847656 380.304688 966.386719 380.101562 966.914062 379.875 C 967.441406 379.644531 967.953125 379.390625 968.457031 379.113281 C 968.960938 378.832031 969.445312 378.53125 969.917969 378.203125 C 970.390625 377.875 970.847656 377.527344 971.285156 377.15625 C 971.722656 376.785156 972.144531 376.394531 972.542969 375.980469 C 972.941406 375.570312 973.320312 375.136719 973.679688 374.6875 C 974.039062 374.238281 974.371094 373.773438 974.683594 373.292969 C 974.996094 372.808594 975.285156 372.3125 975.546875 371.804688 C 975.8125 371.292969 976.050781 370.769531 976.261719 370.238281 C 976.476562 369.703125 976.660156 369.160156 976.820312 368.609375 C 976.980469 368.058594 977.113281 367.5 977.214844 366.933594 C 977.320312 366.371094 977.398438 365.800781 977.445312 365.230469 C 977.496094 364.65625 977.515625 364.082031 977.507812 363.507812 C 977.503906 362.933594 977.46875 362.363281 977.40625 361.792969 C 977.339844 361.222656 977.25 360.65625 977.132812 360.09375 C 977.007812 359.53125 976.859375 358.976562 976.683594 358.429688 C 976.507812 357.882812 976.304688 357.347656 976.078125 356.820312 C 975.847656 356.292969 975.59375 355.78125 975.316406 355.277344 C 975.035156 354.777344 974.734375 354.289062 974.40625 353.816406 C 974.082031 353.34375 973.730469 352.886719 973.359375 352.449219 C 972.988281 352.011719 972.597656 351.59375 972.183594 351.191406 C 971.773438 350.792969 971.339844 350.414062 970.890625 350.058594 C 970.441406 349.699219 969.976562 349.363281 969.492188 349.050781 C 969.011719 348.738281 968.515625 348.453125 968.003906 348.1875 C 967.492188 347.925781 966.972656 347.6875 966.4375 347.476562 C 965.90625 347.261719 965.363281 347.078125 964.808594 346.917969 C 964.257812 346.757812 963.699219 346.625 963.132812 346.519531 C 962.570312 346.417969 962 346.339844 961.429688 346.289062 C 960.855469 346.242188 960.28125 346.222656 959.707031 346.226562 C 959.132812 346.234375 958.5625 346.269531 957.988281 346.332031 C 957.417969 346.394531 956.851562 346.488281 956.289062 346.605469 Z M 956.3125 346.851562 " fill-opacity="1" fill-rule="evenodd"/><g clip-path="url(#7f4c745d4b)"><path fill="#000" d="M 540.933594 1104.945312 C 599.546875 1268.570312 695.445312 1369.324219 803.296875 1369.324219 C 881.953125 1369.324219 954.714844 1315.703125 1011.445312 1221.355469 C 1011.738281 1220.863281 1012.007812 1220.359375 1012.253906 1219.839844 C 1012.5 1219.320312 1012.71875 1218.789062 1012.914062 1218.246094 C 1013.105469 1217.707031 1013.273438 1217.15625 1013.410156 1216.601562 C 1013.550781 1216.042969 1013.664062 1215.480469 1013.746094 1214.910156 C 1013.832031 1214.34375 1013.886719 1213.773438 1013.917969 1213.199219 C 1013.945312 1212.625 1013.945312 1212.050781 1013.917969 1211.476562 C 1013.890625 1210.902344 1013.832031 1210.332031 1013.75 1209.765625 C 1013.667969 1209.195312 1013.554688 1208.632812 1013.417969 1208.074219 C 1013.277344 1207.519531 1013.113281 1206.96875 1012.917969 1206.425781 C 1012.726562 1205.886719 1012.507812 1205.355469 1012.261719 1204.835938 C 1012.019531 1204.316406 1011.75 1203.808594 1011.457031 1203.316406 C 1011.160156 1202.824219 1010.84375 1202.34375 1010.503906 1201.882812 C 1010.160156 1201.421875 1009.796875 1200.976562 1009.414062 1200.546875 C 1009.03125 1200.121094 1008.625 1199.714844 1008.199219 1199.328125 C 1007.777344 1198.941406 1007.332031 1198.574219 1006.875 1198.230469 C 1006.414062 1197.886719 1005.9375 1197.566406 1005.445312 1197.269531 C 1004.953125 1196.972656 1004.445312 1196.703125 1003.925781 1196.457031 C 1003.40625 1196.214844 1002.875 1195.996094 1002.335938 1195.800781 C 1001.792969 1195.609375 1001.246094 1195.441406 1000.6875 1195.300781 C 1000.128906 1195.164062 999.566406 1195.050781 999 1194.964844 C 998.429688 1194.882812 997.859375 1194.824219 997.285156 1194.796875 C 996.710938 1194.769531 996.136719 1194.769531 995.5625 1194.796875 C 994.988281 1194.824219 994.417969 1194.878906 993.847656 1194.964844 C 993.28125 1195.046875 992.71875 1195.160156 992.160156 1195.296875 C 991.601562 1195.4375 991.050781 1195.601562 990.511719 1195.792969 C 989.96875 1195.988281 989.4375 1196.207031 988.917969 1196.449219 C 988.398438 1196.695312 987.890625 1196.964844 987.398438 1197.257812 C 986.90625 1197.550781 986.425781 1197.867188 985.964844 1198.210938 C 985.503906 1198.550781 985.058594 1198.914062 984.628906 1199.296875 C 984.203125 1199.683594 983.796875 1200.085938 983.410156 1200.511719 C 983.019531 1200.933594 982.65625 1201.378906 982.3125 1201.835938 C 981.96875 1202.296875 981.648438 1202.773438 981.347656 1203.265625 C 930.167969 1288.054688 867.722656 1334.183594 803.296875 1334.183594 C 713.726562 1334.183594 628.191406 1244.136719 574 1093.097656 C 573.804688 1092.558594 573.582031 1092.027344 573.335938 1091.507812 C 573.085938 1090.988281 572.816406 1090.484375 572.519531 1089.992188 C 572.222656 1089.5 571.902344 1089.023438 571.558594 1088.5625 C 571.214844 1088.101562 570.851562 1087.660156 570.464844 1087.234375 C 570.078125 1086.808594 569.667969 1086.40625 569.242188 1086.019531 C 568.816406 1085.632812 568.371094 1085.269531 567.910156 1084.929688 C 567.449219 1084.585938 566.96875 1084.269531 566.476562 1083.972656 C 565.984375 1083.679688 565.476562 1083.410156 564.957031 1083.164062 C 564.4375 1082.917969 563.90625 1082.699219 563.367188 1082.503906 C 562.824219 1082.3125 562.273438 1082.144531 561.71875 1082.007812 C 561.160156 1081.867188 560.597656 1081.753906 560.027344 1081.667969 C 559.460938 1081.585938 558.890625 1081.527344 558.316406 1081.5 C 557.742188 1081.472656 557.167969 1081.472656 556.59375 1081.5 C 556.019531 1081.527344 555.445312 1081.582031 554.878906 1081.664062 C 554.308594 1081.75 553.746094 1081.859375 553.1875 1082 C 552.628906 1082.136719 552.082031 1082.304688 551.539062 1082.496094 C 551 1082.691406 550.46875 1082.914062 549.949219 1083.160156 C 549.429688 1083.40625 548.925781 1083.679688 548.433594 1083.976562 C 547.941406 1084.273438 547.464844 1084.59375 547.003906 1084.933594 C 546.542969 1085.277344 546.101562 1085.644531 545.675781 1086.03125 C 545.25 1086.417969 544.84375 1086.824219 544.457031 1087.25 C 544.074219 1087.675781 543.710938 1088.121094 543.367188 1088.582031 C 543.027344 1089.042969 542.707031 1089.523438 542.414062 1090.015625 C 542.117188 1090.507812 541.847656 1091.015625 541.601562 1091.535156 C 541.355469 1092.054688 541.136719 1092.582031 540.945312 1093.125 C 540.75 1093.664062 540.582031 1094.214844 540.445312 1094.773438 C 540.304688 1095.328125 540.191406 1095.894531 540.109375 1096.460938 C 540.023438 1097.03125 539.96875 1097.601562 539.9375 1098.175781 C 539.910156 1098.75 539.910156 1099.320312 539.9375 1099.894531 C 539.964844 1100.46875 540.019531 1101.042969 540.105469 1101.609375 C 540.1875 1102.179688 540.296875 1102.742188 540.4375 1103.296875 C 540.574219 1103.855469 540.742188 1104.40625 540.933594 1104.945312 Z M 1076.363281 1072.9375 C 1106.703125 975.992188 1123 864.1875 1123 747.632812 C 1123 456.855469 1021.191406 206.191406 876.179688 141.84375 C 875.652344 141.613281 875.117188 141.40625 874.570312 141.230469 C 874.027344 141.050781 873.472656 140.898438 872.910156 140.773438 C 872.351562 140.648438 871.785156 140.550781 871.214844 140.480469 C 870.644531 140.410156 870.070312 140.367188 869.496094 140.355469 C 868.921875 140.339844 868.347656 140.355469 867.773438 140.398438 C 867.203125 140.441406 866.632812 140.511719 866.066406 140.609375 C 865.5 140.707031 864.9375 140.832031 864.386719 140.988281 C 863.832031 141.140625 863.285156 141.320312 862.75 141.527344 C 862.214844 141.734375 861.6875 141.964844 861.175781 142.222656 C 860.660156 142.480469 860.160156 142.761719 859.675781 143.070312 C 859.191406 143.375 858.71875 143.707031 858.265625 144.058594 C 857.8125 144.410156 857.378906 144.785156 856.960938 145.179688 C 856.542969 145.578125 856.148438 145.992188 855.769531 146.425781 C 855.394531 146.859375 855.039062 147.3125 854.707031 147.78125 C 854.375 148.25 854.066406 148.734375 853.78125 149.234375 C 853.5 149.730469 853.238281 150.242188 853.003906 150.769531 C 852.773438 151.292969 852.566406 151.828125 852.386719 152.375 C 852.207031 152.921875 852.054688 153.476562 851.929688 154.035156 C 851.804688 154.597656 851.707031 155.160156 851.636719 155.730469 C 851.570312 156.300781 851.527344 156.875 851.511719 157.449219 C 851.5 158.023438 851.515625 158.597656 851.558594 159.171875 C 851.597656 159.742188 851.667969 160.3125 851.769531 160.878906 C 851.867188 161.445312 851.992188 162.003906 852.144531 162.558594 C 852.296875 163.113281 852.476562 163.65625 852.683594 164.191406 C 852.890625 164.730469 853.125 165.253906 853.382812 165.765625 C 853.640625 166.28125 853.921875 166.78125 854.230469 167.265625 C 854.535156 167.75 854.867188 168.222656 855.21875 168.675781 C 855.570312 169.128906 855.945312 169.5625 856.339844 169.980469 C 856.738281 170.398438 857.152344 170.792969 857.585938 171.167969 C 858.019531 171.546875 858.472656 171.898438 858.941406 172.230469 C 859.410156 172.5625 859.894531 172.871094 860.394531 173.15625 C 860.894531 173.441406 861.40625 173.699219 861.929688 173.933594 C 991.277344 231.320312 1087.871094 469.238281 1087.871094 747.65625 C 1087.871094 860.707031 1072.105469 969.011719 1042.828125 1062.480469 C 1042.660156 1063.027344 1042.515625 1063.585938 1042.398438 1064.148438 C 1042.285156 1064.710938 1042.195312 1065.277344 1042.136719 1065.847656 C 1042.074219 1066.421875 1042.042969 1066.992188 1042.039062 1067.566406 C 1042.035156 1068.140625 1042.058594 1068.714844 1042.109375 1069.289062 C 1042.160156 1069.859375 1042.242188 1070.429688 1042.347656 1070.992188 C 1042.457031 1071.554688 1042.589844 1072.113281 1042.753906 1072.664062 C 1042.914062 1073.214844 1043.105469 1073.757812 1043.320312 1074.292969 C 1043.535156 1074.824219 1043.773438 1075.34375 1044.042969 1075.855469 C 1044.308594 1076.363281 1044.597656 1076.859375 1044.914062 1077.339844 C 1045.226562 1077.820312 1045.566406 1078.285156 1045.925781 1078.730469 C 1046.285156 1079.179688 1046.667969 1079.609375 1047.070312 1080.019531 C 1047.472656 1080.429688 1047.890625 1080.820312 1048.332031 1081.1875 C 1048.773438 1081.558594 1049.230469 1081.902344 1049.703125 1082.226562 C 1050.179688 1082.550781 1050.667969 1082.851562 1051.171875 1083.128906 C 1051.675781 1083.40625 1052.191406 1083.65625 1052.71875 1083.882812 C 1053.25 1084.109375 1053.789062 1084.308594 1054.335938 1084.480469 C 1054.882812 1084.652344 1055.441406 1084.792969 1056.003906 1084.910156 C 1056.566406 1085.027344 1057.132812 1085.113281 1057.703125 1085.175781 C 1058.277344 1085.234375 1058.847656 1085.269531 1059.421875 1085.273438 C 1060 1085.277344 1060.570312 1085.253906 1061.144531 1085.203125 C 1061.71875 1085.148438 1062.285156 1085.070312 1062.851562 1084.960938 C 1063.414062 1084.855469 1063.972656 1084.71875 1064.523438 1084.558594 C 1065.074219 1084.394531 1065.617188 1084.207031 1066.148438 1083.992188 C 1066.683594 1083.777344 1067.203125 1083.535156 1067.714844 1083.269531 C 1068.222656 1083.003906 1068.71875 1082.714844 1069.199219 1082.398438 C 1069.679688 1082.085938 1070.144531 1081.746094 1070.59375 1081.386719 C 1071.039062 1081.027344 1071.46875 1080.644531 1071.878906 1080.242188 C 1072.289062 1079.839844 1072.679688 1079.421875 1073.050781 1078.980469 C 1073.417969 1078.539062 1073.765625 1078.082031 1074.089844 1077.609375 C 1074.414062 1077.132812 1074.714844 1076.644531 1074.992188 1076.140625 C 1075.265625 1075.636719 1075.519531 1075.121094 1075.746094 1074.59375 C 1075.972656 1074.066406 1076.171875 1073.527344 1076.34375 1072.980469 Z M 1407.042969 1055.746094 C 1407.042969 1009.351562 1369.414062 971.734375 1323.003906 971.734375 C 1276.589844 971.734375 1238.753906 1009.125 1238.753906 1055.746094 C 1238.753906 1102.367188 1276.386719 1139.757812 1322.796875 1139.757812 C 1369.210938 1139.757812 1406.839844 1102.144531 1406.839844 1055.746094 Z M 1371.933594 1055.746094 C 1371.933594 1057.347656 1371.851562 1058.945312 1371.695312 1060.539062 C 1371.539062 1062.132812 1371.300781 1063.714844 1370.988281 1065.285156 C 1370.675781 1066.855469 1370.289062 1068.40625 1369.820312 1069.9375 C 1369.355469 1071.46875 1368.816406 1072.976562 1368.203125 1074.453125 C 1367.589844 1075.933594 1366.90625 1077.378906 1366.152344 1078.792969 C 1365.394531 1080.203125 1364.574219 1081.574219 1363.683594 1082.90625 C 1362.792969 1084.238281 1361.839844 1085.523438 1360.824219 1086.757812 C 1359.808594 1087.996094 1358.734375 1089.179688 1357.601562 1090.3125 C 1356.46875 1091.445312 1355.28125 1092.519531 1354.046875 1093.535156 C 1352.808594 1094.550781 1351.523438 1095.503906 1350.191406 1096.394531 C 1348.859375 1097.285156 1347.488281 1098.105469 1346.074219 1098.859375 C 1344.660156 1099.617188 1343.214844 1100.300781 1341.738281 1100.914062 C 1340.257812 1101.527344 1338.75 1102.066406 1337.21875 1102.53125 C 1335.6875 1102.996094 1334.132812 1103.382812 1332.5625 1103.699219 C 1330.992188 1104.011719 1329.410156 1104.246094 1327.816406 1104.402344 C 1326.222656 1104.558594 1324.625 1104.640625 1323.023438 1104.640625 C 1321.421875 1104.640625 1319.824219 1104.558594 1318.230469 1104.402344 C 1316.636719 1104.246094 1315.054688 1104.011719 1313.480469 1103.699219 C 1311.910156 1103.382812 1310.359375 1102.996094 1308.828125 1102.53125 C 1307.292969 1102.066406 1305.789062 1101.527344 1304.308594 1100.914062 C 1302.828125 1100.300781 1301.382812 1099.617188 1299.972656 1098.859375 C 1298.558594 1098.105469 1297.1875 1097.285156 1295.855469 1096.394531 C 1294.523438 1095.503906 1293.238281 1094.550781 1292 1093.535156 C 1290.761719 1092.519531 1289.578125 1091.445312 1288.445312 1090.3125 C 1287.3125 1089.179688 1286.238281 1087.996094 1285.222656 1086.757812 C 1284.203125 1085.519531 1283.25 1084.238281 1282.363281 1082.90625 C 1281.472656 1081.574219 1280.648438 1080.203125 1279.894531 1078.792969 C 1279.136719 1077.378906 1278.453125 1075.933594 1277.839844 1074.453125 C 1277.226562 1072.976562 1276.6875 1071.46875 1276.222656 1069.9375 C 1275.757812 1068.40625 1275.367188 1066.855469 1275.054688 1065.285156 C 1274.742188 1063.714844 1274.507812 1062.132812 1274.351562 1060.539062 C 1274.191406 1058.945312 1274.113281 1057.347656 1274.113281 1055.746094 C 1274.113281 1054.144531 1274.191406 1052.550781 1274.351562 1050.957031 C 1274.507812 1049.363281 1274.742188 1047.78125 1275.054688 1046.210938 C 1275.367188 1044.640625 1275.757812 1043.089844 1276.222656 1041.554688 C 1276.6875 1040.023438 1277.226562 1038.519531 1277.839844 1037.039062 C 1278.453125 1035.5625 1279.136719 1034.117188 1279.894531 1032.703125 C 1280.648438 1031.292969 1281.472656 1029.917969 1282.363281 1028.589844 C 1283.25 1027.257812 1284.203125 1025.972656 1285.222656 1024.734375 C 1286.238281 1023.496094 1287.3125 1022.3125 1288.445312 1021.179688 C 1289.578125 1020.046875 1290.761719 1018.972656 1292 1017.957031 C 1293.238281 1016.941406 1294.523438 1015.988281 1295.855469 1015.101562 C 1297.1875 1014.210938 1298.558594 1013.386719 1299.96875 1012.632812 C 1301.382812 1011.878906 1302.828125 1011.195312 1304.308594 1010.582031 C 1305.789062 1009.96875 1307.292969 1009.429688 1308.828125 1008.964844 C 1310.359375 1008.5 1311.910156 1008.109375 1313.480469 1007.796875 C 1315.054688 1007.484375 1316.636719 1007.25 1318.230469 1007.089844 C 1319.824219 1006.933594 1321.421875 1006.855469 1323.023438 1006.855469 C 1324.625 1006.855469 1326.222656 1006.933594 1327.816406 1007.089844 C 1329.410156 1007.25 1330.992188 1007.484375 1332.5625 1007.796875 C 1334.132812 1008.109375 1335.683594 1008.5 1337.21875 1008.964844 C 1338.75 1009.429688 1340.257812 1009.96875 1341.734375 1010.582031 C 1343.214844 1011.195312 1344.660156 1011.878906 1346.074219 1012.632812 C 1347.488281 1013.386719 1348.859375 1014.210938 1350.191406 1015.101562 C 1351.523438 1015.988281 1352.808594 1016.941406 1354.046875 1017.957031 C 1355.28125 1018.972656 1356.46875 1020.046875 1357.601562 1021.179688 C 1358.734375 1022.3125 1359.808594 1023.496094 1360.824219 1024.734375 C 1361.839844 1025.972656 1362.792969 1027.257812 1363.683594 1028.589844 C 1364.574219 1029.917969 1365.394531 1031.292969 1366.152344 1032.703125 C 1366.90625 1034.117188 1367.589844 1035.5625 1368.203125 1037.039062 C 1368.816406 1038.519531 1369.355469 1040.023438 1369.820312 1041.558594 C 1370.289062 1043.089844 1370.675781 1044.640625 1370.988281 1046.210938 C 1371.300781 1047.78125 1371.539062 1049.363281 1371.695312 1050.957031 C 1371.851562 1052.550781 1371.933594 1054.144531 1371.933594 1055.746094 Z M 1371.933594 1055.746094 " fill-opacity="1" fill-rule="evenodd"/></g><path fill="#000" d="M 282.339844 1139.757812 C 328.753906 1139.757812 366.382812 1102.144531 366.382812 1055.746094 C 366.382812 1009.351562 328.753906 971.734375 282.339844 971.734375 C 280.964844 971.734375 279.589844 971.769531 278.214844 971.835938 C 276.84375 971.90625 275.472656 972.003906 274.101562 972.140625 C 272.734375 972.277344 271.371094 972.445312 270.007812 972.644531 C 268.648438 972.847656 267.292969 973.082031 265.945312 973.351562 C 264.597656 973.621094 263.253906 973.921875 261.921875 974.253906 C 260.585938 974.589844 259.261719 974.957031 257.945312 975.355469 C 256.628906 975.753906 255.324219 976.1875 254.027344 976.648438 C 252.734375 977.113281 251.449219 977.609375 250.179688 978.132812 C 248.910156 978.660156 247.652344 979.21875 246.410156 979.804688 C 245.164062 980.394531 243.9375 981.011719 242.726562 981.660156 C 241.511719 982.308594 240.316406 982.984375 239.136719 983.691406 C 237.957031 984.398438 236.792969 985.136719 235.652344 985.898438 C 234.507812 986.664062 233.382812 987.453125 232.277344 988.273438 C 231.175781 989.09375 230.089844 989.9375 229.027344 990.8125 C 227.964844 991.683594 226.921875 992.582031 225.902344 993.503906 C 224.886719 994.429688 223.890625 995.375 222.917969 996.347656 C 221.945312 997.320312 220.996094 998.316406 220.074219 999.335938 C 219.148438 1000.355469 218.25 1001.394531 217.378906 1002.457031 C 216.507812 1003.519531 215.660156 1004.605469 214.839844 1005.710938 C 214.023438 1006.8125 213.230469 1007.9375 212.46875 1009.082031 C 211.703125 1010.222656 210.96875 1011.386719 210.261719 1012.566406 C 209.554688 1013.746094 208.875 1014.941406 208.226562 1016.152344 C 207.578125 1017.367188 206.960938 1018.59375 206.375 1019.835938 C 205.785156 1021.078125 205.230469 1022.335938 204.703125 1023.605469 C 204.175781 1024.878906 203.679688 1026.160156 203.21875 1027.453125 C 202.753906 1028.75 202.324219 1030.054688 201.925781 1031.371094 C 201.527344 1032.683594 201.160156 1034.011719 200.824219 1035.34375 C 200.492188 1036.675781 200.191406 1038.019531 199.921875 1039.367188 C 199.652344 1040.714844 199.417969 1042.070312 199.21875 1043.429688 C 199.015625 1044.789062 198.847656 1046.15625 198.710938 1047.523438 C 198.578125 1048.890625 198.476562 1050.261719 198.410156 1051.636719 C 198.34375 1053.007812 198.308594 1054.382812 198.308594 1055.757812 C 198.308594 1057.132812 198.34375 1058.507812 198.410156 1059.878906 C 198.480469 1061.253906 198.578125 1062.625 198.714844 1063.992188 C 198.851562 1065.359375 199.019531 1066.722656 199.21875 1068.085938 C 199.421875 1069.445312 199.65625 1070.800781 199.925781 1072.148438 C 200.195312 1073.496094 200.496094 1074.835938 200.832031 1076.171875 C 201.164062 1077.503906 201.53125 1078.828125 201.929688 1080.144531 C 202.332031 1081.460938 202.761719 1082.765625 203.226562 1084.058594 C 203.6875 1085.355469 204.183594 1086.636719 204.710938 1087.90625 C 205.238281 1089.175781 205.792969 1090.433594 206.382812 1091.675781 C 206.96875 1092.917969 207.589844 1094.148438 208.238281 1095.359375 C 208.886719 1096.570312 209.5625 1097.769531 210.269531 1098.945312 C 210.976562 1100.125 211.714844 1101.289062 212.476562 1102.429688 C 213.242188 1103.574219 214.035156 1104.695312 214.855469 1105.800781 C 215.671875 1106.90625 216.519531 1107.988281 217.390625 1109.050781 C 218.265625 1110.113281 219.164062 1111.15625 220.085938 1112.175781 C 221.011719 1113.191406 221.957031 1114.1875 222.929688 1115.160156 C 223.902344 1116.132812 224.898438 1117.078125 225.917969 1118.003906 C 226.9375 1118.925781 227.980469 1119.824219 229.042969 1120.695312 C 230.105469 1121.566406 231.191406 1122.414062 232.296875 1123.234375 C 233.398438 1124.050781 234.523438 1124.84375 235.667969 1125.605469 C 236.8125 1126.371094 237.972656 1127.105469 239.152344 1127.8125 C 240.332031 1128.519531 241.53125 1129.195312 242.742188 1129.84375 C 243.957031 1130.492188 245.183594 1131.109375 246.425781 1131.699219 C 247.671875 1132.285156 248.929688 1132.84375 250.199219 1133.367188 C 251.46875 1133.894531 252.753906 1134.390625 254.046875 1134.851562 C 255.34375 1135.316406 256.648438 1135.746094 257.964844 1136.144531 C 259.28125 1136.542969 260.605469 1136.910156 261.941406 1137.246094 C 263.273438 1137.578125 264.617188 1137.878906 265.964844 1138.148438 C 267.3125 1138.414062 268.667969 1138.648438 270.03125 1138.851562 C 271.390625 1139.054688 272.753906 1139.222656 274.125 1139.355469 C 275.492188 1139.492188 276.863281 1139.589844 278.238281 1139.660156 C 279.609375 1139.726562 280.984375 1139.757812 282.359375 1139.757812 Z M 282.339844 1104.660156 C 280.738281 1104.660156 279.140625 1104.582031 277.546875 1104.421875 C 275.953125 1104.265625 274.371094 1104.03125 272.800781 1103.71875 C 271.230469 1103.40625 269.675781 1103.015625 268.144531 1102.550781 C 266.613281 1102.085938 265.105469 1101.546875 263.625 1100.933594 C 262.148438 1100.320312 260.699219 1099.636719 259.289062 1098.882812 C 257.875 1098.125 256.503906 1097.304688 255.171875 1096.414062 C 253.839844 1095.523438 252.554688 1094.570312 251.316406 1093.554688 C 250.078125 1092.539062 248.894531 1091.464844 247.761719 1090.335938 C 246.628906 1089.203125 245.554688 1088.015625 244.539062 1086.78125 C 243.523438 1085.542969 242.570312 1084.257812 241.679688 1082.925781 C 240.789062 1081.59375 239.96875 1080.222656 239.210938 1078.8125 C 238.457031 1077.398438 237.773438 1075.953125 237.160156 1074.476562 C 236.546875 1072.996094 236.007812 1071.492188 235.542969 1069.957031 C 235.074219 1068.425781 234.6875 1066.875 234.375 1065.304688 C 234.0625 1063.734375 233.824219 1062.152344 233.667969 1060.558594 C 233.511719 1058.964844 233.429688 1057.367188 233.429688 1055.769531 C 233.429688 1054.167969 233.511719 1052.570312 233.667969 1050.976562 C 233.824219 1049.382812 234.0625 1047.800781 234.375 1046.230469 C 234.6875 1044.660156 235.074219 1043.109375 235.542969 1041.578125 C 236.007812 1040.046875 236.546875 1038.539062 237.160156 1037.058594 C 237.773438 1035.582031 238.457031 1034.136719 239.210938 1032.722656 C 239.96875 1031.3125 240.789062 1029.941406 241.679688 1028.609375 C 242.570312 1027.277344 243.523438 1025.992188 244.539062 1024.757812 C 245.554688 1023.519531 246.628906 1022.332031 247.761719 1021.203125 C 248.894531 1020.070312 250.078125 1018.996094 251.316406 1017.980469 C 252.554688 1016.964844 253.839844 1016.011719 255.171875 1015.121094 C 256.503906 1014.230469 257.875 1013.410156 259.289062 1012.652344 C 260.699219 1011.898438 262.148438 1011.214844 263.625 1010.601562 C 265.105469 1009.988281 266.613281 1009.449219 268.144531 1008.984375 C 269.675781 1008.519531 271.230469 1008.128906 272.800781 1007.816406 C 274.371094 1007.503906 275.953125 1007.269531 277.546875 1007.113281 C 279.140625 1006.953125 280.738281 1006.875 282.339844 1006.875 C 283.941406 1006.875 285.539062 1006.953125 287.132812 1007.113281 C 288.726562 1007.269531 290.308594 1007.503906 291.882812 1007.816406 C 293.453125 1008.128906 295.003906 1008.519531 296.535156 1008.984375 C 298.070312 1009.449219 299.574219 1009.988281 301.054688 1010.601562 C 302.535156 1011.214844 303.980469 1011.898438 305.390625 1012.652344 C 306.804688 1013.410156 308.175781 1014.230469 309.507812 1015.121094 C 310.839844 1016.011719 312.125 1016.964844 313.363281 1017.980469 C 314.601562 1018.996094 315.785156 1020.070312 316.917969 1021.203125 C 318.050781 1022.332031 319.125 1023.519531 320.140625 1024.757812 C 321.160156 1025.992188 322.109375 1027.277344 323 1028.609375 C 323.890625 1029.941406 324.714844 1031.3125 325.46875 1032.722656 C 326.222656 1034.136719 326.910156 1035.582031 327.523438 1037.058594 C 328.136719 1038.539062 328.675781 1040.046875 329.140625 1041.578125 C 329.605469 1043.109375 329.996094 1044.660156 330.308594 1046.230469 C 330.621094 1047.800781 330.855469 1049.382812 331.011719 1050.976562 C 331.171875 1052.570312 331.25 1054.167969 331.25 1055.769531 C 331.25 1057.367188 331.171875 1058.964844 331.011719 1060.558594 C 330.855469 1062.152344 330.621094 1063.734375 330.308594 1065.304688 C 329.996094 1066.875 329.605469 1068.425781 329.140625 1069.957031 C 328.675781 1071.488281 328.136719 1072.996094 327.523438 1074.476562 C 326.910156 1075.953125 326.222656 1077.398438 325.46875 1078.8125 C 324.714844 1080.222656 323.890625 1081.59375 323 1082.925781 C 322.109375 1084.257812 321.160156 1085.542969 320.140625 1086.78125 C 319.125 1088.015625 318.050781 1089.203125 316.917969 1090.335938 C 315.785156 1091.464844 314.601562 1092.539062 313.363281 1093.554688 C 312.125 1094.570312 310.839844 1095.523438 309.507812 1096.414062 C 308.175781 1097.304688 306.804688 1098.125 305.390625 1098.882812 C 303.980469 1099.636719 302.535156 1100.320312 301.054688 1100.933594 C 299.574219 1101.546875 298.070312 1102.085938 296.535156 1102.550781 C 295.003906 1103.015625 293.453125 1103.40625 291.882812 1103.71875 C 290.308594 1104.03125 288.726562 1104.265625 287.132812 1104.421875 C 285.539062 1104.582031 283.941406 1104.660156 282.339844 1104.660156 Z M 803.296875 227.332031 C 849.707031 227.332031 887.335938 189.714844 887.335938 143.320312 C 887.335938 96.921875 849.6875 59.511719 803.296875 59.511719 C 756.902344 59.511719 719.253906 97.128906 719.253906 143.523438 C 719.253906 189.917969 756.882812 227.332031 803.296875 227.332031 Z M 803.296875 192.230469 C 801.695312 192.230469 800.097656 192.152344 798.503906 191.996094 C 796.910156 191.835938 795.324219 191.601562 793.753906 191.289062 C 792.183594 190.976562 790.632812 190.585938 789.101562 190.121094 C 787.566406 189.65625 786.0625 189.117188 784.582031 188.503906 C 783.101562 187.890625 781.65625 187.207031 780.242188 186.453125 C 778.832031 185.699219 777.460938 184.875 776.128906 183.984375 C 774.796875 183.097656 773.511719 182.144531 772.273438 181.128906 C 771.035156 180.113281 769.851562 179.039062 768.71875 177.90625 C 767.585938 176.773438 766.511719 175.589844 765.492188 174.351562 C 764.476562 173.113281 763.523438 171.828125 762.636719 170.496094 C 761.746094 169.167969 760.921875 167.792969 760.167969 166.382812 C 759.410156 164.972656 758.726562 163.527344 758.113281 162.046875 C 757.5 160.566406 756.960938 159.0625 756.496094 157.53125 C 756.03125 155.996094 755.640625 154.445312 755.328125 152.875 C 755.015625 151.304688 754.78125 149.722656 754.625 148.128906 C 754.464844 146.539062 754.386719 144.941406 754.386719 143.339844 C 754.386719 141.738281 754.464844 140.140625 754.625 138.546875 C 754.78125 136.953125 755.015625 135.371094 755.328125 133.800781 C 755.640625 132.230469 756.03125 130.679688 756.496094 129.148438 C 756.960938 127.617188 757.5 126.109375 758.113281 124.632812 C 758.726562 123.152344 759.410156 121.707031 760.167969 120.296875 C 760.921875 118.882812 761.746094 117.511719 762.632812 116.179688 C 763.523438 114.847656 764.476562 113.566406 765.492188 112.328125 C 766.511719 111.089844 767.585938 109.90625 768.71875 108.773438 C 769.851562 107.640625 771.035156 106.566406 772.273438 105.550781 C 773.511719 104.535156 774.796875 103.582031 776.128906 102.691406 C 777.460938 101.800781 778.832031 100.980469 780.242188 100.226562 C 781.65625 99.46875 783.101562 98.785156 784.582031 98.171875 C 786.0625 97.558594 787.566406 97.019531 789.101562 96.554688 C 790.632812 96.089844 792.183594 95.703125 793.753906 95.390625 C 795.324219 95.074219 796.910156 94.839844 798.503906 94.683594 C 800.097656 94.527344 801.695312 94.445312 803.296875 94.445312 C 804.898438 94.445312 806.496094 94.527344 808.089844 94.683594 C 809.683594 94.839844 811.265625 95.074219 812.835938 95.390625 C 814.40625 95.703125 815.957031 96.089844 817.492188 96.554688 C 819.023438 97.019531 820.53125 97.558594 822.007812 98.171875 C 823.488281 98.785156 824.933594 99.46875 826.347656 100.226562 C 827.761719 100.980469 829.132812 101.800781 830.464844 102.691406 C 831.796875 103.582031 833.082031 104.535156 834.316406 105.550781 C 835.554688 106.566406 836.742188 107.640625 837.875 108.773438 C 839.007812 109.90625 840.082031 111.089844 841.097656 112.328125 C 842.113281 113.566406 843.066406 114.847656 843.957031 116.179688 C 844.847656 117.511719 845.667969 118.882812 846.425781 120.296875 C 847.179688 121.707031 847.863281 123.152344 848.476562 124.632812 C 849.089844 126.109375 849.628906 127.617188 850.09375 129.148438 C 850.558594 130.679688 850.949219 132.230469 851.261719 133.800781 C 851.574219 135.371094 851.8125 136.953125 851.96875 138.546875 C 852.125 140.140625 852.203125 141.738281 852.207031 143.339844 C 852.203125 144.941406 852.125 146.539062 851.96875 148.128906 C 851.8125 149.722656 851.574219 151.304688 851.261719 152.875 C 850.949219 154.445312 850.558594 155.996094 850.09375 157.53125 C 849.628906 159.0625 849.089844 160.566406 848.476562 162.046875 C 847.863281 163.527344 847.179688 164.972656 846.425781 166.382812 C 845.667969 167.792969 844.847656 169.167969 843.957031 170.496094 C 843.066406 171.828125 842.113281 173.113281 841.097656 174.351562 C 840.082031 175.589844 839.007812 176.773438 837.875 177.90625 C 836.742188 179.039062 835.554688 180.113281 834.316406 181.128906 C 833.082031 182.144531 831.796875 183.097656 830.464844 183.984375 C 829.132812 184.875 827.761719 185.699219 826.347656 186.453125 C 824.933594 187.207031 823.488281 187.890625 822.007812 188.503906 C 820.53125 189.117188 819.023438 189.65625 817.492188 190.121094 C 815.957031 190.585938 814.40625 190.976562 812.835938 191.289062 C 811.265625 191.601562 809.683594 191.835938 808.089844 191.996094 C 806.496094 192.152344 804.898438 192.230469 803.296875 192.230469 Z M 816.113281 807.027344 C 814.160156 807.460938 812.191406 807.796875 810.207031 808.039062 C 808.222656 808.277344 806.230469 808.421875 804.230469 808.464844 C 802.230469 808.507812 800.234375 808.453125 798.242188 808.300781 C 796.246094 808.148438 794.265625 807.898438 792.296875 807.550781 C 790.328125 807.203125 788.378906 806.757812 786.457031 806.21875 C 784.53125 805.675781 782.636719 805.042969 780.773438 804.316406 C 778.910156 803.589844 777.089844 802.773438 775.304688 801.863281 C 773.523438 800.957031 771.792969 799.964844 770.109375 798.886719 C 768.421875 797.808594 766.796875 796.652344 765.226562 795.414062 C 763.65625 794.175781 762.152344 792.863281 760.710938 791.476562 C 759.269531 790.089844 757.902344 788.636719 756.605469 787.113281 C 755.308594 785.59375 754.089844 784.011719 752.949219 782.367188 C 751.808594 780.726562 750.753906 779.035156 749.777344 777.285156 C 748.804688 775.539062 747.921875 773.75 747.125 771.917969 C 746.328125 770.085938 745.621094 768.214844 745.007812 766.3125 C 744.398438 764.410156 743.878906 762.484375 743.457031 760.527344 C 743.035156 758.574219 742.710938 756.605469 742.484375 754.617188 C 742.253906 752.632812 742.125 750.640625 742.09375 748.640625 C 742.0625 746.644531 742.128906 744.648438 742.296875 742.65625 C 742.460938 740.664062 742.726562 738.683594 743.085938 736.71875 C 743.449219 734.753906 743.90625 732.808594 744.457031 730.886719 C 745.011719 728.96875 745.65625 727.078125 746.398438 725.222656 C 747.136719 723.363281 747.964844 721.546875 748.882812 719.773438 C 749.800781 717.996094 750.804688 716.269531 751.894531 714.59375 C 752.984375 712.917969 754.152344 711.296875 755.402344 709.738281 C 756.652344 708.175781 757.972656 706.679688 759.371094 705.25 C 760.765625 703.820312 762.230469 702.460938 763.757812 701.171875 C 765.289062 699.886719 766.878906 698.679688 768.53125 697.550781 C 770.179688 696.417969 771.882812 695.375 773.632812 694.414062 C 775.386719 693.449219 777.183594 692.578125 779.023438 691.792969 C 780.859375 691.007812 782.734375 690.316406 784.640625 689.714844 C 786.550781 689.117188 788.480469 688.609375 790.4375 688.203125 C 792.390625 687.765625 794.359375 687.429688 796.34375 687.1875 C 798.328125 686.949219 800.320312 686.804688 802.320312 686.761719 C 804.320312 686.71875 806.316406 686.773438 808.308594 686.925781 C 810.304688 687.078125 812.285156 687.328125 814.253906 687.675781 C 816.222656 688.027344 818.171875 688.46875 820.09375 689.011719 C 822.019531 689.550781 823.914062 690.183594 825.777344 690.910156 C 827.640625 691.636719 829.460938 692.457031 831.242188 693.363281 C 833.027344 694.269531 834.757812 695.261719 836.441406 696.339844 C 838.128906 697.417969 839.753906 698.574219 841.324219 699.8125 C 842.894531 701.050781 844.398438 702.363281 845.839844 703.75 C 847.277344 705.136719 848.648438 706.589844 849.945312 708.113281 C 851.242188 709.632812 852.460938 711.214844 853.601562 712.859375 C 854.742188 714.5 855.796875 716.195312 856.773438 717.941406 C 857.746094 719.6875 858.628906 721.476562 859.425781 723.308594 C 860.222656 725.140625 860.929688 727.011719 861.539062 728.914062 C 862.152344 730.816406 862.671875 732.746094 863.09375 734.699219 C 863.515625 736.652344 863.839844 738.621094 864.066406 740.609375 C 864.296875 742.59375 864.425781 744.585938 864.457031 746.585938 C 864.488281 748.582031 864.417969 750.578125 864.253906 752.570312 C 864.089844 754.5625 863.824219 756.542969 863.464844 758.507812 C 863.101562 760.472656 862.644531 762.417969 862.09375 764.339844 C 861.539062 766.261719 860.894531 768.148438 860.152344 770.007812 C 859.414062 771.863281 858.585938 773.679688 857.667969 775.457031 C 856.75 777.230469 855.746094 778.957031 854.65625 780.632812 C 853.566406 782.308594 852.398438 783.929688 851.148438 785.488281 C 849.898438 787.050781 848.578125 788.546875 847.179688 789.976562 C 845.785156 791.410156 844.320312 792.765625 842.789062 794.054688 C 841.261719 795.339844 839.671875 796.546875 838.019531 797.679688 C 836.371094 798.808594 834.667969 799.851562 832.917969 800.816406 C 831.164062 801.777344 829.367188 802.648438 827.527344 803.433594 C 825.6875 804.21875 823.816406 804.910156 821.910156 805.511719 C 820 806.113281 818.070312 806.617188 816.113281 807.027344 Z M 816.113281 807.027344 " fill-opacity="1" fill-rule="evenodd"/><g clip-path="url(#0384ee3def)"><g clip-path="url(#3d12db033c)"><g transform="matrix(1, 0, 0, 1, 224, 1002)"><g clip-path="url(#4ebdd06b46)"><g clip-path="url(#a6533279f9)"><g clip-path="url(#5ff37fd599)"><path fill="url(#22f68249a4)" d="M 0.660156 0.230469 L 0.660156 108.222656 L 108.652344 108.222656 L 108.652344 0.230469 Z M 0.660156 0.230469 " fill-rule="nonzero"/></g></g></g></g></g></g><g clip-path="url(#221acb25c0)"><g clip-path="url(#84c2aaec99)"><g transform="matrix(1, 0, 0, 1, 752, 86)"><g clip-path="url(#34759c8325)"><g clip-path="url(#88e0a116c0)"><g clip-path="url(#337c95f726)"><path fill="url(#a7fcc2a3c7)" d="M 0.5 0.0859375 L 0.5 108.078125 L 108.492188 108.078125 L 108.492188 0.0859375 Z M 0.5 0.0859375 " fill-rule="nonzero"/></g></g></g></g></g></g><g clip-path="url(#15b7ef36f3)"><g clip-path="url(#8ca4a9536f)"><g transform="matrix(1, 0, 0, 1, 1269, 999)"><g clip-path="url(#12247a792d)"><g clip-path="url(#524e79480c)"><g clip-path="url(#be1e32d550)"><path fill="url(#457eac0cfa)" d="M 0.0078125 0.980469 L 0.0078125 108.972656 L 108 108.972656 L 108 0.980469 Z M 0.0078125 0.980469 " fill-rule="nonzero"/></g></g></g></g></g></g></svg>